<?xml version="1.0" encoding="UTF-8" standalone="no"?>
<svg
   xmlns:dc="http://purl.org/dc/elements/1.1/"
   xmlns:cc="http://creativecommons.org/ns#"
   xmlns:rdf="http://www.w3.org/1999/02/22-rdf-syntax-ns#"
   xmlns:svg="http://www.w3.org/2000/svg"
   xmlns="http://www.w3.org/2000/svg"
   id="svg8382"
   version="1.1"
   viewBox="0 0 67.23175 49.399467"
   height="49.399467mm"
   width="67.23175mm"
   preserveAspectRatio="none">
  <defs
     id="defs8376" />
  <metadata
     id="metadata8379">
    <rdf:RDF>
      <cc:Work
         rdf:about="">
        <dc:format>image/svg+xml</dc:format>
        <dc:type
           rdf:resource="http://purl.org/dc/dcmitype/StillImage" />
        <dc:title></dc:title>
      </cc:Work>
    </rdf:RDF>
  </metadata>
  <g
     transform="translate(-13.796131,-5.7381898)"
     id="layer1">
    <path
       class="fil21"
       d="m 21.822902,52.746283 c -3.605847,-0.7968 -6.525191,-2.87133 -5.511186,-13.34413 0.313243,-3.23709 -0.130549,-3.56722 -0.130549,-3.56722 0,0 -1.671626,-4.42591 -2.063648,-7.79504 C 11.295336,3.7720442 27.852922,5.8315672 32.792772,5.7775472 c 9.72927,-0.10654 19.50544,0.02551 29.238461,0.13205 4.93985,0.05402 21.49744,-2.005503 18.67526,22.2623458 -0.39165,3.36914 -2.06365,7.79504 -2.06365,7.79504 0,0 -0.44417,0.33013 -0.13055,3.56722 1.014,10.4728 -1.90534,12.54733 -5.51119,13.34412 -14.02989,3.10054 -37.161441,2.96549 -51.178951,-0.13204 z"
       id="path6768"
       style="clip-rule:evenodd;fill:#fffbe0;fill-rule:evenodd;stroke-width:0.03751406;image-rendering:optimizeQuality;shape-rendering:geometricPrecision;text-rendering:geometricPrecision" />
  </g>
</svg>
