<?xml version="1.0" encoding="UTF-8" standalone="no"?>
<svg
   xmlns:dc="http://purl.org/dc/elements/1.1/"
   xmlns:cc="http://creativecommons.org/ns#"
   xmlns:rdf="http://www.w3.org/1999/02/22-rdf-syntax-ns#"
   xmlns:svg="http://www.w3.org/2000/svg"
   xmlns="http://www.w3.org/2000/svg"
   id="svg8192"
   viewBox="0 0 2249.3102 592.17582"
   style="clip-rule:evenodd;fill-rule:evenodd;image-rendering:optimizeQuality;shape-rendering:geometricPrecision;text-rendering:geometricPrecision"
   version="1.1"
   height="0.87460858in"
   width="3.3220773in"
   xml:space="preserve"><metadata
   id="metadata8196"><rdf:RDF><cc:Work
       rdf:about=""><dc:format>image/svg+xml</dc:format><dc:type
         rdf:resource="http://purl.org/dc/dcmitype/StillImage" /><dc:title></dc:title></cc:Work></rdf:RDF></metadata>
 <defs
   id="defs6382">
  <style
   id="style6377"
   type="text/css">
   <![CDATA[
    .str1 {stroke:#373435;stroke-width:4.7;stroke-miterlimit:2.61313}
    .str0 {stroke:black;stroke-width:4.51;stroke-miterlimit:2.61313}
    .str5 {stroke:black;stroke-width:8.72;stroke-miterlimit:2.61313}
    .str9 {stroke:black;stroke-width:8.72;stroke-miterlimit:2.61313}
    .str2 {stroke:black;stroke-width:4.7;stroke-miterlimit:2.61313}
    .str3 {stroke:black;stroke-width:4.7;stroke-miterlimit:2.61313}
    .str4 {stroke:black;stroke-width:4.7;stroke-miterlimit:2.61313}
    .str7 {stroke:#ED8970;stroke-width:2.28;stroke-linecap:round;stroke-linejoin:round;stroke-miterlimit:2.61313}
    .str11 {stroke:#ED8970;stroke-width:2.28;stroke-linecap:round;stroke-linejoin:round;stroke-miterlimit:2.61313}
    .str6 {stroke:#ED8970;stroke-width:1.69;stroke-linecap:round;stroke-linejoin:round;stroke-miterlimit:2.61313}
    .str10 {stroke:#ED8970;stroke-width:1.69;stroke-linecap:round;stroke-linejoin:round;stroke-miterlimit:2.61313}
    .str8 {stroke:#ED8970;stroke-width:2.59;stroke-linecap:round;stroke-linejoin:round;stroke-miterlimit:2.61313}
    .str12 {stroke:#ED8970;stroke-width:2.59;stroke-linecap:round;stroke-linejoin:round;stroke-miterlimit:2.61313}
    .str14 {stroke:black;stroke-width:6.49;stroke-miterlimit:2.61313;stroke-dasharray:12.976431 19.464646}
    .str15 {stroke:black;stroke-width:6.49;stroke-miterlimit:2.61313;stroke-dasharray:12.976431 19.464646}
    .str13 {stroke:black;stroke-width:6.49;stroke-miterlimit:2.61313;stroke-dasharray:12.976431 19.464646}
    .str16 {stroke:black;stroke-width:6.49;stroke-miterlimit:2.61313;stroke-dasharray:12.976431 19.464646}
    .fil22 {fill:none}
    .fil14 {fill:#373435}
    .fil7 {fill:black}
    .fil39 {fill:black}
    .fil43 {fill:#254DB0}
    .fil35 {fill:#3B0909}
    .fil2 {fill:#446E22}
    .fil29 {fill:#50D960}
    .fil1 {fill:#74B93B}
    .fil12 {fill:#75B93B}
    .fil25 {fill:#789ED6}
    .fil6 {fill:#86D442}
    .fil28 {fill:#B3B3B3}
    .fil38 {fill:#BAD5E3}
    .fil15 {fill:#C4B48F}
    .fil9 {fill:#C4B490}
    .fil0 {fill:#CCFEAA}
    .fil17 {fill:#D18E4D}
    .fil3 {fill:#D28E4D}
    .fil20 {fill:#DB2E16}
    .fil8 {fill:#DC2E16}
    .fil31 {fill:#E36464}
    .fil33 {fill:#ED8970}
    .fil5 {fill:#F4ECD9}
    .fil13 {fill:#F5EDDA}
    .fil18 {fill:#FCCA91}
    .fil19 {fill:#FCCB93}
    .fil23 {fill:#FCD929}
    .fil4 {fill:#FECC94}
    .fil36 {fill:#FFB5B5}
    .fil30 {fill:#FFB82B}
    .fil34 {fill:#FFD333}
    .fil21 {fill:#FFFBE0}
    .fil24 {fill:white}
    .fil27 {fill:white}
    .fil11 {fill:black;fill-rule:nonzero}
    .fil10 {fill:black;fill-rule:nonzero}
    .fil37 {fill:#254DB0;fill-rule:nonzero}
    .fil40 {fill:#50D960;fill-rule:nonzero}
    .fil16 {fill:#CC6C52;fill-rule:nonzero}
    .fil42 {fill:#E36464;fill-rule:nonzero}
    .fil32 {fill:#FF7E0D;fill-rule:nonzero}
    .fil41 {fill:#FFB82B;fill-rule:nonzero}
    .fil26 {fill:white;fill-rule:nonzero}
   ]]>
  </style>
   <clipPath
   id="id0">
    <rect
   x="0"
   id="rect6379"
   height="5418.8799"
   width="4574.79"
   y="924.71002" />
   </clipPath>
 
   
   
   
   
   
   
   
   
   
   
   
   
   
   
   
   
   
   
   
   
   
   
   
   
   
   
   
   
   
   
   
   
   
   
   
   
   
   
   
   
   
   
   
   
   
   
   
   
   
   
   
   
   
   
   
   
   
   
   
   
   
   
   
   
   
   
   
   
   
   
   
   
   
   
  </defs>
 <g
   transform="translate(-4759.5298,-0.02008646)"
   id="Layer_x0020_1">
  <metadata
   id="CorelCorpID_0Corel-Layer" />
  <g
   id="_739678956656">
   <path
   style="fill:#ccfeaa"
   id="path6385"
   d="m 4915.84,369.62 c -0.23,-1.03 -6.62,-14.83 -9.15,-25.57 -4.18,-17.72 -3.64,-41.29 13.18,-52.07 4.04,-2.59 12.56,-4.93 17.25,-3.93 3.29,0.7 8.71,0.51 10.78,-1.21 -5.94,0.49 -20.63,-6.87 -34.84,-0.22 -9.33,4.36 -13.98,14.66 -16.23,24.36 -2.48,10.74 -2.28,25.96 1.98,35.77 1.96,4.5 4.5,9.56 6.98,13.13 2.88,4.14 3.68,5.28 7.06,8.17 1.18,1.01 1.27,1.87 2.99,1.57 z"
   class="fil0" />
   <path
   style="fill:#ccfeaa"
   id="path6387"
   d="m 4828.9,310.3 c 8.47,0.21 8.81,-2.6 21.25,-0.21 8.91,1.72 23.18,12.56 29.08,18.61 1.97,2.02 3.41,3.86 5.32,6.45 1.14,1.55 3.39,6.37 5.13,6.49 -0.2,-1.78 -0.74,-3.52 -1.08,-5.37 -0.34,-1.9 -0.54,-3.85 -0.84,-5.75 -0.98,-6.13 -0.31,-6.47 -3.43,-9.51 -3.89,-3.8 -17.03,-14.74 -23.18,-15.56 -11.35,-1.51 -22.64,-1.28 -32.24,4.84 z"
   class="fil0" />
   <path
   style="fill:#74b93b"
   id="path6389"
   d="m 4947.91,286.84 c -2.07,1.72 -7.49,1.91 -10.78,1.21 -4.69,-1 -13.21,1.34 -17.25,3.93 -16.83,10.78 -17.36,34.35 -13.18,52.07 2.53,10.74 8.92,24.53 9.15,25.57 l 1.04,-0.14 c -0.38,-1.51 -1.23,-2.87 -1.76,-4.57 -1.31,-4.2 -2.76,-12.01 -2.66,-16.29 0.15,-6.81 2.2,-15.22 5.3,-19.96 3.01,-4.61 7.78,-8.56 14.13,-11.15 2.9,-1.18 6.77,-2.26 10.17,-2.45 5.77,-0.31 8.39,1.64 10.45,1.86 0.79,-7.01 4.23,-14.35 7.66,-18.24 9.05,-10.26 23.59,-15.5 38.02,-12.24 10.55,2.38 13.85,7.13 17.69,8.61 -0.91,-8.22 -1.35,-16.5 -6.59,-20.32 -10.49,-7.65 -31.97,-7.6 -42.86,-0.81 -5.72,3.56 -9.1,8.71 -12.46,10.81 -1.56,0.97 -0.91,0.21 -1.66,1.74 -2.17,-0.13 -2.22,0.08 -4.41,0.38 z"
   class="fil1" />
   <path
   style="fill:#74b93b"
   id="path6391"
   d="m 4828.9,310.3 c -7.49,4.29 -14.36,16.15 -20.04,21.19 -1.15,1.02 -1.76,1.89 -2.89,3.06 1.63,1.08 2.61,0.03 6.39,3.58 1.91,1.79 2.89,3.39 5.1,4.95 3.26,2.3 9.88,5.61 15.31,4.59 4.04,-0.76 6.47,-5.5 11.26,-8.86 9.09,-6.38 20.9,-4.16 28.16,4.68 1.32,1.6 2.75,4.1 3.76,6.29 4.84,10.48 2.42,9.96 9.76,9.77 3.07,-0.08 5.83,0.59 8.24,1.82 2.38,1.21 4.11,2.92 5.46,4.59 2.92,3.6 2.8,5.25 3.83,6.54 l 3.37,-0.9 -5.19,-6.5 c -6.7,-8.46 -11.47,-23.09 -11.76,-23.46 -1.74,-0.11 -3.98,-4.93 -5.13,-6.49 -1.91,-2.6 -3.35,-4.44 -5.32,-6.45 -5.9,-6.05 -20.18,-16.89 -29.08,-18.61 -12.44,-2.39 -12.77,0.42 -21.25,0.21 z"
   class="fil1" />
   <path
   style="fill:#446e22"
   id="path6393"
   d="m 4957.44,326.1 c -0.98,0.07 -6.36,-2.8 -8.14,-3.41 -8.64,-2.95 -21.19,1.91 -25.36,9.27 -5.39,9.52 -6.06,18.78 -2.65,29.37 0.47,1.45 1.03,3.03 1.57,4.47 1.08,2.84 2,2.33 3.31,2.04 -0.93,-4.69 -0.03,-9.76 2.28,-13.26 2.05,-3.1 5.44,-4.79 10.15,-5.91 7.21,-1.72 25.07,3.47 29.49,-1.22 0.82,-1.74 -3.44,-6.89 0.96,-15.46 7.88,-15.34 26.93,-13.01 40.31,-7.04 4.58,2.04 7.66,4.27 13.3,5.41 5.56,1.12 11.13,-0.71 14.55,-3.46 6.33,-5.09 6.26,-11.29 12.2,-15.95 2.28,-1.79 5.39,-3.33 5.82,-3.79 -8.89,-7.43 -9.41,-5.21 -21.86,-4.17 -3.09,0.26 -5.65,0.59 -8.91,0.64 -14.7,0.23 -14.47,-7.62 -27.17,-10.57 -5.75,-1.33 -10.8,-1.37 -16.31,0.3 -4.47,1.35 -9.55,3.82 -12.37,6.29 -11.05,9.68 -9.09,21.47 -11.17,26.44 z"
   class="fil2" />
   <path
   style="fill:#446e22"
   id="path6395"
   d="m 4804.16,418.44 c -0.6,-5.6 -0.73,-9.3 1.06,-14.46 2.77,-7.99 8.17,-13.44 14.58,-18.17 9.48,-6.99 16.54,-8.45 23.73,-17.05 7.21,-8.63 12.61,-17.22 24.1,-17.07 -0.32,-1.47 -2.11,-3.49 -2.98,-4.38 -1.23,-1.27 -2.4,-2.2 -4.42,-3.05 -4.33,-1.83 -8.86,-0.73 -12.03,1.59 -5.05,3.69 -7.8,11.1 -19.62,9.98 -8.86,-0.84 -14.62,-4.56 -19.96,-10.21 -3.23,-3.42 -3.66,-5.54 -10.39,-3.5 -2.58,0.78 -2.9,1.23 -4.76,2.72 -1.44,1.16 -2.94,2.16 -4.47,3.29 -7.13,5.27 -10.56,6.63 -14.69,15.47 -2.32,4.97 -2.85,5.63 -3.16,12.04 -0.22,4.56 0.89,9 2.41,12.81 4.25,10.66 12.12,18.51 21.25,24.14 l 9.34,5.86 z"
   class="fil2" />
   <path
   style="fill:#d28e4d"
   id="path6397"
   d="m 5087.28,233.67 c 5.64,0.33 2.4,-1.17 6.14,1.72 10.94,8.46 18.53,14.87 32.43,21.29 1.92,0.89 3.72,1.49 4.91,2.84 l 3.7,4.06 c 17.3,18.38 32.34,44.01 37.29,69.86 1.11,5.8 1.03,7.82 0.09,13.82 -1.63,10.36 -2.78,14.44 -8.79,21.63 -1.35,1.61 -5.92,7.01 -7.27,7.96 l -9.46,6.05 c -1.9,1.29 -12.52,9.02 -13.57,9.42 -11.54,4.36 -33.14,9.52 -44.55,8.73 -27.82,-1.95 -48.29,-7.18 -72.41,-19.62 -9.22,-4.76 -23.72,-15 -30.95,-22.77 -0.77,-0.82 -3.03,-3.15 -3.87,-3.67 0.71,5.93 2.9,12.79 5.39,18.24 0.62,1.35 0.33,1.06 1.78,1.67 6.43,2.68 12.11,6.34 16.97,10.04 9.56,7.28 18.38,17.11 24.64,29.37 2.58,5.05 2.07,3.86 7.17,6.33 3.15,1.53 6.07,2.84 9.34,4.16 9.96,4.02 11.11,3.99 21.72,5.29 8.38,1.03 16.58,1.61 25.11,1.87 8.02,0.24 4.96,0.83 11.15,-2.35 21,-10.75 46.32,-27.94 64.72,-43.29 l 25.08,-22.04 c 1.23,-1.06 2.26,-2.35 3.44,-3.45 2.43,-2.26 17.41,-17.05 20.06,-20.45 4,-5.14 4.66,-2.64 2.68,-8.29 -0.83,-2.38 -2.75,-8.29 -3.91,-9.91 -4.95,0.6 -4.47,0.96 -9.26,-7.96 -2.1,-3.91 -3.72,-8.17 -5.72,-12.1 -3.44,-6.77 -9.14,-18.06 -13.46,-22.43 0.73,6.49 8.46,26.63 6.37,31.38 -2.02,0.84 -9.26,2.06 -11.81,2.15 -2.26,0.08 -4.37,0.22 -6.61,0.33 -8.19,0.42 -6.73,1.51 -6.45,-8.04 0.15,-5.24 -1.65,-17.53 -2.67,-22.46 -0.92,-4.46 -2.13,-8.94 -3.39,-13.29 -1.29,-4.48 -2.37,-8.81 -3.64,-13.29 -21.54,-4.53 -31.33,-6.33 -50.57,-15.51 -3.32,-1.59 -11.97,-5.73 -13.91,-8.16 -1.58,0.3 -1.93,0.61 -3.81,0.64 -1.29,0.02 -3.09,-0.12 -4.11,0.24 z"
   class="fil3" />
   <path
   style="fill:#d28e4d"
   id="path6399"
   d="m 5143.33,228.5 c 3.62,2.42 19.54,4.75 24.51,5.74 6.93,1.38 5.37,-4.45 25.09,2.76 3.55,1.3 7.36,2.59 10.82,4.12 13.34,5.88 9.65,4.98 24.65,4.89 4.15,-0.03 10.72,-1.34 5.88,-6.12 -5.54,-5.47 -11.35,-8.9 -8.19,-20.29 2.75,-9.92 8.86,-13.72 -0.86,-20.08 -5.54,-3.62 -14.81,-7.03 -15.87,-14.27 -1.06,-7.26 6.74,-9.77 2.88,-16.98 -0.79,-1.48 -2.34,-3.39 -3.73,-4.17 -0.97,1.45 -1.78,1.76 -2.76,3.01 -0.81,1.03 -1.51,1.93 -2.28,3.18 -3.19,5.1 -5.01,12.73 -1.64,17.6 1.76,2.54 3.41,3.08 6.08,5.13 l 9.03,7.91 c 5.17,5.21 6.04,4.95 6.09,10.67 0.03,2.96 -1.79,6.4 -3.43,7.56 -3.76,2.65 -15.24,0.16 -19.94,-0.3 -3.57,-0.35 -7.29,-0.44 -10.89,-0.39 -3.73,0.05 -6.43,0.94 -9.75,1.13 -6.69,0.38 -13.29,1.28 -19.24,3.21 -2.69,0.87 -6.18,1.2 -9.11,2.08 -4.35,1.3 -4.66,2.25 -7.31,3.62 z"
   class="fil3" />
   <path
   style="fill:#fecc94"
   id="path6401"
   d="m 4980.99,354.98 c 0.84,0.52 3.1,2.85 3.87,3.67 7.22,7.77 21.73,18.02 30.95,22.77 24.12,12.44 44.59,17.68 72.41,19.62 11.41,0.8 33.01,-4.36 44.55,-8.73 1.04,-0.39 11.66,-8.12 13.57,-9.42 l 9.46,-6.05 c 1.35,-0.95 5.92,-6.35 7.27,-7.96 6.01,-7.18 7.16,-11.27 8.79,-21.63 0.94,-6 1.02,-8.02 -0.09,-13.82 -4.95,-25.85 -19.99,-51.48 -37.29,-69.86 l -3.7,-4.06 c -1.2,-1.35 -2.99,-1.96 -4.91,-2.84 -13.9,-6.42 -21.49,-12.83 -32.43,-21.29 -3.74,-2.89 -0.5,-1.39 -6.14,-1.72 -5.65,-0.51 -18.1,2.33 -23.39,3.86 -18.76,5.41 -34.09,14.47 -47.32,27.93 -1.19,1.21 -2.51,2.23 -3.39,3.58 0.89,1.49 7.56,4.39 8.63,19.56 0.64,9.1 -1.27,8.34 5.48,8.27 -0.54,-2.35 -3.33,-6.81 -3.1,-8.85 2.07,-0.4 26.44,2.1 31.86,2.62 2.62,0.26 2.49,0.26 4.32,-0.91 l 24.53,-15.69 c 1.48,-0.92 5.86,-4.21 7.34,-4.13 0.85,1.12 3.63,14.65 4.16,17.05 0.28,1.24 2.66,12.37 3.15,12.95 l 30.23,15.16 c 1.11,0.53 1.21,0.37 1.62,1.36 -0.55,1.16 -2.36,1.83 -3.61,2.53 -1.38,0.77 -2.55,1.45 -4.02,2.3 l -23.64,13.41 c -2.97,1.62 -2.12,1.23 -2.94,9.36 -0.57,5.68 -2.83,31.72 -3.55,33.53 -1.37,0.13 -1.68,-0.54 -2.4,-1.24 l -30.6,-29.09 c -1.94,0.43 -14.95,6.13 -18.11,7.41 -0.92,0.37 -16.8,7.22 -17.79,7.17 -1.04,-0.06 -0.36,0 -0.71,-0.18 -0.39,-1.68 7.29,-21.29 8.16,-25.11 -6.09,0.52 -7.29,1.17 -13.5,-0.53 -3.98,-1.09 -7.55,-2.97 -10.86,-4.65 -5.18,-2.63 -19.09,-6.39 -25.26,-3.41 -1.08,2.44 -1.87,9.85 -2.08,12.93 -0.33,4.67 -0.17,9.65 0.48,14.11 z"
   class="fil4" />
   <path
   style="fill:#fecc94"
   id="path6403"
   d="m 5143.33,228.5 c 2.65,-1.37 2.96,-2.32 7.31,-3.62 2.93,-0.87 6.42,-1.21 9.11,-2.08 5.95,-1.93 12.56,-2.83 19.24,-3.21 3.32,-0.19 6.02,-1.08 9.75,-1.13 3.6,-0.05 7.32,0.03 10.89,0.39 4.7,0.46 16.18,2.95 19.94,0.3 1.64,-1.16 3.46,-4.6 3.43,-7.56 -0.05,-5.72 -0.92,-5.46 -6.09,-10.67 l -9.03,-7.91 c -2.66,-2.05 -4.32,-2.59 -6.08,-5.13 -3.37,-4.88 -1.54,-12.5 1.64,-17.6 0.78,-1.24 1.48,-2.15 2.28,-3.18 0.98,-1.24 1.78,-1.56 2.76,-3.01 -1.48,-1.67 -4.94,-2.28 -7.37,-3.4 -2.69,-1.23 -4.64,-2.37 -7.01,-3.89 -17.24,-11.08 -33.39,-8.58 -49.02,2.21 -8.41,5.81 -15.93,13.89 -21.79,22.16 -2.79,3.95 -6.04,8.59 -8.32,13.51 -1.67,3.6 -5.18,12.33 -5.48,16.61 0.39,1.17 5.92,4.62 7.19,5.42 4.84,3.04 23.28,11.63 26.63,11.79 z"
   class="fil4" />
   <path
   style="fill:#f4ecd9"
   id="path6405"
   d="m 4923.99,377.29 c -0.73,0.6 -0.28,0.31 -1.26,0.61 -0.42,0.13 -0.85,0.21 -1.32,0.35 -4.41,1.25 -13.43,4.31 -16.82,6.18 -5.59,3.09 -11.23,7.75 -14.5,11.64 -2,2.38 -3.97,4.47 -5.99,7.23 -1.82,2.48 -3.64,5.18 -5.28,7.94 -3.07,5.18 -6.19,11.56 -8.28,17.86 -7.69,23.24 -7.65,44.22 -0.88,68.07 0.9,3.18 5.75,17.14 7.44,18.61 8.29,0.34 72.11,-21.29 80.6,-24.19 21.14,-7.21 45.81,-16.41 66.61,-25.03 2.67,-1.11 7.03,-3.19 9.48,-3.79 -0.52,-17.73 -8.68,-42.23 -18.98,-55.34 -2.43,-3.09 -5.94,-7.24 -8.84,-9.84 -10.16,-9.09 -20.1,-15.68 -36.62,-19.41 -11.28,-2.55 -22.46,-2.97 -34.1,-2.12 -3.82,0.28 -7.61,0.97 -11.27,1.24 z"
   class="fil5" />
   <path
   style="fill:#f4ecd9"
   id="path6407"
   d="m 4941.86,583.21 c 4.13,-1.28 8.99,-1.9 13.44,-3.52 7.61,-2.77 15.68,-7.98 21.77,-12.71 l 7.21,-5.72 c 1.17,-0.91 1.12,-0.94 2.28,-2.03 l 4.67,-3.95 c 3.19,-2.79 10.11,-10.04 12.62,-13.23 3.58,-4.54 12.26,-15.11 14.59,-19.86 -1.87,0.45 -4.33,1.63 -6.22,2.38 -2.12,0.84 -4.04,1.62 -6.18,2.44 -20.92,8.02 -42.11,15.65 -63.57,22.31 -8.57,2.66 -17.54,5.65 -26.29,7.91 2.61,1.62 15.66,3.51 19.21,6.62 4.48,3.93 5.79,12.16 6.47,19.35 z"
   class="fil5" />
   <path
   style="fill:#86d442"
   id="path6409"
   d="m 5240.19,382.28 c 5.21,-4.37 13.35,-12.71 18.21,-17.99 l 9.37,-10.74 c 10.41,-12.89 27.95,-38.83 15.24,-56.13 -9.31,-12.66 -30.36,-14.19 -50.36,-13.14 1.25,2.48 3.02,4.75 4.56,7.25 2.22,3.6 7.65,12.98 5.44,17.36 -0.79,1.56 -2.63,1.72 -3.28,2.71 -0.78,1.19 -0.76,7.83 -9.04,20.28 -4.48,6.73 -19.73,22.26 -25.24,27.62 -0.9,0.87 -1.69,1.82 -2.8,2.95 l -24.73,22.39 c -1.83,1.67 -4.23,3.61 -6.28,5.21 -23.3,18.18 -29.96,23.3 -55.61,38.32 -18.15,10.63 -43.28,21.96 -62.82,30.82 -31.19,14.14 -69.19,27.94 -101.81,39.24 -11.54,4 -23.46,7.63 -35.32,11.49 -19.86,6.47 -56.14,17.04 -78.72,12.75 -6.45,-1.22 -12.54,-3.48 -17.16,-6.4 -4.59,-2.91 -8.69,-6.94 -8.13,-15.04 0.43,-6.14 3.24,-13.12 5.7,-17.81 5.68,-10.8 5.39,-4.93 4.53,-11.81 -0.22,-1.75 -0.25,-3.44 -0.49,-5.16 l -11.73,12.44 c -1.28,1.45 -2.59,2.7 -3.85,4.2 l -7.6,8.48 c -5.98,6.27 -16.3,20.06 -21.14,27.12 -3.95,5.76 -8.57,13.26 -11.2,20.69 -3.85,10.86 -2.61,17.52 5.35,22.88 6.2,4.17 15.68,6.33 24.54,7.33 19.19,2.16 41.3,0.45 60.21,-2.19 31.93,-4.46 92.48,-24.15 124.9,-35.61 19.75,-6.98 50.42,-19.22 68.38,-27.56 14.78,-6.86 29.32,-13.51 43.28,-21.06 7.06,-3.82 14.03,-7.41 20.82,-11.36 20.91,-12.15 39.01,-23.53 58.87,-37.07 12.91,-8.81 25.47,-17.6 37.22,-26.84 5.64,-4.43 17.31,-13.43 22.19,-18.02 l 8.49,-7.59 z"
   class="fil6" />
   <path
   style="fill:#86d442"
   id="path6411"
   d="m 4884.02,307.09 c 1.61,1.27 3.01,2.54 4.23,3.92 l 0.69,-1.71 c 0.89,-4.36 2.5,-9.16 4.63,-12.89 1.82,-3.18 6.22,-9.24 9.14,-11.07 l -0.23,-6.78 116.08,-39.4 -9.34,-93.95 c 1.61,-0.95 39.05,-12.97 41.86,-13.89 27.75,-9.07 56.21,-18.71 83.93,-27.53 4.21,-1.34 39.32,-13.12 42.05,-13.71 l 10.39,35.96 0.98,-0.71 c 0.17,-0.16 0.48,-0.55 0.66,-0.77 l 6.68,-7.1 c 0.95,-1.1 1.47,-1.78 2.62,-2.84 l 31.88,-34.19 c 1.77,-1.98 3.63,-3.87 5.35,-5.86 l 23.93,-25.76 c 3.46,-3.89 9.13,-9.44 12.61,-13.53 0.58,-0.68 0.13,0.01 0.53,-0.71 L 5153.52,5.2 l 10.78,41.75 -194.47,74.9 12.11,96.97 -105.38,45.05 7.47,43.23 z"
   class="fil6" />
   <path
   style="fill:#000000"
   id="path6413"
   d="m 4941.86,583.21 c -0.68,-7.19 -1.99,-15.42 -6.47,-19.35 -3.55,-3.12 -16.6,-5.01 -19.21,-6.62 8.75,-2.26 17.72,-5.25 26.29,-7.91 21.46,-6.66 42.65,-14.29 63.57,-22.31 2.14,-0.82 4.05,-1.6 6.18,-2.44 1.89,-0.75 4.35,-1.93 6.22,-2.38 -2.34,4.75 -11.01,15.33 -14.59,19.86 -2.51,3.19 -9.43,10.44 -12.62,13.23 l -4.67,3.95 c -1.16,1.09 -1.11,1.11 -2.28,2.03 l -7.21,5.72 c -6.09,4.74 -14.16,9.94 -21.77,12.71 -4.44,1.62 -9.31,2.24 -13.44,3.52 z m -64.76,-67.44 -0.4,0.23 c -1.45,0.65 -11.75,2.15 -14.93,2.56 -4.87,0.63 -3.75,0.93 -6.35,-1.7 -1.74,-1.75 -2.77,-2.85 -4.29,-4.6 l -8.58,-9.52 c -2.32,-2.86 -5.04,-7 -6.83,-10.99 -16.83,-37.58 4.32,-75.34 35.57,-95.51 13.55,-8.75 33.58,-16.6 52.69,-18.94 3.65,-0.27 7.45,-0.96 11.27,-1.24 11.64,-0.86 22.82,-0.43 34.1,2.12 16.51,3.73 26.46,10.33 36.62,19.41 2.9,2.6 6.41,6.74 8.84,9.84 10.3,13.12 18.46,37.61 18.98,55.34 -2.45,0.61 -6.81,2.68 -9.48,3.79 -20.8,8.62 -45.46,17.82 -66.61,25.03 -8.49,2.9 -72.31,24.52 -80.6,24.19 z m 161.72,-81.52 21.9,5.1 c 1.02,0.14 1.97,0.01 3.01,0.15 5.04,0.65 11.58,2.17 15.59,2.51 -0.05,0.05 -0.14,0.04 -0.16,0.13 l -1.85,1.02 c -0.8,0.35 -1.36,0.54 -2.2,0.96 -4.58,2.3 -30.31,14.14 -31.97,14.27 0,-3.85 -2.76,-20.9 -4.31,-24.13 z m -80.13,-78.44 c 3.05,0 7.79,-0.06 10.05,-1.15 0,2.03 0.72,5.69 1.18,7.44 0.29,1.1 0.51,2.36 0.83,3.48 0.33,1.14 0.83,2.38 0.86,3.73 -10.11,-2.36 -17.41,-2.83 -28.73,-2.88 l -10.33,0.58 c -0.53,-6.43 0.88,-10.44 7.51,-12.31 2.07,-0.58 6.54,0.04 8.99,0.4 3.13,0.46 6.19,0.7 9.64,0.7 z m -163.87,56.77 c -9.12,-5.64 -17,-13.49 -21.25,-24.14 -1.52,-3.81 -2.63,-8.25 -2.41,-12.81 0.3,-6.41 0.83,-7.07 3.16,-12.04 4.13,-8.83 7.56,-10.2 14.69,-15.47 1.52,-1.12 3.03,-2.13 4.47,-3.29 1.85,-1.49 2.18,-1.94 4.76,-2.72 6.73,-2.04 7.16,0.08 10.39,3.5 5.34,5.65 11.1,9.37 19.96,10.21 11.82,1.12 14.57,-6.29 19.62,-9.98 3.16,-2.31 7.7,-3.41 12.03,-1.59 2.02,0.85 3.19,1.78 4.42,3.05 0.86,0.89 2.65,2.91 2.98,4.38 -11.48,-0.15 -16.89,8.44 -24.1,17.07 -7.19,8.6 -14.25,10.07 -23.73,17.05 -6.41,4.73 -11.81,10.18 -14.58,18.17 -1.79,5.16 -1.66,8.86 -1.06,14.46 l -9.34,-5.86 z m 34.09,-102.28 c 9.6,-6.13 20.89,-6.35 32.24,-4.84 6.16,0.82 19.29,11.76 23.18,15.56 3.12,3.04 2.46,3.37 3.43,9.51 0.3,1.89 0.5,3.85 0.85,5.75 0.34,1.85 0.88,3.58 1.08,5.37 0.29,0.37 5.06,15 11.76,23.46 l 5.19,6.5 -3.37,0.9 c -1.03,-1.29 -0.91,-2.95 -3.83,-6.54 -1.36,-1.67 -3.08,-3.38 -5.46,-4.59 -2.41,-1.23 -5.17,-1.89 -8.24,-1.82 -7.34,0.19 -4.92,0.71 -9.76,-9.77 -1.01,-2.19 -2.45,-4.69 -3.76,-6.29 -7.26,-8.84 -19.07,-11.06 -28.16,-4.68 -4.78,3.36 -7.22,8.1 -11.26,8.86 -5.44,1.02 -12.05,-2.29 -15.31,-4.59 -2.21,-1.56 -3.19,-3.16 -5.1,-4.95 -3.79,-3.55 -4.76,-2.5 -6.39,-3.58 1.14,-1.17 1.75,-2.04 2.89,-3.06 5.68,-5.04 12.55,-16.9 20.04,-21.19 z m 128.54,15.8 c 2.08,-4.97 0.13,-16.76 11.17,-26.44 2.82,-2.47 7.89,-4.94 12.37,-6.29 5.52,-1.67 10.56,-1.63 16.31,-0.3 12.7,2.94 12.48,10.8 27.17,10.57 3.25,-0.05 5.82,-0.38 8.91,-0.64 12.45,-1.04 12.97,-3.26 21.86,4.17 -0.43,0.46 -3.55,2 -5.82,3.79 -5.94,4.66 -5.87,10.86 -12.2,15.95 -3.42,2.75 -9,4.58 -14.55,3.46 -5.64,-1.14 -8.71,-3.37 -13.3,-5.41 -13.38,-5.97 -32.43,-8.3 -40.31,7.04 -4.4,8.57 -0.14,13.72 -0.97,15.46 -4.41,4.7 -22.27,-0.49 -29.48,1.22 -4.71,1.12 -8.1,2.8 -10.15,5.91 -2.31,3.5 -3.21,8.57 -2.28,13.26 -1.31,0.29 -2.23,0.8 -3.31,-2.04 -0.55,-1.44 -1.11,-3.01 -1.57,-4.46 -3.42,-10.59 -2.75,-19.86 2.65,-29.38 4.17,-7.36 16.72,-12.22 25.36,-9.27 1.78,0.61 7.16,3.48 8.14,3.41 z m -41.59,43.52 c -1.72,0.29 -1.8,-0.56 -2.99,-1.57 -3.38,-2.9 -4.17,-4.03 -7.06,-8.17 -2.48,-3.57 -5.03,-8.63 -6.98,-13.13 -4.26,-9.81 -4.46,-25.04 -1.98,-35.77 2.24,-9.7 6.9,-20 16.23,-24.36 14.21,-6.65 28.89,0.71 34.83,0.22 2.2,-0.3 2.24,-0.51 4.41,-0.38 0.75,-1.53 0.1,-0.77 1.66,-1.74 3.37,-2.1 6.75,-7.25 12.46,-10.81 10.88,-6.78 32.37,-6.83 42.86,0.81 5.24,3.83 5.68,12.11 6.59,20.32 -3.84,-1.49 -7.15,-6.23 -17.69,-8.61 -14.43,-3.26 -28.97,1.98 -38.02,12.24 -3.44,3.89 -6.87,11.23 -7.66,18.24 -2.06,-0.22 -4.69,-2.17 -10.45,-1.86 -3.4,0.18 -7.27,1.27 -10.17,2.45 -6.35,2.58 -11.12,6.54 -14.13,11.15 -3.1,4.74 -5.14,13.15 -5.3,19.96 -0.1,4.28 1.35,12.09 2.66,16.29 0.53,1.7 1.38,3.06 1.76,4.57 l -1.04,0.14 z m 316.81,-85.33 c 20,-1.05 41.05,0.47 50.36,13.14 12.71,17.29 -4.83,43.24 -15.24,56.13 l -9.37,10.74 c -4.86,5.28 -13,13.62 -18.21,17.99 l -8.49,7.59 c -4.89,4.58 -16.55,13.59 -22.19,18.02 -11.76,9.24 -24.31,18.03 -37.22,26.84 -19.86,13.54 -37.96,24.92 -58.87,37.07 -6.79,3.95 -13.76,7.54 -20.82,11.36 -13.96,7.55 -28.5,14.2 -43.28,21.06 -17.96,8.34 -48.63,20.58 -68.38,27.56 -32.42,11.46 -92.97,31.15 -124.9,35.61 -18.91,2.64 -41.02,4.34 -60.21,2.19 -8.86,-1 -18.35,-3.16 -24.54,-7.33 -7.96,-5.35 -9.2,-12.01 -5.35,-22.88 2.63,-7.43 7.26,-14.93 11.2,-20.69 4.84,-7.06 15.16,-20.85 21.14,-27.12 l 7.6,-8.48 c 1.26,-1.5 2.57,-2.74 3.85,-4.2 l 11.73,-12.44 c 0.24,1.72 0.27,3.41 0.49,5.16 0.86,6.89 1.15,1.01 -4.53,11.81 -2.47,4.69 -5.28,11.67 -5.7,17.81 -0.56,8.1 3.53,12.13 8.13,15.04 4.62,2.93 10.7,5.18 17.16,6.4 22.58,4.29 58.85,-6.28 78.72,-12.75 11.86,-3.86 23.78,-7.49 35.32,-11.49 32.62,-11.3 70.62,-25.09 101.81,-39.24 19.54,-8.86 44.68,-20.2 62.82,-30.82 25.65,-15.02 32.31,-20.14 55.61,-38.32 2.05,-1.6 4.45,-3.54 6.28,-5.21 l 24.73,-22.39 c 1.11,-1.12 1.9,-2.07 2.8,-2.95 5.5,-5.36 20.76,-20.89 25.24,-27.62 8.28,-12.45 8.26,-19.09 9.04,-20.28 0.66,-1 2.49,-1.15 3.28,-2.71 2.22,-4.37 -3.21,-13.75 -5.44,-17.36 -1.54,-2.5 -3.31,-4.77 -4.56,-7.25 z M 5087.3,233.67 c 1.02,-0.35 2.83,-0.22 4.11,-0.24 1.88,-0.03 2.23,-0.34 3.81,-0.64 1.94,2.43 10.59,6.58 13.91,8.16 19.24,9.19 29.03,10.98 50.57,15.51 1.27,4.49 2.35,8.82 3.64,13.29 1.26,4.35 2.47,8.83 3.39,13.29 1.02,4.93 2.81,17.22 2.67,22.46 -0.27,9.55 -1.74,8.46 6.45,8.04 2.24,-0.11 4.35,-0.25 6.61,-0.33 2.55,-0.09 9.79,-1.31 11.81,-2.15 2.09,-4.75 -5.65,-24.89 -6.37,-31.38 4.33,4.37 10.02,15.66 13.46,22.43 2,3.93 3.62,8.19 5.72,12.1 4.79,8.92 4.31,8.56 9.26,7.96 1.16,1.62 3.08,7.53 3.91,9.91 1.98,5.65 1.32,3.15 -2.68,8.29 -2.64,3.39 -17.62,18.19 -20.06,20.45 -1.18,1.09 -2.2,2.39 -3.44,3.45 l -25.08,22.04 c -18.41,15.34 -43.72,32.53 -64.72,43.29 -6.2,3.17 -3.13,2.59 -11.15,2.35 -8.53,-0.26 -16.73,-0.83 -25.11,-1.87 -10.62,-1.3 -11.76,-1.27 -21.72,-5.29 -3.28,-1.32 -6.19,-2.63 -9.34,-4.16 -5.1,-2.47 -4.59,-1.28 -7.17,-6.33 -6.25,-12.26 -15.07,-22.1 -24.64,-29.37 -4.85,-3.69 -10.53,-7.35 -16.97,-10.04 -1.45,-0.61 -1.16,-0.32 -1.78,-1.67 -2.49,-5.45 -4.68,-12.31 -5.39,-18.24 -0.65,-4.46 -0.81,-9.44 -0.48,-14.11 0.22,-3.08 1,-10.48 2.08,-12.93 6.17,-2.98 20.08,0.79 25.26,3.41 3.31,1.68 6.88,3.57 10.86,4.65 6.21,1.7 7.41,1.04 13.5,0.53 -0.87,3.81 -8.55,23.43 -8.16,25.11 0.35,0.18 -0.33,0.13 0.71,0.18 0.99,0.05 16.86,-6.79 17.79,-7.17 3.16,-1.28 16.17,-6.98 18.11,-7.41 l 30.6,29.09 c 0.72,0.69 1.02,1.36 2.4,1.24 0.71,-1.82 2.97,-27.85 3.55,-33.53 0.82,-8.13 -0.03,-7.74 2.94,-9.36 l 23.64,-13.41 c 1.47,-0.84 2.64,-1.52 4.02,-2.3 1.26,-0.7 3.06,-1.37 3.61,-2.53 -0.41,-1 -0.51,-0.83 -1.62,-1.36 l -30.23,-15.16 c -0.49,-0.59 -2.87,-11.71 -3.15,-12.95 -0.54,-2.4 -3.32,-15.93 -4.16,-17.05 -1.48,-0.08 -5.86,3.21 -7.34,4.13 l -24.53,15.69 c -1.83,1.16 -1.69,1.16 -4.32,0.91 -5.42,-0.53 -29.79,-3.03 -31.86,-2.62 -0.23,2.04 2.56,6.5 3.1,8.85 -6.74,0.06 -4.83,0.83 -5.48,-8.27 -1.07,-15.17 -7.74,-18.07 -8.63,-19.56 0.88,-1.35 2.2,-2.37 3.39,-3.58 13.23,-13.46 28.56,-22.53 47.32,-27.93 5.29,-1.52 17.74,-4.37 23.39,-3.86 z m 100.03,8.36 0.09,0.09 c -0.01,-0.01 -0.11,-0.06 -0.09,-0.09 z m -81.74,-7.01 c -1.83,-0.87 -9.68,-4.27 -10.68,-5.69 -0.73,-1.04 -1.29,-2.26 -1.13,-3.9 0.5,-5.03 5.09,-11.97 8.53,-13.02 0.66,0.65 1.09,1.41 1.71,2.05 l 5.6,5.32 c 2.14,1.98 5.66,4.12 9.01,5.64 6.92,3.14 13.29,5.54 20.8,8.21 8.13,2.89 26.07,9.13 34.95,8.56 3.03,-0.19 2.84,0.21 5.38,1.36 4.53,2.06 9.63,5.31 13.75,8.08 6.05,4.06 5.29,3.53 10.29,7.81 l 12.8,12.47 c 2.16,2.58 4.4,5.29 6.56,8.09 2.09,2.7 3.93,5.33 5.89,8.48 1.94,3.13 3.87,5.79 5.85,8.8 1.71,2.6 4.81,5.68 4.33,9.97 -0.75,0.81 -4.5,2.55 -6.03,3.4 -3.61,2.02 -16.28,8.3 -19.19,8.66 -0.47,-1.11 -1.38,-2.4 -1.98,-3.47 -2.62,-4.72 -2.95,-5.62 -5.23,-10.56 -2.5,-5.38 -7.72,-15.79 -10.99,-20.62 -1.86,-2.76 -9.25,-13.2 -11.26,-15.17 -1.04,-1.03 -1.08,-2.8 -2.47,-2.22 -0.92,0.77 0.25,4.74 0.51,5.63 l 4.21,15.03 c 1.28,4.96 5.01,15.81 5.09,20.48 -4.72,0.68 -10.33,2.52 -14.66,2.58 -1.91,0.02 -3.56,0.17 -5.4,0.34 l 0.95,-13.54 c 0.63,-8.55 -5.01,-28.19 -7.57,-35.96 -0.52,-1.57 -2.24,-6.95 -3.02,-7.89 -1.37,-1.67 -22.48,-5.98 -25.41,-6.73 -8.98,-2.3 -22.88,-8.16 -31.24,-12.16 z m 37.75,-6.52 c -3.35,-0.16 -21.79,-8.75 -26.63,-11.79 -1.27,-0.79 -6.79,-4.25 -7.19,-5.42 0.3,-4.28 3.81,-13.01 5.48,-16.61 2.28,-4.92 5.53,-9.56 8.32,-13.51 5.85,-8.28 13.37,-16.36 21.79,-22.16 15.63,-10.79 31.78,-13.29 49.02,-2.21 2.37,1.52 4.32,2.67 7.01,3.89 2.43,1.11 5.89,1.73 7.37,3.4 1.4,0.78 2.94,2.69 3.73,4.17 3.86,7.21 -3.95,9.72 -2.88,16.98 1.06,7.25 10.33,10.65 15.87,14.27 9.72,6.36 3.6,10.16 0.86,20.08 -3.16,11.4 2.65,14.83 8.19,20.29 4.84,4.77 -1.72,6.09 -5.88,6.12 -15,0.1 -11.3,1 -24.65,-4.89 -3.46,-1.53 -7.27,-2.82 -10.82,-4.12 -19.72,-7.21 -18.16,-1.38 -25.09,-2.76 -4.96,-0.99 -20.89,-3.32 -24.51,-5.74 z m -219.68,48.02 -0.41,0.36 c -0.91,0.67 -1.28,0.52 -2.62,0.7 -6.71,0.91 -12.85,3.51 -17.92,7.77 -2.92,1.83 -7.32,7.89 -9.14,11.07 -2.13,3.73 -3.74,8.53 -4.63,12.89 l -0.69,1.71 c -1.22,-1.39 -2.62,-2.65 -4.23,-3.92 -1,-0.66 -5.56,-3.59 -6,-4.15 -1.02,-0.26 -3.42,-1.75 -4.66,-2.26 -1.71,-0.7 -3.44,-1.33 -5.36,-1.82 -3.4,-0.88 -8.45,-1.61 -12.43,-1.93 l -6.87,-0.31 c -12.33,0.03 -24.35,4.76 -32.39,13.87 -3.67,4.15 -8.08,10.12 -11.63,13.65 l -2.07,2.24 c -1.63,1.97 -6.66,6.02 -8.98,7.97 -0.76,0.64 -1.06,0.94 -1.9,1.55 -0.86,0.63 -1.24,1.04 -2.1,1.64 l -8.32,6.04 c -6.77,5.09 -9.5,7.77 -13.15,15.29 -0.81,1.66 -1.01,3.7 -1.99,5.19 -2.11,3.22 -2.61,7.22 -3.17,11.2 -1.02,7.34 3.12,17.86 5.89,22.44 1.77,2.93 3.6,5.7 5.73,8.35 l 2.85,3.18 c 4.3,5.13 12.14,9.56 18.49,11.39 l 4.76,2.42 c 2.21,0.99 8,4.29 10.17,3 1.8,-1.07 1.46,-3.33 0.84,-5.4 -2.3,-7.64 0.06,-16.22 5.14,-21.67 2.79,-2.99 5.97,-5.9 9.42,-8.1 6.62,-4.21 13.4,-7.98 19.43,-13.03 1.74,-1.46 3.78,-3.64 5.09,-5.54 1.95,-2.84 4.24,-5.28 6.33,-8.04 2.16,-2.86 2.43,-3.89 6.77,-4.15 2.97,-0.18 3.31,-0.53 6.15,0.45 3.04,1.05 3.11,3.47 5.26,5.37 0.57,0.5 1.49,1.19 2.17,1.56 1.99,1.09 6.41,1.94 9,0.83 1.98,-0.85 0.61,-0.63 2.69,-0.46 0.22,2.68 1.38,5.83 1.44,8.62 -1.76,0.85 -4.01,1.61 -5.95,2.38 -9.85,3.9 -24.94,13.09 -31.75,19.96 -1.52,1.54 -2.9,2.62 -4.45,4.17 -5.82,5.82 -10.81,12.36 -15.06,19.41 -5.93,9.83 -10.96,23.09 -11.73,35.38 -0.17,2.71 -1.64,3.55 -3.36,5.26 l -12.49,13.36 c -1.98,2.25 -4.28,4.41 -6.13,6.8 -1.26,1.63 -2.71,2.96 -4.06,4.56 -6.57,7.78 -13.34,15.53 -19.1,23.99 l -8.51,13.04 c -7.05,11.6 -14.37,29.54 -1.21,39.6 7.32,5.6 16.14,7.85 25.33,9.14 2.42,0.34 5.25,0.79 7.71,0.91 2.24,0.11 6.02,0.08 8.2,0.41 4.91,0.74 11.82,-0.14 16.79,-0.11 2.38,0.01 5.78,-0.39 8.05,-0.57 12.89,-1.03 25.39,-2.24 38.06,-5.02 10.15,-2.23 20.91,-4.83 30.96,-7.82 3.62,-1.08 4.24,0.18 10.07,1.5 2.4,0.54 5.13,0.67 7.32,1.29 2.18,0.63 4.42,1.38 6.63,1.99 5.21,1.44 5.4,3.13 7.84,9.39 1.42,3.65 1.06,11.08 1.06,16.18 2.74,1.32 6.18,-0.41 9.11,-0.94 l 9.31,-2.18 c 3.01,-0.93 5.6,-1.89 8.42,-3.08 0.78,-0.33 1.3,-0.61 2.03,-0.84 6.51,-2.05 10.99,-5.72 16.52,-9.34 2.17,-1.42 8.16,-6.99 12.86,-10.12 0.6,-0.4 1.16,-0.71 1.7,-1.17 0.59,-0.5 0.88,-0.9 1.48,-1.4 0.55,-0.46 0.81,-0.71 1.34,-1.24 l 16.55,-17.92 c 0.46,-0.57 0.79,-0.99 1.27,-1.6 0.94,-1.2 1.61,-1.95 2.55,-3.2 2.45,-3.28 5.08,-6.48 7.22,-10.01 0.83,-1.37 1.42,-2.08 2.26,-3.49 1.47,-2.46 2.96,-4.77 4.18,-7.31 0.42,-0.88 0.37,-1.14 1.24,-1.64 0.55,-0.31 1.36,-0.55 2.03,-0.85 l 21.73,-9.58 c 9.85,-4.4 19.36,-9.26 29.01,-14.08 2.41,-1.2 5.31,-2.46 7.64,-3.85 l 11.23,-6.01 c 0.78,-0.42 1.07,-0.67 1.81,-1.06 0.65,-0.34 1.19,-0.56 1.92,-0.95 1.26,-0.68 2.41,-1.34 3.66,-2.08 10.77,-6.39 21.9,-12.43 32.33,-19.38 l 20.8,-13.38 c 4.53,-2.96 16.54,-11.82 20.77,-13.7 l 1.92,-0.95 c 0.85,-0.38 1.19,-0.51 1.99,-0.88 l 11.68,-5.56 c 4.3,-2.14 8.62,-4.7 12.14,-7.97 5.38,-5 11.02,-9.92 15.56,-15.75 0.53,-0.68 0.91,-0.91 1.36,-1.51 2.05,-2.72 0.65,-2.29 3.61,-5.01 l 7.93,-7.01 c 0.05,-0.04 0.11,-0.09 0.15,-0.13 0.05,-0.04 0.11,-0.09 0.16,-0.13 l 6.83,-6.38 c 2.02,-2.02 3.88,-3.61 5.89,-5.6 3.77,-3.73 7.18,-8.03 10.91,-11.78 0.92,-0.93 1.78,-2.1 2.62,-3.13 7.18,-8.87 16.27,-20.5 20.04,-31.67 3.13,-9.3 5.04,-18.65 0.6,-28.55 -3.61,-8.06 -10.76,-12.68 -18.72,-15.76 -4.88,-1.89 -13.02,-3.35 -19.14,-3.84 -3.46,-0.28 -19.85,-0.38 -21.81,0.56 l -3.81,-5.95 c -3.1,-4.15 -6.45,-7.83 -10,-11.54 l -0.29,-0.29 c -1.67,-1.6 -3.32,-3.52 -5.14,-4.92 -0.63,-0.48 -0.77,-0.68 -1.37,-1.22 -0.55,-0.49 -0.72,-0.53 -1.28,-1.02 -5.73,-4.99 -12.27,-8.72 -18.9,-12.41 l -0.86,-0.58 c 1.43,0.12 5.42,1.86 7.01,2.46 l 11.24,4.56 c 1.54,0.65 3.29,0.79 4.9,1.42 3.31,1.3 5.8,2.6 9.62,3.03 5.22,0.58 11.81,0.1 16.45,-2.17 3.43,-1.68 4.44,-3.32 5.89,-6.75 1.61,-3.84 0.82,-5.94 -2.04,-8.8 -1.3,-1.29 -1.84,-1.93 -3.37,-2.95 -5.32,-3.51 -6.86,-5.44 -4.79,-12.54 2.59,-8.87 10.61,-16.58 -2.68,-25.96 -3.52,-2.49 -12.83,-6.79 -14.07,-9.8 -0.42,-1.02 -0.02,-2.23 0.66,-3.61 0.83,-1.71 1.94,-3.43 2.5,-5.25 1.37,-4.46 0.01,-8.7 -1.9,-11.62 -1.06,-1.63 -1.72,-2.23 -3.02,-3.59 l -1.49,-1.39 c -1.88,-1.52 -4.16,-1.97 -6.12,-3.36 -0.46,-0.33 -0.35,-0.28 -0.85,-0.59 l -1.07,-0.65 c -0.71,-0.47 -1.28,-0.8 -1.93,-1.23 -3.88,-2.55 -7.81,-4.89 -11.97,-6.99 l -7.05,-2.71 c -6.21,-1.89 -13.85,-1.93 -19.92,-0.8 -3.5,0.65 -6.62,1.49 -9.79,2.84 l -6.43,3.05 c -4.68,2.46 -9.3,5.62 -13.26,9.14 -1.19,1.06 -1.92,2.12 -3.21,3.11 -1.53,1.18 -1.92,1.76 -3.12,3.2 -0.99,1.18 -2.17,2.02 -3.12,3.2 l -9.89,12.52 c -0.48,0.64 -0.9,1.31 -1.26,1.91 l -4.97,7.95 c -2.15,4.33 -4.25,8.73 -5.49,13.47 -0.49,1.88 -1.56,2.95 -1.61,5 -4.37,0 -6.34,2.27 -8.66,5.41 -3.2,4.33 -2.57,5.87 -3.69,10.68 -0.83,0 -2.45,0.21 -3.37,0.37 -0.48,0.08 -1.11,0.33 -1.59,0.42 l -5.31,0.44 c -3.17,0.41 -6.99,0.86 -10.09,1.68 -0.91,0.24 -2.44,0.55 -3.27,0.75 -5.14,1.24 -10.37,2.31 -15.27,4.26 l -11.08,4.72 c -0.91,0.41 -1.62,0.72 -2.52,1.22 l -12.11,7.42 c -4.1,2.67 -9.62,7.44 -13.01,10.83 l -3.92,3.83 c -3.96,4.52 -3.19,4.19 -6.57,3.36 -0.73,-0.18 -1.7,-0.38 -2.58,-0.58 -1.44,-0.33 -4.07,-0.73 -5.81,-0.8 -3.84,-0.16 -8.58,-0.42 -12.57,0.07 -7.58,0.95 -14.3,3.18 -19.32,6.82 -7.54,5.46 -9.31,11.54 -14.68,10.97 -4.84,-0.51 -5.75,-1.33 -10.53,-2.42 -2.72,-0.62 -6.11,-0.83 -8.97,-0.79 -3.37,0.04 -2.59,0.28 -3.16,-0.58 z m -45.63,26.43 c 0.44,0.57 5,3.49 6,4.15 l -7.47,-43.23 105.38,-45.05 -12.11,-96.97 194.47,-74.9 -10.78,-41.75 119.17,29.37 c -0.39,0.73 0.06,0.03 -0.53,0.71 -3.48,4.09 -9.15,9.65 -12.61,13.53 l -23.93,25.76 c -1.72,2 -3.58,3.88 -5.35,5.86 l -31.88,34.19 c -1.15,1.06 -1.67,1.74 -2.62,2.84 l -6.68,7.1 c -0.18,0.22 -0.49,0.61 -0.66,0.77 l -0.98,0.71 -10.39,-35.96 c -2.72,0.6 -37.84,12.38 -42.05,13.71 -27.72,8.82 -56.18,18.46 -83.93,27.53 -2.81,0.92 -40.25,12.93 -41.86,13.89 l 9.34,93.95 -116.08,39.4 0.23,6.78 c 5.07,-4.26 11.21,-6.85 17.92,-7.77 1.34,-0.18 1.71,-0.03 2.62,-0.7 l 0.41,-0.36 c 1.34,0.45 9.26,-2.62 11.08,-3.28 3.78,-1.39 7.3,-2.43 11.15,-3.79 l 22.04,-7.54 c 14.91,-4.94 29.43,-10.1 44.37,-15.08 l 6.64,-2.27 c 6.89,-2.4 4.72,-6.54 4.07,-14.85 -0.15,-1.94 -0.43,-4.37 -0.72,-6.46 -0.15,-1.12 -0.21,-2.59 -0.32,-3.41 l -1,-10.21 c -0.23,-2.04 -0.49,-4.79 -0.73,-6.74 l -1.28,-13.37 c -0.49,-4.32 -0.99,-9.16 -1.38,-13.56 -0.55,-6.39 -2.59,-21.47 -2.59,-27.29 1.63,-0.38 3.27,-0.94 4.85,-1.47 1.58,-0.53 3.37,-1.12 4.96,-1.65 3.34,-1.11 6.51,-2.25 9.95,-3.26 9.83,-2.89 19.81,-6.46 29.61,-9.74 l 69.44,-22.77 c 3.35,-1.12 6.4,-2.04 9.76,-3.16 l 19.89,-6.54 c 1.58,-0.53 3.37,-1.12 4.96,-1.65 0.88,-0.3 1.44,-0.43 2.41,-0.75 0.98,-0.32 1.59,-0.63 2.72,-0.72 0.52,1.08 1.14,3.87 1.56,5.33 0.56,1.98 1.08,3.7 1.6,5.58 1,3.61 2.13,7.23 3.2,10.88 0.51,1.74 1.04,3.48 1.57,5.33 1.07,3.74 1.78,7.99 6.9,7.26 2.17,-0.31 2.99,-1.43 4.35,-2.85 l 10.35,-10.91 c 0.68,-0.74 0.83,-1.13 1.57,-1.88 l 12.07,-12.93 c 0.64,-0.64 1.1,-1.07 1.73,-1.72 0.75,-0.78 0.94,-1.24 1.71,-2.02 5.81,-5.88 11.22,-12.17 16.96,-18.09 l 13.64,-14.8 c 1.24,-1.4 2.25,-2.17 3.47,-3.71 l 11.9,-12.8 c 0.57,-0.69 1.21,-1.24 1.85,-1.88 l 6.89,-7.47 c 1.22,-1.2 2.41,-2.24 2.91,-3.99 0.62,-2.16 0.01,-4.02 -1.18,-5.34 -1.6,-1.78 -8.4,-2.89 -10.67,-3.41 l -22.79,-5.65 c -6.69,-1.58 -16.14,-3.75 -22.8,-5.64 -1.86,-0.53 -3.57,-0.86 -5.52,-1.38 l -17.25,-4.29 C 5188,8.18 5178.68,6.17 5169.21,3.59 L 5157.7,0.74 c -2.56,-0.65 -5.94,-1.58 -8.04,0.75 -2.1,2.35 -1.06,5.39 -0.35,8.21 l 4.36,16.89 c 0.88,3.56 4.14,14.46 4.37,17.18 -1.57,0.37 -2.75,0.95 -4.22,1.52 l -46.9,18.01 c -19.77,7.86 -39.68,15.13 -59.45,22.99 l -12.68,4.85 c -7.45,2.47 -22.08,8.69 -29.87,11.49 l -25.49,9.84 c -2.75,1.11 -5.58,2.11 -8.49,3.28 -6.31,2.55 -6.91,3.33 -5.89,10.45 l 4.58,36.79 c 1.14,10.29 2.86,21.01 3.97,31.37 0.39,3.67 0.8,6.85 1.29,10.49 0.2,1.51 0.51,3.88 0.69,5.34 l 0.66,5.38 c -3.1,0.72 -5.82,2.39 -8.74,3.61 l -17.32,7.38 c -14.78,5.85 -29.11,12.89 -43.86,18.76 l -17.3,7.41 c -3.47,1.54 -15.07,5.74 -16.81,8.17 -0.98,1.37 -0.99,2.92 -0.69,4.52 l 5.55,32.11 c 0.29,1.89 0.5,3.74 0.98,5.38 z"
   class="fil7" />
   <path
   style="fill:#dc2e16"
   id="path6415"
   d="m 5172.81,297.77 -0.95,13.54 c 1.84,-0.16 3.49,-0.31 5.4,-0.34 4.33,-0.05 9.94,-1.89 14.66,-2.58 -0.09,-4.67 -3.82,-15.52 -5.09,-20.48 l -4.21,-15.03 c -0.26,-0.89 -1.43,-4.86 -0.51,-5.63 1.39,-0.58 1.43,1.19 2.47,2.22 2.01,1.98 9.39,12.41 11.26,15.17 3.26,4.84 8.49,15.24 10.98,20.62 2.29,4.94 2.62,5.84 5.24,10.56 0.59,1.07 1.5,2.36 1.98,3.47 2.91,-0.36 15.57,-6.65 19.19,-8.66 1.52,-0.85 5.28,-2.59 6.03,-3.4 0.48,-4.29 -2.62,-7.37 -4.33,-9.97 -1.98,-3.01 -3.91,-5.67 -5.85,-8.8 -1.96,-3.15 -3.8,-5.78 -5.89,-8.48 -2.17,-2.8 -4.4,-5.51 -6.56,-8.09 l -12.8,-12.47 c -5,-4.28 -4.25,-3.75 -10.29,-7.81 -4.13,-2.77 -9.22,-6.02 -13.75,-8.08 -2.54,-1.15 -2.35,-1.56 -5.38,-1.36 -8.88,0.57 -26.82,-5.67 -34.95,-8.56 -7.52,-2.67 -13.88,-5.07 -20.8,-8.21 -3.35,-1.52 -6.87,-3.67 -9.01,-5.64 l -5.6,-5.32 c -0.63,-0.64 -1.05,-1.4 -1.71,-2.05 -3.44,1.05 -8.03,8 -8.53,13.02 -0.16,1.63 0.39,2.86 1.13,3.9 1,1.42 8.86,4.82 10.68,5.69 8.36,4.01 22.26,9.86 31.24,12.16 2.93,0.75 24.04,5.06 25.41,6.73 0.78,0.95 2.5,6.32 3.02,7.89 2.55,7.77 8.19,27.42 7.57,35.96 z"
   class="fil8" />
   <path
   style="fill:#c4b490"
   id="path6417"
   d="m 4877.1,515.77 c -1.69,-1.47 -6.54,-15.43 -7.44,-18.61 -6.77,-23.85 -6.81,-44.83 0.88,-68.07 2.08,-6.3 5.21,-12.68 8.28,-17.86 1.64,-2.76 3.46,-5.46 5.28,-7.94 2.02,-2.76 3.99,-4.85 5.99,-7.23 3.27,-3.88 8.92,-8.55 14.5,-11.64 3.39,-1.87 12.41,-4.93 16.82,-6.18 0.47,-0.13 0.91,-0.22 1.32,-0.35 0.98,-0.3 0.53,-0.01 1.26,-0.61 -19.12,2.34 -39.15,10.19 -52.69,18.94 -31.24,20.17 -52.4,57.94 -35.57,95.51 1.79,3.99 4.5,8.12 6.83,10.99 l 8.58,9.52 c 1.52,1.76 2.56,2.85 4.29,4.6 2.6,2.63 1.48,2.33 6.35,1.7 3.17,-0.41 13.48,-1.91 14.93,-2.56 l 0.4,-0.23 z"
   class="fil9" />
   <path
   style="fill:#000000;fill-rule:nonzero"
   id="path6419"
   d="m 5444.3,371.05 -8.86,-23.29 H 5360 l -8.86,23.76 c -3.45,9.29 -6.39,15.55 -8.86,18.79 -2.42,3.24 -6.44,4.88 -12.01,4.88 -4.71,0 -8.9,-1.73 -12.53,-5.18 -3.63,-3.46 -5.44,-7.39 -5.44,-11.75 0,-2.55 0.43,-5.18 1.25,-7.86 0.86,-2.72 2.25,-6.44 4.19,-11.28 l 47.44,-120.46 c 1.38,-3.46 2.98,-7.61 4.88,-12.44 1.9,-4.88 3.93,-8.9 6.09,-12.1 2.16,-3.2 4.97,-5.79 8.47,-7.78 3.5,-1.99 7.82,-2.98 12.96,-2.98 5.27,0 9.64,0.99 13.14,2.98 3.5,1.99 6.31,4.54 8.47,7.65 2.16,3.11 3.97,6.48 5.44,10.07 1.47,3.59 3.37,8.38 5.62,14.34 l 48.48,119.73 c 3.8,9.12 5.7,15.73 5.7,19.88 0,4.28 -1.77,8.25 -5.36,11.84 -3.59,3.59 -7.95,5.36 -13.01,5.36 -2.94,0 -5.49,-0.52 -7.61,-1.6 -2.07,-1.04 -3.84,-2.46 -5.32,-4.28 -1.42,-1.82 -2.94,-4.62 -4.58,-8.34 -1.68,-3.76 -3.07,-7.09 -4.28,-9.94 z m -74.4,-51.54 h 55.43 l -27.95,-76.48 z"
   class="fil10" />
   <path
   style="fill:#000000;fill-rule:nonzero"
   d="m 5663.71,333.46 c 0,5.92 -1.43,12.31 -4.36,19.18 -2.89,6.87 -7.47,13.61 -13.74,20.22 -6.22,6.65 -14.22,12.01 -23.89,16.16 -9.72,4.11 -21.04,6.18 -33.96,6.18 -9.76,0 -18.66,-0.91 -26.7,-2.76 -7.99,-1.86 -15.3,-4.75 -21.82,-8.68 -6.52,-3.89 -12.57,-9.07 -18.06,-15.47 -4.88,-5.83 -9.07,-12.31 -12.53,-19.53 -3.46,-7.22 -6.05,-14.95 -7.78,-23.12 -1.73,-8.21 -2.59,-16.89 -2.59,-26.1 0,-14.91 2.16,-28.3 6.52,-40.09 4.32,-11.84 10.59,-21.95 18.66,-30.33 8.12,-8.38 17.59,-14.78 28.47,-19.18 10.89,-4.36 22.51,-6.57 34.82,-6.57 15.03,0 28.39,2.98 40.14,8.99 11.71,5.96 20.7,13.39 26.96,22.21 6.22,8.81 9.38,17.11 9.38,24.97 0,4.32 -1.56,8.08 -4.58,11.41 -3.03,3.28 -6.7,4.93 -11.02,4.93 -4.8,0 -8.42,-1.16 -10.8,-3.41 -2.42,-2.29 -5.1,-6.22 -8.04,-11.8 -4.92,-9.2 -10.67,-16.07 -17.28,-20.65 -6.65,-4.54 -14.78,-6.83 -24.5,-6.83 -15.47,0 -27.74,5.88 -36.9,17.59 -9.16,11.75 -13.74,28.43 -13.74,50.03 0,14.43 2.03,26.44 6.09,36.03 4.02,9.59 9.76,16.72 17.2,21.47 7.43,4.71 16.12,7.09 26.1,7.09 10.8,0 19.92,-2.68 27.39,-8.04 7.47,-5.36 13.09,-13.22 16.89,-23.63 1.6,-4.88 3.59,-8.86 5.96,-11.97 2.34,-3.07 6.14,-4.62 11.36,-4.62 4.49,0 8.34,1.56 11.54,4.71 3.2,3.11 4.8,7 4.8,11.62 z"
   class="fil10"
   id="1" />
   <path
   style="fill:#000000;fill-rule:nonzero"
   d="m 5806.29,350.1 c 0,9.51 -2.33,17.67 -6.96,24.45 -4.62,6.78 -11.49,11.93 -20.57,15.43 -9.07,3.5 -20.09,5.23 -33.1,5.23 -12.4,0 -23.03,-1.9 -31.88,-5.7 -8.86,-3.76 -15.38,-8.51 -19.62,-14.21 -4.19,-5.66 -6.31,-11.36 -6.31,-17.11 0,-3.8 1.34,-7.04 4.06,-9.72 2.68,-2.72 6.09,-4.06 10.24,-4.06 3.63,0 6.39,0.91 8.34,2.68 1.94,1.77 3.8,4.23 5.57,7.47 3.54,6.13 7.78,10.76 12.7,13.78 4.93,3.07 11.66,4.58 20.18,4.58 6.91,0 12.57,-1.55 16.98,-4.62 4.45,-3.07 6.65,-6.61 6.65,-10.59 0,-6.09 -2.29,-10.5 -6.87,-13.31 -4.62,-2.77 -12.18,-5.44 -22.72,-7.99 -11.88,-2.94 -21.56,-6.05 -29.04,-9.29 -7.43,-3.24 -13.39,-7.56 -17.89,-12.88 -4.45,-5.31 -6.7,-11.88 -6.7,-19.61 0,-6.96 2.07,-13.48 6.18,-19.66 4.15,-6.18 10.24,-11.06 18.32,-14.73 8.04,-3.67 17.76,-5.53 29.16,-5.53 8.94,0 16.98,0.91 24.07,2.76 7.13,1.86 13.09,4.36 17.84,7.47 4.8,3.16 8.43,6.61 10.89,10.41 2.51,3.8 3.76,7.47 3.76,11.15 0,3.93 -1.34,7.22 -4.02,9.72 -2.63,2.55 -6.44,3.8 -11.32,3.8 -3.54,0 -6.57,-0.99 -9.07,-3.03 -2.46,-2.03 -5.32,-5.05 -8.55,-9.12 -2.59,-3.37 -5.66,-6.09 -9.2,-8.12 -3.54,-2.03 -8.34,-3.03 -14.43,-3.03 -6.22,0 -11.41,1.34 -15.56,3.97 -4.1,2.68 -6.18,6.01 -6.18,9.98 0,3.63 1.51,6.61 4.54,8.9 3.07,2.33 7.13,4.28 12.27,5.79 5.14,1.51 12.23,3.37 21.26,5.57 10.72,2.59 19.49,5.75 26.27,9.38 6.78,3.63 11.93,7.91 15.43,12.88 3.5,4.93 5.27,10.54 5.27,16.89 z"
   class="fil10"
   id="2" />
   <path
   style="fill:#000000;fill-rule:nonzero"
   d="m 5837.48,257.81 h 3.8 v -20.78 c 0,-5.57 0.13,-9.94 0.43,-13.09 0.3,-3.2 1.12,-5.92 2.46,-8.17 1.34,-2.38 3.28,-4.32 5.83,-5.79 2.51,-1.47 5.32,-2.2 8.47,-2.2 4.36,0 8.3,1.64 11.84,4.92 2.38,2.2 3.85,4.88 4.49,8.08 0.65,3.16 0.95,7.65 0.95,13.48 v 23.55 h 12.66 c 4.88,0 8.64,1.17 11.19,3.46 2.59,2.33 3.89,5.31 3.89,8.9 0,4.66 -1.86,7.91 -5.53,9.76 -3.67,1.86 -8.9,2.76 -15.77,2.76 h -6.44 v 63.51 c 0,5.4 0.17,9.59 0.56,12.49 0.39,2.89 1.38,5.27 3.03,7.09 1.68,1.82 4.36,2.72 8.08,2.72 1.99,0 4.75,-0.35 8.21,-1.08 3.46,-0.69 6.18,-1.08 8.08,-1.08 2.81,0 5.32,1.12 7.56,3.37 2.24,2.25 3.33,5.01 3.33,8.3 0,5.57 -3.03,9.81 -9.07,12.75 -6.09,2.98 -14.82,4.45 -26.23,4.45 -10.8,0 -18.97,-1.82 -24.5,-5.44 -5.57,-3.63 -9.2,-8.64 -10.93,-15.08 -1.73,-6.39 -2.59,-14.95 -2.59,-25.66 v -66.32 h -4.54 c -5.01,0 -8.82,-1.17 -11.41,-3.54 -2.64,-2.33 -3.93,-5.36 -3.93,-8.99 0,-3.59 1.38,-6.57 4.11,-8.9 2.76,-2.29 6.74,-3.46 11.97,-3.46 z"
   class="fil10"
   id="3" />
   <path
   style="fill:#000000;fill-rule:nonzero"
   d="m 6014.67,375.8 c -8.38,6.48 -16.46,11.32 -24.24,14.56 -7.82,3.24 -16.59,4.84 -26.27,4.84 -8.86,0 -16.68,-1.77 -23.38,-5.27 -6.7,-3.5 -11.88,-8.21 -15.51,-14.22 -3.63,-6.01 -5.44,-12.49 -5.44,-19.49 0,-9.46 2.98,-17.5 8.99,-24.15 6.01,-6.7 14.26,-11.15 24.76,-13.43 2.16,-0.52 7.61,-1.64 16.29,-3.41 8.68,-1.77 16.16,-3.37 22.34,-4.88 6.18,-1.47 12.92,-3.24 20.18,-5.36 -0.43,-9.12 -2.25,-15.82 -5.49,-20.05 -3.28,-4.28 -9.98,-6.39 -20.22,-6.39 -8.77,0 -15.38,1.21 -19.79,3.67 -4.45,2.42 -8.25,6.09 -11.41,11.02 -3.15,4.88 -5.4,8.08 -6.7,9.68 -1.34,1.55 -4.15,2.33 -8.43,2.33 -3.89,0 -7.26,-1.25 -10.07,-3.76 -2.81,-2.46 -4.23,-5.66 -4.23,-9.55 0,-6.09 2.16,-12.01 6.44,-17.76 4.32,-5.75 11.02,-10.45 20.13,-14.17 9.12,-3.72 20.48,-5.57 34.09,-5.57 15.16,0 27.13,1.81 35.82,5.4 8.68,3.59 14.82,9.24 18.4,17.02 3.59,7.78 5.4,18.06 5.4,30.89 0,8.12 -0.05,14.99 -0.09,20.65 -0.04,5.66 -0.09,11.97 -0.17,18.88 0,6.48 1.08,13.26 3.24,20.31 2.16,7 3.2,11.53 3.2,13.57 0,3.54 -1.64,6.78 -4.97,9.68 -3.37,2.89 -7.13,4.36 -11.36,4.36 -3.55,0 -7.04,-1.64 -10.5,-4.97 -3.46,-3.33 -7.13,-8.12 -11.02,-14.43 z m -2.29,-50.07 c -5.06,1.86 -12.4,3.84 -22.08,5.88 -9.63,2.07 -16.33,3.63 -20.05,4.58 -3.72,0.99 -7.26,2.89 -10.63,5.7 -3.37,2.85 -5.05,6.78 -5.05,11.88 0,5.23 1.99,9.68 5.96,13.35 3.93,3.67 9.12,5.53 15.56,5.53 6.82,0 13.13,-1.51 18.88,-4.49 5.79,-3.02 10.02,-6.87 12.74,-11.62 3.11,-5.23 4.67,-13.87 4.67,-25.88 z"
   class="fil10"
   id="4" />
   <path
   style="fill:#000000;fill-rule:nonzero"
   d="M 6081.38,374.21 V 224.37 c 0,-6.91 1.56,-12.14 4.62,-15.68 3.07,-3.54 7.21,-5.32 12.44,-5.32 5.18,0 9.42,1.77 12.62,5.27 3.2,3.5 4.8,8.73 4.8,15.73 v 149.84 c 0,7 -1.64,12.23 -4.88,15.73 -3.24,3.5 -7.43,5.27 -12.53,5.27 -5.06,0 -9.16,-1.82 -12.32,-5.44 -3.15,-3.63 -4.75,-8.82 -4.75,-15.55 z"
   class="fil10"
   id="5" />
   <path
   style="fill:#000000;fill-rule:nonzero"
   d="m 6237.7,379.39 -30.51,-50.03 -18.75,17.67 v 27.43 c 0,6.65 -1.77,11.8 -5.27,15.38 -3.5,3.59 -7.52,5.36 -12.1,5.36 -5.32,0 -9.51,-1.77 -12.53,-5.32 -3.07,-3.54 -4.58,-8.77 -4.58,-15.68 V 226.91 c 0,-7.69 1.47,-13.52 4.45,-17.54 2.94,-4.02 7.17,-6.01 12.66,-6.01 5.32,0 9.55,1.82 12.66,5.45 3.15,3.63 4.71,8.99 4.71,16.07 v 83.73 l 38.84,-40.74 c 4.84,-5.1 8.51,-8.56 11.02,-10.41 2.55,-1.86 5.62,-2.76 9.24,-2.76 4.32,0 7.91,1.38 10.76,4.11 2.89,2.76 4.32,6.18 4.32,10.33 0,5.05 -4.71,11.8 -14.04,20.26 l -18.36,16.81 35.43,55.69 c 2.63,4.15 4.49,7.3 5.62,9.46 1.16,2.16 1.73,4.19 1.73,6.14 0,5.49 -1.51,9.81 -4.49,12.96 -2.98,3.15 -6.95,4.75 -11.84,4.75 -4.23,0 -7.47,-1.12 -9.72,-3.41 -2.29,-2.29 -5.36,-6.39 -9.24,-12.4 z"
   class="fil10"
   id="6" />
   <path
   style="fill:#000000;fill-rule:nonzero"
   d="m 6405,350.1 c 0,9.51 -2.33,17.67 -6.96,24.45 -4.62,6.78 -11.49,11.93 -20.57,15.43 -9.07,3.5 -20.09,5.23 -33.1,5.23 -12.4,0 -23.03,-1.9 -31.88,-5.7 -8.86,-3.76 -15.38,-8.51 -19.62,-14.21 -4.19,-5.66 -6.31,-11.36 -6.31,-17.11 0,-3.8 1.34,-7.04 4.06,-9.72 2.68,-2.72 6.09,-4.06 10.24,-4.06 3.63,0 6.39,0.91 8.34,2.68 1.94,1.77 3.8,4.23 5.57,7.47 3.54,6.13 7.78,10.76 12.7,13.78 4.93,3.07 11.66,4.58 20.18,4.58 6.91,0 12.57,-1.55 16.98,-4.62 4.45,-3.07 6.65,-6.61 6.65,-10.59 0,-6.09 -2.29,-10.5 -6.87,-13.31 -4.62,-2.77 -12.18,-5.44 -22.72,-7.99 -11.88,-2.94 -21.56,-6.05 -29.04,-9.29 -7.43,-3.24 -13.39,-7.56 -17.89,-12.88 -4.45,-5.31 -6.7,-11.88 -6.7,-19.61 0,-6.96 2.07,-13.48 6.18,-19.66 4.15,-6.18 10.24,-11.06 18.32,-14.73 8.04,-3.67 17.76,-5.53 29.16,-5.53 8.94,0 16.98,0.91 24.07,2.76 7.13,1.86 13.09,4.36 17.84,7.47 4.8,3.16 8.43,6.61 10.89,10.41 2.51,3.8 3.76,7.47 3.76,11.15 0,3.93 -1.34,7.22 -4.02,9.72 -2.63,2.55 -6.44,3.8 -11.32,3.8 -3.54,0 -6.57,-0.99 -9.07,-3.03 -2.46,-2.03 -5.32,-5.05 -8.55,-9.12 -2.59,-3.37 -5.66,-6.09 -9.2,-8.12 -3.54,-2.03 -8.34,-3.03 -14.43,-3.03 -6.22,0 -11.41,1.34 -15.56,3.97 -4.1,2.68 -6.18,6.01 -6.18,9.98 0,3.63 1.51,6.61 4.54,8.9 3.07,2.33 7.13,4.28 12.27,5.79 5.14,1.51 12.23,3.37 21.26,5.57 10.72,2.59 19.49,5.75 26.27,9.38 6.78,3.63 11.93,7.91 15.43,12.88 3.5,4.93 5.27,10.54 5.27,16.89 z"
   class="fil10"
   id="7" />
   <path
   style="fill:#000000;fill-rule:nonzero"
   d="m 6444.23,395.21 c -5.23,0 -9.72,-1.68 -13.53,-5.05 -3.8,-3.37 -5.7,-8.12 -5.7,-14.17 0,-5.18 1.82,-9.59 5.44,-13.31 3.63,-3.72 8.12,-5.57 13.44,-5.57 5.32,0 9.85,1.82 13.61,5.49 3.76,3.67 5.62,8.12 5.62,13.39 0,5.96 -1.86,10.67 -5.62,14.09 -3.76,3.41 -8.17,5.14 -13.26,5.14 z"
   class="fil10"
   id="8" />
   <path
   style="fill:#000000;fill-rule:nonzero"
   d="m 6626.48,352.47 c 0,4.28 -1.3,8.9 -3.89,13.78 -2.55,4.88 -6.48,9.55 -11.75,13.96 -5.27,4.41 -11.93,7.99 -19.96,10.67 -7.99,2.72 -17.02,4.06 -27.09,4.06 -21.34,0 -38.02,-6.22 -49.99,-18.66 -12.01,-12.44 -18.02,-29.12 -18.02,-50.08 0,-14.17 2.76,-26.7 8.25,-37.59 5.49,-10.89 13.43,-19.32 23.81,-25.23 10.41,-5.96 22.81,-8.94 37.24,-8.94 8.94,0 17.15,1.3 24.63,3.93 7.43,2.63 13.78,6.01 18.97,10.15 5.18,4.15 9.16,8.55 11.88,13.22 2.76,4.71 4.15,9.07 4.15,13.14 0,4.15 -1.56,7.65 -4.62,10.54 -3.11,2.85 -6.83,4.28 -11.24,4.28 -2.85,0 -5.23,-0.73 -7.13,-2.2 -1.9,-1.47 -4.02,-3.85 -6.39,-7.13 -4.23,-6.39 -8.64,-11.23 -13.22,-14.43 -4.62,-3.2 -10.45,-4.8 -17.54,-4.8 -10.2,0 -18.45,3.97 -24.67,11.97 -6.27,7.95 -9.38,18.84 -9.38,32.66 0,6.48 0.82,12.44 2.42,17.89 1.6,5.45 3.89,10.11 6.96,13.91 3.02,3.85 6.7,6.74 11.02,8.73 4.28,1.99 9.03,2.98 14.17,2.98 6.91,0 12.83,-1.6 17.76,-4.8 4.97,-3.2 9.33,-8.12 13.13,-14.69 2.07,-3.89 4.36,-6.91 6.83,-9.07 2.42,-2.2 5.45,-3.33 8.99,-3.33 4.23,0 7.73,1.64 10.5,4.84 2.77,3.2 4.19,6.61 4.19,10.24 z"
   class="fil10"
   id="9" />
   <path
   style="fill:#000000;fill-rule:nonzero"
   d="m 6785.91,324.99 c 0,10.33 -1.6,19.79 -4.8,28.47 -3.24,8.68 -7.86,16.16 -13.95,22.38 -6.05,6.26 -13.35,11.02 -21.78,14.34 -8.43,3.33 -17.93,5.01 -28.47,5.01 -10.5,0 -19.92,-1.68 -28.26,-5.05 -8.34,-3.37 -15.6,-8.21 -21.73,-14.52 -6.09,-6.27 -10.76,-13.7 -13.91,-22.25 -3.15,-8.6 -4.75,-18.06 -4.75,-28.43 0,-10.45 1.6,-20.05 4.8,-28.73 3.24,-8.68 7.82,-16.11 13.83,-22.29 6.01,-6.14 13.26,-10.89 21.78,-14.22 8.51,-3.33 17.93,-5.01 28.26,-5.01 10.45,0 19.96,1.68 28.47,5.05 8.51,3.37 15.81,8.21 21.91,14.47 6.09,6.22 10.71,13.65 13.87,22.3 3.15,8.6 4.75,18.1 4.75,28.47 z m -34.74,0 c 0,-14.09 -3.11,-25.02 -9.29,-32.88 -6.22,-7.82 -14.52,-11.75 -24.97,-11.75 -6.78,0 -12.7,1.73 -17.85,5.23 -5.14,3.5 -9.12,8.68 -11.88,15.51 -2.81,6.83 -4.19,14.82 -4.19,23.89 0,9.03 1.38,16.94 4.11,23.68 2.76,6.74 6.65,11.93 11.75,15.51 5.1,3.59 11.15,5.36 18.06,5.36 10.45,0 18.75,-3.93 24.97,-11.84 6.18,-7.86 9.29,-18.8 9.29,-32.71 z"
   class="fil10"
   id="10" />
   <path
   style="fill:#000000;fill-rule:nonzero"
   d="m 6927.97,327.5 v 45.93 c 0,7.26 -1.64,12.7 -4.93,16.33 -3.28,3.63 -7.65,5.44 -13.01,5.44 -5.23,0 -9.46,-1.82 -12.7,-5.44 -3.24,-3.63 -4.88,-9.07 -4.88,-16.33 v -55.05 c 0,-8.73 -0.3,-15.47 -0.91,-20.26 -0.56,-4.8 -2.16,-8.77 -4.8,-11.84 -2.64,-3.07 -6.74,-4.62 -12.44,-4.62 -11.32,0 -18.75,3.89 -22.34,11.66 -3.59,7.74 -5.4,18.88 -5.4,33.4 v 46.71 c 0,7.17 -1.64,12.62 -4.88,16.29 -3.24,3.67 -7.52,5.49 -12.79,5.49 -5.23,0 -9.5,-1.82 -12.83,-5.49 -3.33,-3.67 -5.01,-9.12 -5.01,-16.29 v -98.86 c 0,-6.48 1.51,-11.45 4.49,-14.82 2.98,-3.37 6.91,-5.05 11.8,-5.05 4.75,0 8.68,1.6 11.84,4.75 3.15,3.15 4.75,7.52 4.75,13.09 v 3.28 c 5.96,-7.17 12.4,-12.44 19.23,-15.81 6.83,-3.37 14.43,-5.06 22.77,-5.06 8.73,0 16.16,1.73 22.42,5.18 6.26,3.46 11.41,8.68 15.42,15.68 5.83,-7.09 12.1,-12.31 18.75,-15.73 6.65,-3.41 14.04,-5.14 22.16,-5.14 9.46,0 17.59,1.86 24.41,5.57 6.82,3.72 11.97,9.03 15.34,15.94 2.94,6.22 4.41,16.07 4.41,29.47 v 67.49 c 0,7.26 -1.64,12.7 -4.93,16.33 -3.28,3.63 -7.65,5.44 -13.01,5.44 -5.23,0 -9.51,-1.82 -12.83,-5.49 -3.33,-3.67 -5.01,-9.12 -5.01,-16.29 v -58.11 c 0,-7.43 -0.3,-13.35 -0.95,-17.84 -0.65,-4.45 -2.34,-8.21 -5.14,-11.28 -2.77,-3.03 -7,-4.54 -12.66,-4.54 -4.58,0 -8.9,1.34 -13.01,4.06 -4.06,2.68 -7.26,6.31 -9.55,10.89 -2.55,5.79 -3.8,16.12 -3.8,30.89 z"
   class="fil10"
   id="11" />
   <path
   style="fill:#000000;fill-rule:nonzero"
   id="path6432"
   d="m 5217.37,455.32 h 1.57 v -8.6 c 0,-2.31 0.06,-4.12 0.18,-5.42 0.13,-1.32 0.47,-2.45 1.02,-3.38 0.55,-0.98 1.36,-1.79 2.42,-2.4 1.04,-0.61 2.2,-0.91 3.51,-0.91 1.8,0 3.43,0.68 4.9,2.04 0.98,0.91 1.59,2.02 1.86,3.35 0.27,1.31 0.39,3.16 0.39,5.58 v 9.75 h 5.24 c 2.02,0 3.58,0.48 4.63,1.43 1.07,0.96 1.61,2.2 1.61,3.68 0,1.93 -0.77,3.27 -2.29,4.04 -1.52,0.77 -3.68,1.15 -6.53,1.15 h -2.66 v 26.29 c 0,2.23 0.07,3.97 0.23,5.17 0.16,1.2 0.57,2.18 1.25,2.93 0.7,0.75 1.81,1.13 3.35,1.13 0.82,0 1.97,-0.14 3.4,-0.45 1.43,-0.29 2.56,-0.45 3.35,-0.45 1.16,0 2.2,0.47 3.13,1.39 0.93,0.93 1.38,2.08 1.38,3.44 0,2.31 -1.25,4.06 -3.76,5.28 -2.52,1.23 -6.13,1.84 -10.85,1.84 -4.47,0 -7.85,-0.75 -10.14,-2.25 -2.31,-1.5 -3.81,-3.58 -4.52,-6.24 -0.71,-2.65 -1.07,-6.19 -1.07,-10.62 v -27.45 h -1.88 c -2.07,0 -3.65,-0.49 -4.72,-1.47 -1.09,-0.96 -1.63,-2.22 -1.63,-3.72 0,-1.48 0.57,-2.72 1.7,-3.68 1.15,-0.95 2.79,-1.43 4.96,-1.43 z"
   class="fil10" />
   <path
   style="fill:#000000;fill-rule:nonzero"
   d="m 5291.68,504.13 v -1.84 c -1.72,2.16 -3.51,3.99 -5.4,5.45 -1.88,1.47 -3.93,2.56 -6.17,3.27 -2.24,0.72 -4.78,1.07 -7.64,1.07 -3.47,0 -6.56,-0.72 -9.3,-2.15 -2.74,-1.43 -4.86,-3.4 -6.37,-5.92 -1.77,-3.04 -2.66,-7.41 -2.66,-13.11 v -28.33 c 0,-2.88 0.64,-5.01 1.93,-6.42 1.29,-1.41 3.01,-2.13 5.13,-2.13 2.15,0 3.9,0.71 5.22,2.15 1.32,1.43 1.99,3.56 1.99,6.4 v 22.89 c 0,3.31 0.29,6.1 0.84,8.35 0.55,2.26 1.56,4.03 3,5.29 1.45,1.27 3.42,1.91 5.9,1.91 2.41,0 4.68,-0.71 6.81,-2.15 2.13,-1.43 3.68,-3.31 4.67,-5.62 0.81,-2.02 1.2,-6.46 1.2,-13.3 v -17.39 c 0,-2.84 0.66,-4.97 1.98,-6.4 1.34,-1.43 3.08,-2.15 5.21,-2.15 2.13,0 3.84,0.71 5.13,2.13 1.31,1.41 1.95,3.54 1.95,6.42 v 41.44 c 0,2.72 -0.63,4.76 -1.86,6.13 -1.25,1.36 -2.84,2.04 -4.81,2.04 -1.95,0 -3.58,-0.71 -4.85,-2.13 -1.27,-1.41 -1.91,-3.4 -1.91,-5.94 z"
   class="fil10"
   id="path6434" />
   <path
   style="fill:#000000;fill-rule:nonzero"
   d="m 5333.55,491.56 v 11.95 c 0,2.9 -0.68,5.06 -2.04,6.51 -1.36,1.45 -3.08,2.18 -5.17,2.18 -2.06,0 -3.76,-0.73 -5.08,-2.2 -1.32,-1.47 -1.99,-3.63 -1.99,-6.49 v -39.83 c 0,-6.42 2.33,-9.64 6.96,-9.64 2.36,0 4.08,0.75 5.12,2.25 1.06,1.5 1.63,3.74 1.74,6.67 1.7,-2.93 3.45,-5.17 5.26,-6.67 1.8,-1.5 4.2,-2.25 7.21,-2.25 3,0 5.92,0.75 8.75,2.25 2.83,1.5 4.24,3.51 4.24,5.99 0,1.75 -0.59,3.18 -1.81,4.33 -1.2,1.14 -2.5,1.7 -3.9,1.7 -0.52,0 -1.79,-0.32 -3.79,-0.96 -2.02,-0.65 -3.79,-0.97 -5.33,-0.97 -2.09,0 -3.79,0.55 -5.13,1.65 -1.32,1.11 -2.36,2.73 -3.09,4.9 -0.73,2.16 -1.23,4.74 -1.52,7.73 -0.27,2.99 -0.41,6.62 -0.41,10.91 z"
   class="fil10"
   id="path6436" />
   <path
   style="fill:#000000;fill-rule:nonzero"
   d="m 5379.34,461.94 v 1.74 c 2.52,-3.33 5.28,-5.76 8.26,-7.31 2.99,-1.56 6.42,-2.32 10.3,-2.32 3.77,0 7.14,0.82 10.12,2.47 2.97,1.63 5.19,3.95 6.65,6.96 0.95,1.75 1.56,3.63 1.84,5.67 0.27,2.02 0.41,4.6 0.41,7.74 v 26.63 c 0,2.86 -0.66,5.03 -1.97,6.49 -1.31,1.47 -3.02,2.2 -5.12,2.2 -2.13,0 -3.86,-0.75 -5.21,-2.25 -1.32,-1.5 -1.98,-3.65 -1.98,-6.44 v -23.86 c 0,-4.7 -0.66,-8.32 -1.97,-10.82 -1.31,-2.49 -3.92,-3.74 -7.83,-3.74 -2.54,0 -4.86,0.75 -6.98,2.27 -2.09,1.52 -3.63,3.61 -4.6,6.28 -0.7,2.13 -1.06,6.1 -1.06,11.95 v 17.92 c 0,2.9 -0.68,5.06 -2.02,6.51 -1.34,1.45 -3.08,2.18 -5.19,2.18 -2.06,0 -3.76,-0.75 -5.08,-2.25 -1.32,-1.5 -1.98,-3.65 -1.98,-6.44 v -41.35 c 0,-2.72 0.59,-4.76 1.77,-6.1 1.2,-1.34 2.81,-2.02 4.86,-2.02 1.25,0 2.4,0.3 3.4,0.89 1.02,0.59 1.82,1.48 2.43,2.67 0.61,1.2 0.91,2.65 0.91,4.35 z"
   class="fil10"
   id="path6438" />
   <path
   style="fill:#000000;fill-rule:nonzero"
   d="m 5445.48,462.16 v 41.35 c 0,2.86 -0.68,5.03 -2.04,6.49 -1.36,1.47 -3.08,2.2 -5.17,2.2 -2.09,0 -3.79,-0.75 -5.1,-2.25 -1.31,-1.5 -1.97,-3.65 -1.97,-6.44 v -40.92 c 0,-2.84 0.66,-4.97 1.97,-6.4 1.31,-1.43 3,-2.15 5.1,-2.15 2.09,0 3.81,0.71 5.17,2.15 1.36,1.43 2.04,3.43 2.04,5.97 z m -7.06,-14.77 c -1.99,0 -3.68,-0.61 -5.1,-1.83 -1.41,-1.22 -2.11,-2.95 -2.11,-5.18 0,-2 0.71,-3.67 2.16,-4.97 1.45,-1.3 3.13,-1.97 5.04,-1.97 1.86,0 3.49,0.59 4.92,1.77 1.43,1.2 2.15,2.91 2.15,5.17 0,2.2 -0.7,3.92 -2.09,5.15 -1.39,1.23 -3.04,1.86 -4.97,1.86 z"
   class="fil10"
   id="path6440" />
   <path
   style="fill:#000000;fill-rule:nonzero"
   d="m 5473.48,462.08 v 1.74 c 2.68,-3.33 5.49,-5.78 8.39,-7.33 2.9,-1.56 6.17,-2.34 9.84,-2.34 4.42,0 8.46,1.13 12.16,3.4 3.7,2.27 6.63,5.6 8.78,9.96 2.15,4.36 3.22,9.53 3.22,15.51 0,4.4 -0.63,8.44 -1.86,12.13 -1.23,3.68 -2.95,6.78 -5.12,9.28 -2.16,2.51 -4.72,4.42 -7.67,5.76 -2.95,1.34 -6.12,2.02 -9.52,2.02 -4.08,0 -7.51,-0.82 -10.28,-2.47 -2.77,-1.63 -5.42,-4.04 -7.94,-7.22 v 21.5 c 0,6.3 -2.29,9.44 -6.87,9.44 -2.68,0 -4.47,-0.81 -5.35,-2.43 -0.88,-1.63 -1.31,-3.99 -1.31,-7.1 v -61.76 c 0,-2.72 0.59,-4.76 1.79,-6.1 1.18,-1.34 2.81,-2.02 4.86,-2.02 2.02,0 3.68,0.7 4.95,2.07 1.27,1.39 1.91,3.38 1.91,5.97 z m 28.01,20.8 c 0,-3.77 -0.57,-7.01 -1.73,-9.71 -1.15,-2.7 -2.74,-4.79 -4.78,-6.24 -2.06,-1.45 -4.31,-2.16 -6.78,-2.16 -3.95,0 -7.28,1.56 -9.98,4.65 -2.7,3.11 -4.06,7.69 -4.06,13.72 0,5.69 1.34,10.12 4.03,13.27 2.7,3.16 6.03,4.74 10.01,4.74 2.36,0 4.56,-0.7 6.58,-2.08 2.02,-1.38 3.65,-3.43 4.88,-6.19 1.22,-2.77 1.82,-6.1 1.82,-10 z"
   class="fil10"
   id="path6442" />
   <path
   style="fill:#000000;fill-rule:nonzero"
   d="m 5567.38,462.08 v 1.74 c 2.68,-3.33 5.49,-5.78 8.39,-7.33 2.9,-1.56 6.17,-2.34 9.84,-2.34 4.42,0 8.46,1.13 12.16,3.4 3.7,2.27 6.63,5.6 8.78,9.96 2.15,4.36 3.22,9.53 3.22,15.51 0,4.4 -0.63,8.44 -1.86,12.13 -1.23,3.68 -2.95,6.78 -5.12,9.28 -2.16,2.51 -4.72,4.42 -7.67,5.76 -2.95,1.34 -6.12,2.02 -9.52,2.02 -4.08,0 -7.51,-0.82 -10.28,-2.47 -2.77,-1.63 -5.42,-4.04 -7.94,-7.22 v 21.5 c 0,6.3 -2.29,9.44 -6.87,9.44 -2.68,0 -4.47,-0.81 -5.35,-2.43 -0.88,-1.63 -1.31,-3.99 -1.31,-7.1 v -61.76 c 0,-2.72 0.59,-4.76 1.79,-6.1 1.18,-1.34 2.81,-2.02 4.86,-2.02 2.02,0 3.68,0.7 4.95,2.07 1.27,1.39 1.91,3.38 1.91,5.97 z m 28.01,20.8 c 0,-3.77 -0.57,-7.01 -1.73,-9.71 -1.15,-2.7 -2.74,-4.79 -4.78,-6.24 -2.06,-1.45 -4.31,-2.16 -6.78,-2.16 -3.95,0 -7.28,1.56 -9.98,4.65 -2.7,3.11 -4.06,7.69 -4.06,13.72 0,5.69 1.34,10.12 4.03,13.27 2.7,3.16 6.03,4.74 10.01,4.74 2.36,0 4.56,-0.7 6.58,-2.08 2.02,-1.38 3.65,-3.43 4.88,-6.19 1.22,-2.77 1.82,-6.1 1.82,-10 z"
   class="fil10"
   id="path6444" />
   <path
   style="fill:#000000;fill-rule:nonzero"
   d="m 5635.42,491.56 v 11.95 c 0,2.9 -0.68,5.06 -2.04,6.51 -1.36,1.45 -3.08,2.18 -5.17,2.18 -2.06,0 -3.76,-0.73 -5.08,-2.2 -1.32,-1.47 -1.99,-3.63 -1.99,-6.49 v -39.83 c 0,-6.42 2.33,-9.64 6.96,-9.64 2.36,0 4.08,0.75 5.12,2.25 1.06,1.5 1.63,3.74 1.74,6.67 1.7,-2.93 3.45,-5.17 5.26,-6.67 1.8,-1.5 4.2,-2.25 7.21,-2.25 3,0 5.92,0.75 8.75,2.25 2.83,1.5 4.24,3.51 4.24,5.99 0,1.75 -0.59,3.18 -1.81,4.33 -1.2,1.14 -2.5,1.7 -3.9,1.7 -0.52,0 -1.79,-0.32 -3.79,-0.96 -2.02,-0.65 -3.79,-0.97 -5.33,-0.97 -2.09,0 -3.79,0.55 -5.13,1.65 -1.32,1.11 -2.36,2.73 -3.09,4.9 -0.73,2.16 -1.23,4.74 -1.52,7.73 -0.27,2.99 -0.41,6.62 -0.41,10.91 z"
   class="fil10"
   id="path6446" />
   <path
   style="fill:#000000;fill-rule:nonzero"
   d="m 5682.53,462.16 v 41.35 c 0,2.86 -0.68,5.03 -2.04,6.49 -1.36,1.47 -3.08,2.2 -5.17,2.2 -2.09,0 -3.79,-0.75 -5.1,-2.25 -1.31,-1.5 -1.97,-3.65 -1.97,-6.44 v -40.92 c 0,-2.84 0.66,-4.97 1.97,-6.4 1.31,-1.43 3,-2.15 5.1,-2.15 2.09,0 3.81,0.71 5.17,2.15 1.36,1.43 2.04,3.43 2.04,5.97 z m -7.06,-14.77 c -1.99,0 -3.68,-0.61 -5.1,-1.83 -1.41,-1.22 -2.11,-2.95 -2.11,-5.18 0,-2 0.71,-3.67 2.16,-4.97 1.45,-1.3 3.13,-1.97 5.04,-1.97 1.86,0 3.49,0.59 4.92,1.77 1.43,1.2 2.15,2.91 2.15,5.17 0,2.2 -0.7,3.92 -2.09,5.15 -1.39,1.23 -3.04,1.86 -4.97,1.86 z"
   class="fil10"
   id="path6448" />
   <path
   style="fill:#000000;fill-rule:nonzero"
   d="m 5748.65,494.51 c 0,1.77 -0.54,3.69 -1.61,5.71 -1.05,2.02 -2.68,3.95 -4.86,5.78 -2.18,1.82 -4.93,3.31 -8.26,4.42 -3.31,1.13 -7.05,1.68 -11.21,1.68 -8.84,0 -15.74,-2.58 -20.69,-7.73 -4.97,-5.15 -7.46,-12.05 -7.46,-20.73 0,-5.87 1.14,-11.05 3.42,-15.56 2.27,-4.51 5.56,-7.99 9.85,-10.45 4.31,-2.47 9.44,-3.7 15.42,-3.7 3.7,0 7.1,0.54 10.2,1.63 3.08,1.09 5.7,2.49 7.85,4.2 2.15,1.72 3.79,3.54 4.92,5.47 1.14,1.95 1.72,3.76 1.72,5.44 0,1.72 -0.64,3.16 -1.91,4.36 -1.29,1.18 -2.83,1.77 -4.65,1.77 -1.18,0 -2.16,-0.3 -2.95,-0.91 -0.79,-0.61 -1.66,-1.59 -2.65,-2.95 -1.75,-2.65 -3.58,-4.65 -5.47,-5.97 -1.91,-1.32 -4.33,-1.99 -7.26,-1.99 -4.22,0 -7.64,1.64 -10.21,4.96 -2.59,3.29 -3.88,7.8 -3.88,13.52 0,2.68 0.34,5.15 1,7.41 0.66,2.25 1.61,4.19 2.88,5.76 1.25,1.59 2.77,2.79 4.56,3.61 1.77,0.82 3.74,1.23 5.87,1.23 2.86,0 5.31,-0.66 7.35,-1.98 2.06,-1.32 3.86,-3.36 5.44,-6.08 0.86,-1.61 1.81,-2.86 2.83,-3.76 1,-0.91 2.26,-1.38 3.72,-1.38 1.75,0 3.2,0.68 4.35,2 1.15,1.32 1.74,2.74 1.74,4.24 z"
   class="fil10"
   id="path6450" />
   <path
   style="fill:#000000;fill-rule:nonzero"
   d="m 5801,486.66 h -27.99 c 0.04,3.25 0.7,6.12 1.97,8.6 1.27,2.49 2.97,4.35 5.08,5.6 2.11,1.27 4.45,1.9 6.99,1.9 1.72,0 3.27,-0.19 4.69,-0.61 1.43,-0.39 2.79,-1.02 4.11,-1.88 1.34,-0.86 2.56,-1.77 3.67,-2.75 1.12,-0.98 2.58,-2.31 4.36,-3.99 0.73,-0.62 1.77,-0.95 3.13,-0.95 1.47,0 2.67,0.41 3.58,1.22 0.89,0.79 1.36,1.93 1.36,3.4 0,1.29 -0.52,2.79 -1.52,4.52 -1.02,1.72 -2.54,3.38 -4.6,4.96 -2.04,1.59 -4.6,2.91 -7.69,3.95 -3.09,1.06 -6.65,1.57 -10.66,1.57 -9.19,0 -16.33,-2.63 -21.43,-7.87 -5.1,-5.24 -7.64,-12.34 -7.64,-21.32 0,-4.22 0.63,-8.15 1.88,-11.77 1.25,-3.61 3.09,-6.71 5.49,-9.3 2.41,-2.58 5.38,-4.56 8.91,-5.94 3.52,-1.38 7.44,-2.07 11.73,-2.07 5.6,0 10.39,1.18 14.38,3.54 4.01,2.36 6.99,5.4 9,9.16 1.98,3.74 2.99,7.55 2.99,11.43 0,3.59 -1.04,5.94 -3.09,7.01 -2.06,1.06 -4.95,1.59 -8.69,1.59 z m -27.99,-8.16 h 25.93 c -0.34,-4.88 -1.66,-8.53 -3.95,-10.96 -2.29,-2.41 -5.29,-3.63 -9.03,-3.63 -3.58,0 -6.49,1.23 -8.78,3.69 -2.29,2.47 -3.69,6.1 -4.17,10.91 z"
   class="fil10"
   id="path6452" />
   <path
   style="fill:#000000;fill-rule:nonzero"
   d="m 5887.83,504.17 c -3.47,2.68 -6.82,4.68 -10.03,6.03 -3.24,1.34 -6.87,2 -10.88,2 -3.67,0 -6.9,-0.73 -9.68,-2.18 -2.77,-1.45 -4.92,-3.4 -6.42,-5.89 -1.5,-2.49 -2.26,-5.17 -2.26,-8.07 0,-3.92 1.23,-7.24 3.72,-10 2.48,-2.77 5.9,-4.62 10.25,-5.56 0.9,-0.22 3.15,-0.68 6.74,-1.41 3.59,-0.73 6.69,-1.4 9.25,-2.02 2.56,-0.61 5.35,-1.34 8.35,-2.22 -0.18,-3.77 -0.93,-6.55 -2.27,-8.3 -1.36,-1.77 -4.13,-2.65 -8.37,-2.65 -3.63,0 -6.37,0.5 -8.19,1.52 -1.84,1 -3.42,2.52 -4.72,4.56 -1.31,2.02 -2.24,3.34 -2.77,4.01 -0.55,0.64 -1.72,0.96 -3.49,0.96 -1.61,0 -3,-0.52 -4.17,-1.56 -1.16,-1.02 -1.75,-2.34 -1.75,-3.95 0,-2.52 0.9,-4.97 2.67,-7.35 1.79,-2.38 4.56,-4.33 8.34,-5.87 3.77,-1.54 8.48,-2.31 14.11,-2.31 6.28,0 11.23,0.75 14.83,2.23 3.59,1.48 6.13,3.83 7.62,7.05 1.48,3.22 2.24,7.47 2.24,12.79 0,3.36 -0.02,6.21 -0.04,8.55 -0.02,2.34 -0.03,4.96 -0.07,7.82 0,2.68 0.45,5.49 1.34,8.41 0.89,2.9 1.32,4.77 1.32,5.61 0,1.47 -0.68,2.81 -2.06,4.01 -1.4,1.2 -2.95,1.81 -4.7,1.81 -1.47,0 -2.92,-0.68 -4.35,-2.06 -1.43,-1.38 -2.95,-3.36 -4.56,-5.97 z m -0.95,-20.73 c -2.09,0.77 -5.13,1.59 -9.14,2.43 -3.99,0.86 -6.76,1.5 -8.3,1.9 -1.54,0.41 -3,1.2 -4.4,2.36 -1.4,1.18 -2.09,2.81 -2.09,4.92 0,2.16 0.82,4.01 2.47,5.53 1.63,1.52 3.77,2.29 6.44,2.29 2.83,0 5.44,-0.63 7.82,-1.86 2.4,-1.25 4.15,-2.84 5.28,-4.81 1.29,-2.16 1.93,-5.74 1.93,-10.71 v -2.04 z"
   class="fil10"
   id="path6454" />
   <path
   style="fill:#000000;fill-rule:nonzero"
   d="m 5928.39,461.94 v 1.74 c 2.52,-3.33 5.28,-5.76 8.26,-7.31 2.99,-1.56 6.42,-2.32 10.3,-2.32 3.77,0 7.14,0.82 10.12,2.47 2.97,1.63 5.19,3.95 6.65,6.96 0.95,1.75 1.56,3.63 1.84,5.67 0.27,2.02 0.41,4.6 0.41,7.74 v 26.63 c 0,2.86 -0.66,5.03 -1.97,6.49 -1.31,1.47 -3.02,2.2 -5.12,2.2 -2.13,0 -3.86,-0.75 -5.21,-2.25 -1.32,-1.5 -1.98,-3.65 -1.98,-6.44 v -23.86 c 0,-4.7 -0.66,-8.32 -1.97,-10.82 -1.31,-2.49 -3.92,-3.74 -7.83,-3.74 -2.54,0 -4.86,0.75 -6.98,2.27 -2.09,1.52 -3.63,3.61 -4.6,6.28 -0.7,2.13 -1.06,6.1 -1.06,11.95 v 17.92 c 0,2.9 -0.68,5.06 -2.02,6.51 -1.34,1.45 -3.08,2.18 -5.19,2.18 -2.06,0 -3.76,-0.75 -5.08,-2.25 -1.32,-1.5 -1.98,-3.65 -1.98,-6.44 v -41.35 c 0,-2.72 0.59,-4.76 1.77,-6.1 1.2,-1.34 2.81,-2.02 4.86,-2.02 1.25,0 2.4,0.3 3.4,0.89 1.02,0.59 1.82,1.48 2.43,2.67 0.61,1.2 0.91,2.65 0.91,4.35 z"
   class="fil10"
   id="12" />
   <path
   style="fill:#000000;fill-rule:nonzero"
   d="m 6019.43,504.03 v -1.41 c -1.91,2.2 -3.81,3.99 -5.69,5.37 -1.86,1.38 -3.9,2.43 -6.08,3.15 -2.18,0.71 -4.56,1.07 -7.15,1.07 -3.42,0 -6.58,-0.73 -9.5,-2.18 -2.92,-1.45 -5.45,-3.51 -7.58,-6.21 -2.13,-2.68 -3.74,-5.85 -4.85,-9.48 -1.09,-3.63 -1.64,-7.57 -1.64,-11.78 0,-8.94 2.18,-15.92 6.54,-20.91 4.37,-4.99 10.12,-7.49 17.24,-7.49 4.13,0 7.6,0.71 10.43,2.13 2.83,1.42 5.6,3.6 8.28,6.55 v -21.12 c 0,-2.93 0.59,-5.15 1.75,-6.65 1.18,-1.5 2.84,-2.25 5.01,-2.25 2.16,0 3.83,0.7 5.01,2.07 1.16,1.38 1.75,3.42 1.75,6.1 v 63.06 c 0,2.72 -0.63,4.77 -1.88,6.13 -1.27,1.36 -2.9,2.04 -4.88,2.04 -1.95,0 -3.58,-0.71 -4.85,-2.13 -1.27,-1.41 -1.91,-3.44 -1.91,-6.05 z m -28.12,-21 c 0,3.88 0.61,7.17 1.81,9.91 1.2,2.72 2.84,4.76 4.95,6.13 2.09,1.38 4.38,2.08 6.85,2.08 2.52,0 4.81,-0.66 6.89,-1.97 2.08,-1.31 3.74,-3.31 4.97,-6.01 1.23,-2.72 1.86,-6.08 1.86,-10.14 0,-3.79 -0.63,-7.06 -1.86,-9.8 -1.23,-2.75 -2.92,-4.85 -5.03,-6.3 -2.11,-1.45 -4.42,-2.16 -6.94,-2.16 -2.61,0 -4.96,0.74 -7.01,2.22 -2.06,1.48 -3.65,3.61 -4.79,6.39 -1.13,2.79 -1.7,6.01 -1.7,9.66 z"
   class="fil10"
   id="13" />
   <path
   style="fill:#000000;fill-rule:nonzero"
   d="m 6088.11,441.48 v 21.19 c 1.83,-2.09 3.6,-3.76 5.33,-4.97 1.72,-1.22 3.63,-2.15 5.72,-2.75 2.11,-0.61 4.36,-0.91 6.78,-0.91 3.63,0 6.85,0.77 9.67,2.31 2.81,1.54 5.01,3.77 6.62,6.71 1.02,1.7 1.7,3.61 2.06,5.74 0.34,2.11 0.52,4.54 0.52,7.3 v 27.42 c 0,2.86 -0.66,5.03 -1.97,6.49 -1.31,1.47 -3.06,2.2 -5.22,2.2 -4.72,0 -7.08,-2.9 -7.08,-8.69 v -24.16 c 0,-4.58 -0.68,-8.1 -2.04,-10.55 -1.36,-2.47 -3.95,-3.7 -7.76,-3.7 -2.54,0 -4.85,0.73 -6.89,2.18 -2.04,1.45 -3.58,3.41 -4.58,5.94 -0.77,2.13 -1.16,5.92 -1.16,11.38 v 18.92 c 0,2.83 -0.64,4.97 -1.91,6.46 -1.27,1.48 -3.04,2.24 -5.29,2.24 -4.7,0 -7.06,-2.9 -7.06,-8.69 v -62.02 c 0,-2.9 0.63,-5.06 1.86,-6.51 1.23,-1.45 2.97,-2.18 5.2,-2.18 2.26,0 4.03,0.73 5.29,2.2 1.27,1.47 1.91,3.63 1.91,6.49 z"
   class="fil10"
   id="14" />
   <path
   style="fill:#000000;fill-rule:nonzero"
   d="m 6192.52,483.13 c 0,4.28 -0.66,8.19 -1.99,11.79 -1.34,3.59 -3.25,6.69 -5.78,9.26 -2.5,2.59 -5.53,4.56 -9.02,5.94 -3.49,1.38 -7.42,2.07 -11.78,2.07 -4.35,0 -8.24,-0.7 -11.7,-2.09 -3.45,-1.39 -6.46,-3.4 -9,-6.01 -2.52,-2.59 -4.45,-5.67 -5.76,-9.21 -1.31,-3.56 -1.97,-7.47 -1.97,-11.77 0,-4.33 0.66,-8.3 1.98,-11.89 1.34,-3.6 3.24,-6.67 5.72,-9.23 2.49,-2.54 5.49,-4.51 9.02,-5.89 3.52,-1.38 7.42,-2.07 11.7,-2.07 4.33,0 8.26,0.7 11.78,2.09 3.52,1.39 6.55,3.4 9.07,5.99 2.52,2.58 4.44,5.65 5.74,9.23 1.31,3.56 1.97,7.49 1.97,11.78 z m -14.38,0 c 0,-5.83 -1.29,-10.36 -3.85,-13.61 -2.58,-3.24 -6.01,-4.86 -10.34,-4.86 -2.81,0 -5.26,0.72 -7.39,2.16 -2.13,1.45 -3.77,3.6 -4.92,6.42 -1.16,2.83 -1.74,6.13 -1.74,9.89 0,3.74 0.57,7.01 1.7,9.8 1.15,2.79 2.76,4.94 4.86,6.42 2.11,1.48 4.61,2.22 7.48,2.22 4.33,0 7.76,-1.63 10.34,-4.9 2.56,-3.25 3.85,-7.78 3.85,-13.54 z"
   class="fil10"
   id="15" />
   <path
   style="fill:#000000;fill-rule:nonzero"
   d="m 6204.58,455.32 h 1.57 v -8.6 c 0,-2.31 0.06,-4.12 0.18,-5.42 0.13,-1.32 0.47,-2.45 1.02,-3.38 0.55,-0.98 1.36,-1.79 2.42,-2.4 1.04,-0.61 2.2,-0.91 3.51,-0.91 1.8,0 3.43,0.68 4.9,2.04 0.98,0.91 1.59,2.02 1.86,3.35 0.27,1.31 0.39,3.16 0.39,5.58 v 9.75 h 5.24 c 2.02,0 3.58,0.48 4.63,1.43 1.07,0.96 1.61,2.2 1.61,3.68 0,1.93 -0.77,3.27 -2.29,4.04 -1.52,0.77 -3.68,1.15 -6.53,1.15 h -2.66 v 26.29 c 0,2.23 0.07,3.97 0.23,5.17 0.16,1.2 0.57,2.18 1.25,2.93 0.7,0.75 1.81,1.13 3.35,1.13 0.82,0 1.97,-0.14 3.4,-0.45 1.43,-0.29 2.56,-0.45 3.35,-0.45 1.16,0 2.2,0.47 3.13,1.39 0.93,0.93 1.38,2.08 1.38,3.44 0,2.31 -1.25,4.06 -3.76,5.28 -2.52,1.23 -6.13,1.84 -10.85,1.84 -4.47,0 -7.85,-0.75 -10.14,-2.25 -2.31,-1.5 -3.81,-3.58 -4.52,-6.24 -0.71,-2.65 -1.07,-6.19 -1.07,-10.62 v -27.45 h -1.88 c -2.07,0 -3.65,-0.49 -4.72,-1.47 -1.09,-0.96 -1.63,-2.22 -1.63,-3.72 0,-1.48 0.57,-2.72 1.7,-3.68 1.15,-0.95 2.79,-1.43 4.96,-1.43 z"
   class="fil10"
   id="16" />
   <path
   style="fill:#000000;fill-rule:nonzero"
   d="m 6282.88,462.16 v 41.35 c 0,2.86 -0.68,5.03 -2.04,6.49 -1.36,1.47 -3.08,2.2 -5.17,2.2 -2.09,0 -3.79,-0.75 -5.1,-2.25 -1.31,-1.5 -1.97,-3.65 -1.97,-6.44 v -40.92 c 0,-2.84 0.66,-4.97 1.97,-6.4 1.31,-1.43 3,-2.15 5.1,-2.15 2.09,0 3.81,0.71 5.17,2.15 1.36,1.43 2.04,3.43 2.04,5.97 z m -7.06,-14.77 c -1.99,0 -3.68,-0.61 -5.1,-1.83 -1.41,-1.22 -2.11,-2.95 -2.11,-5.18 0,-2 0.71,-3.67 2.16,-4.97 1.45,-1.3 3.13,-1.97 5.04,-1.97 1.86,0 3.49,0.59 4.92,1.77 1.43,1.2 2.15,2.91 2.15,5.17 0,2.2 -0.7,3.92 -2.09,5.15 -1.39,1.23 -3.04,1.86 -4.97,1.86 z"
   class="fil10"
   id="17" />
   <path
   style="fill:#000000;fill-rule:nonzero"
   d="m 6298.48,455.32 h 1.57 v -8.6 c 0,-2.31 0.06,-4.12 0.18,-5.42 0.13,-1.32 0.47,-2.45 1.02,-3.38 0.55,-0.98 1.36,-1.79 2.42,-2.4 1.04,-0.61 2.2,-0.91 3.51,-0.91 1.8,0 3.43,0.68 4.9,2.04 0.98,0.91 1.59,2.02 1.86,3.35 0.27,1.31 0.39,3.16 0.39,5.58 v 9.75 h 5.24 c 2.02,0 3.58,0.48 4.63,1.43 1.07,0.96 1.61,2.2 1.61,3.68 0,1.93 -0.77,3.27 -2.29,4.04 -1.52,0.77 -3.68,1.15 -6.53,1.15 h -2.66 v 26.29 c 0,2.23 0.07,3.97 0.23,5.17 0.16,1.2 0.57,2.18 1.25,2.93 0.7,0.75 1.81,1.13 3.35,1.13 0.82,0 1.97,-0.14 3.4,-0.45 1.43,-0.29 2.56,-0.45 3.35,-0.45 1.16,0 2.2,0.47 3.13,1.39 0.93,0.93 1.38,2.08 1.38,3.44 0,2.31 -1.25,4.06 -3.76,5.28 -2.52,1.23 -6.13,1.84 -10.85,1.84 -4.47,0 -7.85,-0.75 -10.14,-2.25 -2.31,-1.5 -3.81,-3.58 -4.52,-6.24 -0.71,-2.65 -1.07,-6.19 -1.07,-10.62 v -27.45 h -1.88 c -2.07,0 -3.65,-0.49 -4.72,-1.47 -1.09,-0.96 -1.63,-2.22 -1.63,-3.72 0,-1.48 0.57,-2.72 1.7,-3.68 1.15,-0.95 2.79,-1.43 4.96,-1.43 z"
   class="fil10"
   id="18" />
   <path
   style="fill:#000000;fill-rule:nonzero"
   d="m 6375.58,486.66 h -27.99 c 0.04,3.25 0.7,6.12 1.97,8.6 1.27,2.49 2.97,4.35 5.08,5.6 2.11,1.27 4.45,1.9 6.99,1.9 1.72,0 3.27,-0.19 4.69,-0.61 1.43,-0.39 2.79,-1.02 4.11,-1.88 1.34,-0.86 2.56,-1.77 3.67,-2.75 1.12,-0.98 2.58,-2.31 4.36,-3.99 0.73,-0.62 1.77,-0.95 3.13,-0.95 1.47,0 2.67,0.41 3.58,1.22 0.89,0.79 1.36,1.93 1.36,3.4 0,1.29 -0.52,2.79 -1.52,4.52 -1.02,1.72 -2.54,3.38 -4.6,4.96 -2.04,1.59 -4.6,2.91 -7.69,3.95 -3.09,1.06 -6.65,1.57 -10.66,1.57 -9.19,0 -16.33,-2.63 -21.43,-7.87 -5.1,-5.24 -7.64,-12.34 -7.64,-21.32 0,-4.22 0.63,-8.15 1.88,-11.77 1.25,-3.61 3.09,-6.71 5.49,-9.3 2.41,-2.58 5.38,-4.56 8.91,-5.94 3.52,-1.38 7.44,-2.07 11.73,-2.07 5.6,0 10.39,1.18 14.38,3.54 4.01,2.36 6.99,5.4 9,9.16 1.98,3.74 2.99,7.55 2.99,11.43 0,3.59 -1.04,5.94 -3.09,7.01 -2.06,1.06 -4.95,1.59 -8.69,1.59 z m -27.99,-8.16 h 25.93 c -0.34,-4.88 -1.66,-8.53 -3.95,-10.96 -2.29,-2.41 -5.29,-3.63 -9.03,-3.63 -3.58,0 -6.49,1.23 -8.78,3.69 -2.29,2.47 -3.69,6.1 -4.17,10.91 z"
   class="fil10"
   id="19" />
   <path
   style="fill:#000000;fill-rule:nonzero"
   d="m 6446.98,484.17 v 19.01 c 0,3.01 -0.68,5.26 -2.04,6.76 -1.36,1.5 -3.17,2.25 -5.38,2.25 -2.16,0 -3.92,-0.75 -5.26,-2.25 -1.34,-1.5 -2.02,-3.76 -2.02,-6.76 V 480.4 c 0,-3.61 -0.13,-6.4 -0.38,-8.39 -0.23,-1.99 -0.89,-3.63 -1.98,-4.9 -1.09,-1.27 -2.79,-1.91 -5.15,-1.91 -4.69,0 -7.76,1.61 -9.24,4.83 -1.48,3.2 -2.24,7.82 -2.24,13.83 v 19.33 c 0,2.97 -0.68,5.22 -2.02,6.74 -1.34,1.52 -3.11,2.27 -5.29,2.27 -2.16,0 -3.93,-0.75 -5.31,-2.27 -1.38,-1.52 -2.07,-3.77 -2.07,-6.74 v -40.92 c 0,-2.68 0.63,-4.74 1.86,-6.13 1.23,-1.4 2.86,-2.09 4.88,-2.09 1.97,0 3.6,0.66 4.9,1.97 1.3,1.31 1.97,3.11 1.97,5.42 v 1.36 c 2.47,-2.97 5.13,-5.15 7.96,-6.55 2.83,-1.39 5.97,-2.09 9.43,-2.09 3.61,0 6.69,0.71 9.28,2.15 2.59,1.43 4.72,3.6 6.39,6.49 2.42,-2.93 5.01,-5.1 7.76,-6.51 2.75,-1.41 5.81,-2.13 9.18,-2.13 3.92,0 7.28,0.77 10.11,2.31 2.83,1.54 4.95,3.74 6.35,6.6 1.22,2.58 1.83,6.65 1.83,12.2 v 27.94 c 0,3.01 -0.68,5.26 -2.04,6.76 -1.36,1.5 -3.17,2.25 -5.38,2.25 -2.16,0 -3.93,-0.75 -5.31,-2.27 -1.38,-1.52 -2.08,-3.77 -2.08,-6.74 v -24.05 c 0,-3.08 -0.13,-5.53 -0.39,-7.39 -0.27,-1.84 -0.97,-3.4 -2.13,-4.67 -1.14,-1.25 -2.9,-1.88 -5.24,-1.88 -1.9,0 -3.68,0.55 -5.38,1.68 -1.68,1.11 -3,2.61 -3.95,4.51 -1.06,2.4 -1.57,6.67 -1.57,12.79 z"
   class="fil10"
   id="20" />
   <path
   style="fill:#000000;fill-rule:nonzero"
   d="m 6561.12,486.66 h -27.99 c 0.04,3.25 0.7,6.12 1.97,8.6 1.27,2.49 2.97,4.35 5.08,5.6 2.11,1.27 4.45,1.9 6.99,1.9 1.72,0 3.27,-0.19 4.69,-0.61 1.43,-0.39 2.79,-1.02 4.11,-1.88 1.34,-0.86 2.56,-1.77 3.67,-2.75 1.12,-0.98 2.58,-2.31 4.36,-3.99 0.73,-0.62 1.77,-0.95 3.13,-0.95 1.47,0 2.67,0.41 3.58,1.22 0.89,0.79 1.36,1.93 1.36,3.4 0,1.29 -0.52,2.79 -1.52,4.52 -1.02,1.72 -2.54,3.38 -4.6,4.96 -2.04,1.59 -4.6,2.91 -7.69,3.95 -3.09,1.06 -6.65,1.57 -10.66,1.57 -9.19,0 -16.33,-2.63 -21.43,-7.87 -5.1,-5.24 -7.64,-12.34 -7.64,-21.32 0,-4.22 0.63,-8.15 1.88,-11.77 1.25,-3.61 3.09,-6.71 5.49,-9.3 2.41,-2.58 5.38,-4.56 8.91,-5.94 3.52,-1.38 7.44,-2.07 11.73,-2.07 5.6,0 10.39,1.18 14.38,3.54 4.01,2.36 6.99,5.4 9,9.16 1.98,3.74 2.99,7.55 2.99,11.43 0,3.59 -1.04,5.94 -3.09,7.01 -2.06,1.06 -4.95,1.59 -8.69,1.59 z m -27.99,-8.16 h 25.93 c -0.34,-4.88 -1.66,-8.53 -3.95,-10.96 -2.29,-2.41 -5.29,-3.63 -9.03,-3.63 -3.58,0 -6.49,1.23 -8.78,3.69 -2.29,2.47 -3.69,6.1 -4.17,10.91 z"
   class="fil10"
   id="21" />
   <path
   style="fill:#000000;fill-rule:nonzero"
   d="m 6614.56,506.28 -10.37,-15.22 -10.63,15.22 c -1.54,2.13 -2.84,3.65 -3.9,4.56 -1.07,0.91 -2.42,1.36 -4.06,1.36 -1.81,0 -3.36,-0.57 -4.63,-1.7 -1.27,-1.15 -1.91,-2.43 -1.91,-3.9 0,-1.5 0.98,-3.65 2.93,-6.44 l 12.93,-18.55 -11.47,-15.47 c -1.98,-2.54 -2.99,-4.76 -2.99,-6.65 0,-1.47 0.59,-2.75 1.79,-3.83 1.18,-1.09 2.73,-1.63 4.65,-1.63 1.68,0 3.06,0.46 4.17,1.41 1.09,0.95 2.38,2.43 3.84,4.45 l 9.27,12.7 9.01,-12.7 c 1.5,-2.1 2.81,-3.6 3.9,-4.51 1.11,-0.91 2.47,-1.36 4.11,-1.36 1.88,0 3.45,0.54 4.69,1.59 1.23,1.07 1.86,2.36 1.86,3.86 0,1.09 -0.25,2.13 -0.75,3.11 -0.52,1 -1.29,2.18 -2.34,3.54 l -11.47,15.47 12.93,18.55 c 2.02,2.9 3.04,5.08 3.04,6.54 0,1.5 -0.63,2.79 -1.88,3.87 -1.27,1.09 -2.83,1.63 -4.67,1.63 -1.64,0 -3.02,-0.46 -4.17,-1.41 -1.13,-0.95 -2.43,-2.45 -3.9,-4.51 z"
   class="fil10"
   id="22" />
   <path
   style="fill:#000000;fill-rule:nonzero"
   d="m 6688.12,494.51 c 0,1.77 -0.54,3.69 -1.61,5.71 -1.05,2.02 -2.68,3.95 -4.86,5.78 -2.18,1.82 -4.93,3.31 -8.26,4.42 -3.31,1.13 -7.05,1.68 -11.21,1.68 -8.84,0 -15.74,-2.58 -20.69,-7.73 -4.97,-5.15 -7.46,-12.05 -7.46,-20.73 0,-5.87 1.14,-11.05 3.42,-15.56 2.27,-4.51 5.56,-7.99 9.85,-10.45 4.31,-2.47 9.44,-3.7 15.42,-3.7 3.7,0 7.1,0.54 10.2,1.63 3.08,1.09 5.7,2.49 7.85,4.2 2.15,1.72 3.79,3.54 4.92,5.47 1.14,1.95 1.72,3.76 1.72,5.44 0,1.72 -0.64,3.16 -1.91,4.36 -1.29,1.18 -2.83,1.77 -4.65,1.77 -1.18,0 -2.16,-0.3 -2.95,-0.91 -0.79,-0.61 -1.66,-1.59 -2.65,-2.95 -1.75,-2.65 -3.58,-4.65 -5.47,-5.97 -1.91,-1.32 -4.33,-1.99 -7.26,-1.99 -4.22,0 -7.64,1.64 -10.21,4.96 -2.59,3.29 -3.88,7.8 -3.88,13.52 0,2.68 0.34,5.15 1,7.41 0.66,2.25 1.61,4.19 2.88,5.76 1.25,1.59 2.77,2.79 4.56,3.61 1.77,0.82 3.74,1.23 5.87,1.23 2.86,0 5.31,-0.66 7.35,-1.98 2.06,-1.32 3.86,-3.36 5.44,-6.08 0.86,-1.61 1.81,-2.86 2.83,-3.76 1,-0.91 2.26,-1.38 3.72,-1.38 1.75,0 3.2,0.68 4.35,2 1.15,1.32 1.74,2.74 1.74,4.24 z"
   class="fil10"
   id="23" />
   <path
   style="fill:#000000;fill-rule:nonzero"
   d="m 6711.85,441.48 v 21.19 c 1.83,-2.09 3.6,-3.76 5.33,-4.97 1.72,-1.22 3.63,-2.15 5.72,-2.75 2.11,-0.61 4.36,-0.91 6.78,-0.91 3.63,0 6.85,0.77 9.67,2.31 2.81,1.54 5.01,3.77 6.62,6.71 1.02,1.7 1.7,3.61 2.06,5.74 0.34,2.11 0.52,4.54 0.52,7.3 v 27.42 c 0,2.86 -0.66,5.03 -1.97,6.49 -1.31,1.47 -3.06,2.2 -5.22,2.2 -4.72,0 -7.08,-2.9 -7.08,-8.69 v -24.16 c 0,-4.58 -0.68,-8.1 -2.04,-10.55 -1.36,-2.47 -3.95,-3.7 -7.76,-3.7 -2.54,0 -4.85,0.73 -6.89,2.18 -2.04,1.45 -3.58,3.41 -4.58,5.94 -0.77,2.13 -1.16,5.92 -1.16,11.38 v 18.92 c 0,2.83 -0.64,4.97 -1.91,6.46 -1.27,1.48 -3.04,2.24 -5.29,2.24 -4.7,0 -7.06,-2.9 -7.06,-8.69 v -62.02 c 0,-2.9 0.63,-5.06 1.86,-6.51 1.23,-1.45 2.97,-2.18 5.2,-2.18 2.26,0 4.03,0.73 5.29,2.2 1.27,1.47 1.91,3.63 1.91,6.49 z"
   class="fil10"
   id="24" />
   <path
   style="fill:#000000;fill-rule:nonzero"
   d="m 6798.87,504.17 c -3.47,2.68 -6.82,4.68 -10.03,6.03 -3.24,1.34 -6.87,2 -10.88,2 -3.67,0 -6.9,-0.73 -9.68,-2.18 -2.77,-1.45 -4.92,-3.4 -6.42,-5.89 -1.5,-2.49 -2.26,-5.17 -2.26,-8.07 0,-3.92 1.23,-7.24 3.72,-10 2.48,-2.77 5.9,-4.62 10.25,-5.56 0.9,-0.22 3.15,-0.68 6.74,-1.41 3.59,-0.73 6.69,-1.4 9.25,-2.02 2.56,-0.61 5.35,-1.34 8.35,-2.22 -0.18,-3.77 -0.93,-6.55 -2.27,-8.3 -1.36,-1.77 -4.13,-2.65 -8.37,-2.65 -3.63,0 -6.37,0.5 -8.19,1.52 -1.84,1 -3.42,2.52 -4.72,4.56 -1.31,2.02 -2.24,3.34 -2.77,4.01 -0.55,0.64 -1.72,0.96 -3.49,0.96 -1.61,0 -3,-0.52 -4.17,-1.56 -1.16,-1.02 -1.75,-2.34 -1.75,-3.95 0,-2.52 0.9,-4.97 2.67,-7.35 1.79,-2.38 4.56,-4.33 8.34,-5.87 3.77,-1.54 8.48,-2.31 14.11,-2.31 6.28,0 11.23,0.75 14.83,2.23 3.59,1.48 6.13,3.83 7.62,7.05 1.48,3.22 2.24,7.47 2.24,12.79 0,3.36 -0.02,6.21 -0.04,8.55 -0.02,2.34 -0.03,4.96 -0.07,7.82 0,2.68 0.45,5.49 1.34,8.41 0.89,2.9 1.32,4.77 1.32,5.61 0,1.47 -0.68,2.81 -2.06,4.01 -1.4,1.2 -2.95,1.81 -4.7,1.81 -1.47,0 -2.92,-0.68 -4.35,-2.06 -1.43,-1.38 -2.95,-3.36 -4.56,-5.97 z m -0.95,-20.73 c -2.09,0.77 -5.13,1.59 -9.14,2.43 -3.99,0.86 -6.76,1.5 -8.3,1.9 -1.54,0.41 -3,1.2 -4.4,2.36 -1.4,1.18 -2.09,2.81 -2.09,4.92 0,2.16 0.82,4.01 2.47,5.53 1.63,1.52 3.77,2.29 6.44,2.29 2.83,0 5.44,-0.63 7.82,-1.86 2.4,-1.25 4.15,-2.84 5.28,-4.81 1.29,-2.16 1.93,-5.74 1.93,-10.71 v -2.04 z"
   class="fil10"
   id="25" />
   <path
   style="fill:#000000;fill-rule:nonzero"
   d="m 6839.43,461.94 v 1.74 c 2.52,-3.33 5.28,-5.76 8.26,-7.31 2.99,-1.56 6.42,-2.32 10.3,-2.32 3.77,0 7.14,0.82 10.12,2.47 2.97,1.63 5.19,3.95 6.65,6.96 0.95,1.75 1.56,3.63 1.84,5.67 0.27,2.02 0.41,4.6 0.41,7.74 v 26.63 c 0,2.86 -0.66,5.03 -1.97,6.49 -1.31,1.47 -3.02,2.2 -5.12,2.2 -2.13,0 -3.86,-0.75 -5.21,-2.25 -1.32,-1.5 -1.98,-3.65 -1.98,-6.44 v -23.86 c 0,-4.7 -0.66,-8.32 -1.97,-10.82 -1.31,-2.49 -3.92,-3.74 -7.83,-3.74 -2.54,0 -4.86,0.75 -6.98,2.27 -2.09,1.52 -3.63,3.61 -4.6,6.28 -0.7,2.13 -1.06,6.1 -1.06,11.95 v 17.92 c 0,2.9 -0.68,5.06 -2.02,6.51 -1.34,1.45 -3.08,2.18 -5.19,2.18 -2.06,0 -3.76,-0.75 -5.08,-2.25 -1.32,-1.5 -1.98,-3.65 -1.98,-6.44 v -41.35 c 0,-2.72 0.59,-4.76 1.77,-6.1 1.2,-1.34 2.81,-2.02 4.86,-2.02 1.25,0 2.4,0.3 3.4,0.89 1.02,0.59 1.82,1.48 2.43,2.67 0.61,1.2 0.91,2.65 0.91,4.35 z"
   class="fil10"
   id="26" />
   <path
   style="fill:#000000;fill-rule:nonzero"
   d="m 6943.88,464.55 v 41.55 c 0,4.76 -0.5,8.84 -1.52,12.25 -1.02,3.43 -2.63,6.26 -4.86,8.5 -2.23,2.24 -5.17,3.9 -8.78,4.97 -3.61,1.09 -8.12,1.63 -13.49,1.63 -4.94,0 -9.34,-0.7 -13.22,-2.07 -3.87,-1.38 -6.85,-3.17 -8.96,-5.35 -2.09,-2.18 -3.13,-4.42 -3.13,-6.73 0,-1.75 0.59,-3.17 1.77,-4.28 1.2,-1.09 2.63,-1.64 4.31,-1.64 2.09,0 3.93,0.91 5.51,2.77 0.77,0.93 1.57,1.88 2.38,2.84 0.82,0.95 1.74,1.77 2.72,2.45 1,0.68 2.2,1.2 3.6,1.52 1.39,0.34 3,0.5 4.81,0.5 3.7,0 6.56,-0.52 8.6,-1.54 2.06,-1.04 3.49,-2.47 4.29,-4.33 0.82,-1.84 1.31,-3.83 1.45,-5.94 0.14,-2.11 0.25,-5.49 0.3,-10.18 -2.2,3.08 -4.74,5.42 -7.62,7.01 -2.88,1.61 -6.31,2.42 -10.28,2.42 -4.79,0 -8.98,-1.22 -12.56,-3.67 -3.58,-2.45 -6.33,-5.87 -8.24,-10.28 -1.91,-4.4 -2.88,-9.48 -2.88,-15.24 0,-4.31 0.59,-8.19 1.75,-11.64 1.18,-3.45 2.84,-6.38 5.01,-8.75 2.16,-2.38 4.65,-4.17 7.49,-5.38 2.83,-1.2 5.94,-1.81 9.32,-1.81 4.04,0 7.57,0.79 10.53,2.34 2.97,1.56 5.72,4.01 8.26,7.33 v -1.95 c 0,-2.49 0.63,-4.42 1.84,-5.78 1.22,-1.38 2.79,-2.06 4.72,-2.06 2.75,0 4.6,0.91 5.51,2.72 0.91,1.8 1.36,4.4 1.36,7.8 z m -41.42,18.13 c 0,5.8 1.27,10.18 3.79,13.15 2.54,2.97 5.8,4.45 9.82,4.45 2.36,0 4.61,-0.65 6.73,-1.91 2.11,-1.27 3.83,-3.2 5.15,-5.76 1.32,-2.58 1.99,-5.69 1.99,-9.35 0,-5.83 -1.29,-10.37 -3.84,-13.63 -2.56,-3.24 -5.94,-4.86 -10.12,-4.86 -4.08,0 -7.35,1.56 -9.82,4.67 -2.45,3.11 -3.69,7.53 -3.69,13.25 z"
   class="fil10"
   id="27" />
   <path
   style="fill:#000000;fill-rule:nonzero"
   d="m 6995.6,486.66 h -27.99 c 0.04,3.25 0.7,6.12 1.97,8.6 1.27,2.49 2.97,4.35 5.08,5.6 2.11,1.27 4.45,1.9 6.99,1.9 1.72,0 3.27,-0.19 4.69,-0.61 1.43,-0.39 2.79,-1.02 4.11,-1.88 1.34,-0.86 2.56,-1.77 3.67,-2.75 1.12,-0.98 2.58,-2.31 4.36,-3.99 0.73,-0.62 1.77,-0.95 3.13,-0.95 1.47,0 2.67,0.41 3.58,1.22 0.89,0.79 1.36,1.93 1.36,3.4 0,1.29 -0.52,2.79 -1.52,4.52 -1.02,1.72 -2.54,3.38 -4.6,4.96 -2.04,1.59 -4.6,2.91 -7.69,3.95 -3.09,1.06 -6.65,1.57 -10.66,1.57 -9.19,0 -16.33,-2.63 -21.43,-7.87 -5.1,-5.24 -7.64,-12.34 -7.64,-21.32 0,-4.22 0.63,-8.15 1.88,-11.77 1.25,-3.61 3.09,-6.71 5.49,-9.3 2.41,-2.58 5.38,-4.56 8.91,-5.94 3.52,-1.38 7.44,-2.07 11.73,-2.07 5.6,0 10.39,1.18 14.38,3.54 4.01,2.36 6.99,5.4 9,9.16 1.98,3.74 2.99,7.55 2.99,11.43 0,3.59 -1.04,5.94 -3.09,7.01 -2.06,1.06 -4.95,1.59 -8.69,1.59 z m -27.99,-8.16 h 25.93 c -0.34,-4.88 -1.66,-8.53 -3.95,-10.96 -2.29,-2.41 -5.29,-3.63 -9.03,-3.63 -3.58,0 -6.49,1.23 -8.78,3.69 -2.29,2.47 -3.69,6.1 -4.17,10.91 z"
   class="fil10"
   id="28" />
  </g>
  
  
  
  
  
  
  
  
  
  
  
  
  
  
  
  
  
  
  
  
  
  
  
  
  
  
  
  
  
  
  
  
  
  
  
  
  
  
 </g>
</svg>