<?xml version="1.0" encoding="UTF-8"?>
<!DOCTYPE svg PUBLIC "-//W3C//DTD SVG 1.1//EN" "http://www.w3.org/Graphics/SVG/1.1/DTD/svg11.dtd">
<!-- Creator: CorelDRAW 2018 (64-Bit) -->
<svg xmlns="http://www.w3.org/2000/svg" xml:space="preserve" width="4.00001in" height="3.86667in" version="1.1" style="shape-rendering:geometricPrecision; text-rendering:geometricPrecision; image-rendering:optimizeQuality; fill-rule:evenodd; clip-rule:evenodd"
viewBox="0 0 478.62 462.66"
 xmlns:xlink="http://www.w3.org/1999/xlink">
 <defs>
  <style type="text/css">
   <![CDATA[
    .fil0 {fill:#AAC8E0}
   ]]>
  </style>
 </defs>
 <g id="Layer_x0020_1">
  <metadata id="CorelCorpID_0Corel-Layer"/>
  <g id="_739661375840">
   <g>
    <path class="fil0" d="M358.17 93.33l0 0zm0 0c-2.69,-0.72 -5.56,-3.12 -7.99,-4.37 -2.96,-1.53 -3.23,-5.57 -4.22,-8.54 -2.05,-6.16 -3.91,-13.69 -6.53,-19 -1.05,-2.12 -2.77,-6.71 -5.6,-6.73 -3.92,-0.03 -1.82,6.59 -1.19,9.14 0.85,3.49 1.76,6.62 2.85,9.92 0.9,2.7 2.28,6.84 3.54,9.22 -4.33,-1.01 -1.78,-1.56 -5.67,-3.91 -2,-1.21 -3.54,-3.18 -5.52,-4.45 -5.9,-3.81 -11.01,-8.73 -16.74,-12.78l-5.85 -4.12c-15.55,-8.61 -23.02,0.97 -8.38,8.78 5.41,2.88 10.9,5.16 16.3,8.43 11.66,7.03 17.98,6.61 23.31,9.79 0.81,0.48 0.4,0.2 0.94,0.66 -7.19,0 -11.61,0.87 -16.81,2.74 -4.34,1.56 -10.58,6.72 -3.39,9.49 3.6,1.38 14.11,1.38 18.33,0.66l11.68 -2.68c1.84,-0.59 2.16,-0.74 2.16,-3.03 1.22,0.81 4.05,2.19 4.79,3.19 -3.23,0 -11.12,3.04 -13.69,4.25 -2.11,1 -4.6,1.73 -6.7,2.47 -8.7,3.09 -4.83,10.56 14.31,6.73 4.28,-0.86 9.87,-1.67 13.69,-3.86 1.77,-1.01 2.2,-1.01 3.16,-2.82 1.44,0.76 1.61,0.83 2.96,1.82 2.42,1.78 6.58,3.73 8.2,6.15 -6.77,0 -14.89,-0.21 -21.5,1.63 -2.96,0.83 -6.4,1.08 -9.39,2.18 -4.04,1.49 -3.18,4.9 0.2,6.13 8.75,3.18 21.95,1.41 30.68,-0.77 10.59,-2.64 7.03,-4.15 13.68,1.47l7.02 6.23c0.99,1.45 -0.78,1.01 -2.29,1.12 -8.68,0.65 -26.15,6.14 -34.08,9.4 -6.78,2.79 -3.24,6.49 2.89,7.33 10.02,1.37 20.22,-0.59 29.02,-4.94 1.64,-0.81 3.91,-2.43 5.26,-3.51l4.84 -3.94c1.82,2.71 6.13,6.91 8.5,9.85 1.01,1.25 2.26,2.21 2.67,3.72 -3.29,0 -35.34,2.7 -37.04,3.25 -1.39,0.45 -3.22,1.55 -2.86,3.87 0.91,5.74 20.48,7.76 25.77,6.68 4.85,-1 9.69,-4.07 13.04,-7.31 3.9,-3.77 4.1,-4.12 7.07,1.49 -2.38,3.56 -4.72,6.2 -6.52,10.23 -1.33,2.99 -3.49,10.12 -2.65,13.7 3.99,1.91 6.55,-3.13 8.49,-5.87 1.47,-2.07 4.04,-8.75 5.87,-10.09 1.02,4.39 9.72,16.94 10,33.9 0.04,2.62 -0.42,3.43 -0.42,5.99l1.2 0c0.04,-1.95 0.69,-4.37 0.8,-6.38 0.34,-6.49 -0.62,-13.69 -2.34,-19.6 -1.88,-6.47 -8.77,-20.44 -8.83,-20.69 8.61,-2.01 17.29,-6.16 23.24,-12.25 6.25,-6.39 3.22,-16.08 -14.8,-5.23 -4.31,2.6 -8,5.82 -10.54,10.2 -0.66,1.14 -0.66,0.86 -0.7,2.49l-0.8 0c-0.35,-1.33 -0.43,-0.95 -1.19,-2 -0.58,-0.8 -0.73,-1.09 -1.2,-1.99 1.97,-2.95 2.49,-1.77 4.81,-3.57 2.1,-1.63 2.65,-2.26 3.75,-5.03 1.5,-3.8 3.07,-9.26 3.7,-13.45 0.87,-5.76 1.52,-13.07 1.43,-19.37 -0.06,-3.79 0.47,-8.96 -1.32,-11.63 -3.63,0 -3.28,0.6 -5.29,2.68 -6.54,6.79 -9.11,20.56 -10.77,29.12 -0.77,4.01 -1.89,9.3 -1.89,14.06l-9.17 -10.37c2.7,-0.72 3.52,-6.81 4.29,-10.47 0.95,-4.51 1.61,-7.85 2.33,-12.83 0.92,-6.38 0.17,-15.32 -1.06,-21.35 -0.67,-3.3 -0.85,-2.93 -2.37,-5.21 -4.4,0 -5.27,2.97 -6.73,6.83 -2.58,6.84 -4.87,14.7 -5.23,22.29l0.4 12.76c-1.95,-1.3 -4.3,-4.19 -6.38,-5.58 3.15,-4.7 -1.07,-19.46 -1.19,-28.32 -0.03,-2.08 -0.46,-5.5 -0.69,-7.29 -0.51,-3.93 -0.13,-19.8 -6.63,-17.21 -2.55,1.02 -3.96,8.31 -4.23,11.75 -0.64,8.22 0.74,14.98 1.16,22.73 0.34,6.1 1.75,9.97 -0.68,8.75 -0.81,-0.4 -1.44,-1.12 -2.34,-1.75 -1.79,-1.24 -3.27,-2.3 -4.95,-3.43 1.88,-3.56 1.38,-3.51 1.2,-7.18 -0.48,-9.53 -2.86,-26.31 -7.19,-33.89 -1.94,-3.4 -5.08,-4.42 -6.78,-0.02 -1.43,3.7 -1.94,12.89 -1.51,17.44 0.63,6.64 0.71,9.18 2.32,16.07z"/>
    <path class="fil0" d="M288.37 167.91l0 0zm0 0c-6.01,-6.92 -2.47,-3.97 -11.27,-12.66 -5.6,-5.54 -3.31,-4.99 -13.33,-10.6 -6.2,-3.47 -22.76,-8.27 -30.79,-11.11 -2.36,-0.84 -2.07,-0.85 -4.03,0.47 0.06,2.62 1.08,2.82 2.5,4.28l3.39 3.79c0.8,0.86 0.84,1.14 1.6,1.99 8.26,9.27 12.37,16.86 25.61,20.26 5.5,1.41 9.42,0.55 16.36,5.18l9.59 5.97c0.77,0.57 0.69,0.37 0.79,3.98 0.07,2.35 -0.01,4.84 -0.01,7.2 -1.05,-0.7 -1.64,-1.81 -2.39,-2.8 -0.76,-1 -1.48,-1.8 -2.52,-2.67l-18.75 -13.55c-6.84,-3.68 -11.69,-3.16 -16.59,-4.55 -2.92,-0.83 -4.98,-1.91 -7.86,-2.91 -8.55,-2.98 -6.75,0.12 -4.14,4.94 3.52,6.49 6.74,9.81 13.29,13.44 3.39,1.88 6.55,4.29 10.19,5.76 12.6,5.1 12.02,3.05 21.6,5.52 1.82,0.47 3.83,1.58 5.39,2.59 1.14,0.73 0.34,0.63 1.78,1.01 0,8.36 1.2,14.76 1.2,19.54 -15.46,-8.18 -12.59,-4.43 -21.49,-7.63 -3.57,-1.29 -6.55,-2.76 -9.7,-4.65 -2.78,-1.66 -6.46,-4.56 -10.29,-3.67 -0.72,3.1 0.11,3.88 1.27,6.31 5.38,11.3 20.34,20.11 32.88,17.07 5.66,-1.37 4.45,-0.24 7.73,-0.24 0,6.83 1.92,10.36 1.99,13.56 -12.79,-6.77 -20.14,3.93 -32.19,-0.92 -5.06,-2.04 -5.81,0.88 -1.78,4.57 3.86,3.53 12.21,7.4 17.06,8.87 13.39,4.05 12.88,-5.21 18.5,-5.34 0.67,1.26 0.9,2.22 1.48,3.71 0.57,1.48 1.09,2.62 1.71,3.87 3.18,6.34 10.67,14.93 16.75,16.35 -1.11,-2.1 -7.37,-8.49 -9.29,-11.05 -1.94,-2.6 -6.35,-9.94 -6.66,-13.68 5.18,-1.21 11.5,-6.37 13.62,-11.11 2.19,-4.9 1.42,-5.99 2.22,-10.15 1.07,-5.58 1.58,-4.83 4.63,-8.16 2.42,-2.64 -0.53,-5.32 -4.42,-1.6 -2.23,2.13 -4.68,3.34 -7.36,5.01 -2.46,1.54 -5,3.41 -6.76,5.6 -1.68,2.08 -4.05,5.14 -4.73,8.04l-0.8 0c-0.06,-2.78 -1.2,-6.11 -1.2,-9.17 1.68,-0.45 13.41,-8.74 15.68,-11.84 0.73,-1 1.02,-1.6 1.72,-2.67 4.53,-6.98 5.93,-17.69 7.73,-24.58 0.84,-3.24 2.36,-3.54 1.6,-6.77 -2.76,-0.64 -3.2,-0.04 -4.37,2.01 -0.97,1.69 -1.93,2.94 -3.14,4.43 -0.62,0.76 -1.1,1.11 -1.71,1.88 -7.48,9.3 -10.3,7.59 -17.88,21.2l-0.8 1.19c0,-3.93 -0.42,-4.45 -0.4,-8.37 0.01,-3.33 0.01,-6.65 0.01,-9.98 1.32,-0.11 3.62,-0.87 5.11,-1.27 8.26,-2.21 13.54,-8.57 17.23,-15.88 0.75,-1.49 4.23,-8.53 2.79,-9.97 -2.02,-2.02 -6.62,3.63 -8.24,5.32 -1.06,1.1 0.03,0.57 -1.33,1.06l4.14 -10.62c0.66,-1.97 1.06,-3.45 1.67,-5.51 0.62,-2.12 1.2,-3.74 1.82,-5.76 0.57,-1.86 1.08,-3.44 1.83,-5.35 0.98,-2.51 5.01,-10.26 -1.37,-8.99 -8.13,1.61 -23.64,34.09 -23.64,43.41l-0.4 0c0,-3.02 -0.25,-6.33 0.44,-8.74 0.63,-2.2 1.16,-5.67 1.49,-8.08 0.2,-1.43 0.29,-2.8 0.62,-4.17 0.49,-2.03 0.92,-1.54 1.83,-2.96 2.36,-3.68 3.82,-9.75 4.88,-14.26l4.22 -19.76c0.21,-1.89 -0.42,-2.42 -1.12,-3.46 -2.94,0 -3.71,0.64 -5.02,2.56 -4.53,6.63 -9.5,20.86 -9.75,28.94 -0.14,4.5 0.07,3.51 1.24,6.39 0.66,1.62 -0.43,3.99 -0.43,6.78l-0.8 0c-0.54,-2.3 -1.29,-3.39 -2.28,-4.9l-2.16 -5.42c-0.47,-1.24 -1.03,-2.18 -1.6,-3.59l-6.32 -14.02c-2.99,-6.09 -8.45,-9.6 -11.62,-13.51 -0.93,-1.14 -1.36,-1.77 -3.2,-2.03 -4.05,-0.58 -4.45,2.25 -3.72,6.15 1.2,6.4 5.91,15.09 9.23,20.69 1.44,2.42 2.66,3.88 4.34,6.03 1.69,2.15 2.74,3.43 4.65,5.32 1.77,1.75 6.36,5.14 8.82,6.33 1.71,0.82 1.94,0.7 2.51,2.67 0.91,3.14 0.94,5.51 0.94,9.43z"/>
    <path class="fil0" d="M93.73 423.58l0.12 0.12c-0.01,-0.01 -0.16,-0.08 -0.12,-0.12zm-0.4 -16.35c0.47,0.75 0.45,-0.89 0.33,0.8 -0.06,0.85 -0.05,0.36 -0.33,0.8l0 -1.6zm-13.16 -13.56l0 0zm13.16 13.56c-0.79,-1.14 -2.12,-6.32 -2.54,-7.83l-1.85 -8.92c1.52,1.75 4.39,14.85 4.39,16.75zm-4.79 -17.55c0,-1.02 0.63,-0.06 0.24,0 -0,0 -0.24,1.11 -0.24,0zm-0.4 -1.6c0,-1.02 0.63,-0.06 0.24,0 -0,0 -0.24,1.11 -0.24,0zm28.32 -4.79l0 0zm-36.3 10.37c-2.24,-0.6 -9.16,-6.4 -11.57,-7.98 -7.58,-4.97 -9.65,-7.39 -19.94,-9.18 -3.38,-0.59 -5.72,-0.78 -7.09,2.09 -8,16.81 41.17,22.3 43.17,24.05 0.85,0.74 3.12,4.6 4.09,5.88 2.08,2.76 2.17,2.54 3.01,6.56 0.46,2.23 1.7,5.77 1.89,8.08 -2.17,-2.5 -1.13,-2.94 -6.04,-8.31 -3.29,-3.6 -7.7,-6.04 -11.88,-8.46l-12.13 -5.42c-6.2,-2.08 -18.5,-5.82 -23.25,0.4 -5.41,7.07 13.04,11.88 19.12,14.5 2.64,1.14 5.33,2.68 7.91,3.66l8.88 3.08c3.22,0.91 6.4,1.08 9.31,2.26 0.82,0.33 1.19,0.56 1.91,0.89 0.95,0.44 1.4,0.55 2.18,1.01 1.04,0.63 2.51,1.76 3.22,2.77 2.3,3.26 3.58,4.94 3.59,7.97 0.02,4.39 0.38,7.54 0.38,11.59 -0.5,-0.58 -0.16,-0.1 -0.65,-0.94 -1.43,-2.44 -0.47,-1.3 -2.81,-3.17 -1.42,-1.13 -2.77,-2.3 -4.28,-3.29 -5.3,-3.48 -9.15,-3.16 -13.17,-5.58l-7.39 -4.18c-1.06,-0.64 -8.41,-6.54 -9.53,-0.68 -0.35,1.85 0.77,4.88 1.44,5.98 4.46,7.28 17.03,11.49 25.33,12.56 2.97,0.38 5.73,-0.42 8.96,2.6 1.11,1.04 0.8,1.1 2.5,1.49 0,3.49 0.4,5.69 0.4,8.77l4.39 0c-0.4,-1.72 -0.61,-5.32 -0.78,-7.2 -0.98,-11.01 4.42,2.09 13.61,-9.48 1.99,-2.51 4.18,-7.22 5.21,-10.75 1.12,-3.82 2.27,-9.03 1.11,-14.05 -3.88,-1.86 -3.6,1.62 -4.39,3.19 -1.07,2.12 -11.02,6.79 -13.87,9.26 -0.21,0.18 -0.41,0.35 -0.63,0.56l-1.84 1.75c0,-1.64 -0.32,-2.05 -0.4,-3.59 -0.07,-1.41 0.1,-2.96 -0.02,-4.37 -0.16,-2 -0.73,-5.6 -0.78,-7.6 1.9,-0.16 12.26,-6.66 14.21,-8.13 1.62,-1.23 8.61,-10.55 10.04,-12.69 4.2,-6.25 7.63,-15.99 10.1,-23.4 1.1,-3.3 2.45,-5.69 0.35,-8.83 -3.19,0 -3.03,1.5 -6.89,5.48 -2.01,2.07 -2.47,3.32 -6.18,6.59 -0.92,0.81 -1.26,0.88 -2.2,1.79 -0.91,0.89 -1.27,1.42 -2.29,2.1 0.08,-3.43 3.19,-9.49 3.19,-16.35 -3.17,-2.12 -5.69,-0.47 -9.08,2.88 -6.69,6.61 -8.89,14.78 -12.99,22.91l-2.13 5.05c-0.03,0.06 -0.07,0.19 -0.13,0.27 -0.2,-2.34 -1.53,-4.81 -1.99,-6.78 0.59,-0.88 0.72,-0.8 1.33,-1.86 3.53,-6.12 18.45,-45.06 5.95,-42.35 -3.52,0.76 -7.55,8.93 -8.87,11.91 -2.06,4.68 -3.39,11.64 -3.55,17.18l0.35 5.15c-0.33,-0.17 -0.83,-0.55 -1.26,-0.53 -0.73,0.04 0.08,-0.25 -0.6,0.27l-0.53 0.65c-0.16,-1.99 -1.11,-3.73 -1.86,-5.32 -3.52,-7.5 -5.95,-18.42 -14.01,-23.48 -3.48,-2.19 -6.24,-4.24 -9.02,0.72 -2.77,4.94 4.3,17.54 6.86,21.78 4.95,8.2 7.32,9.33 12.05,18.27z"/>
    <path class="fil0" d="M147.18 102.5l0.12 0.12c-0.01,-0.01 -0.16,-0.08 -0.12,-0.12zm33.9 -0.8l-0.4 -0.4 0.4 0.4zm-5.98 0l0 0zm5.58 -0.4l0 0zm-20.74 -22.73l0 0zm0 0c-1.31,-0.35 -5.59,-3.99 -9.83,-6.12 -4.65,-2.33 -7.16,-2.34 -13.08,-3.27 -4.87,-0.77 -8.91,-1.74 -13.44,-2.52 -2.17,-0.37 -4.79,-0.74 -7.44,-0.37 -0.9,0.12 -2.18,0.47 -2.97,1.01 -1.07,0.74 -1.46,1.19 -1.5,2.89 4.62,0 4.81,1.03 6.11,1.47l6.57 1.41c8.84,2.07 15.39,4.44 23.86,7.25 2.08,0.69 4.16,1.3 6.14,1.84 3.28,0.89 2.97,0.87 5.18,2.79 -5.18,0 -10.37,0 -15.56,0 -7.34,0 -23.12,0.08 -29.24,2.67 -2.84,1.2 -8,4.69 -8.25,7.7 2.76,-0.74 0.56,-1.88 5.92,-3.65 1.96,-0.65 5.36,-1.54 8.04,-1.54 0,1.57 0.13,1.62 0.4,2.79 6.44,0.54 9.81,-1.14 21.37,0.56 2.28,0.34 4.72,1.03 6.94,1.03l0 0.4c-3.18,0 -9.94,2.18 -13.11,3.24 -4.42,1.47 -7.83,2.83 -11.89,4.86 -4.55,2.27 -11.33,6.98 -14.02,11.11 -2.56,3.94 -1.51,3.93 -2.46,5.91 0.91,-0.33 0.31,-0.13 0.94,-0.66l7.04 -5.32c1.31,-0.99 2.37,-1.93 4.15,-2.63 8.31,-3.28 12.63,-4.66 21.21,-7.11 1.74,-0.5 3.99,-1.28 5.76,-1.42 -4.34,3.78 -17.32,7.47 -29.04,24.8 -1.73,2.56 -5.98,8.24 -6.06,11.89 2.46,-1.3 6.64,-6.58 8.55,-9 2.13,-2.7 7.96,-9.19 10.78,-11.56l18.57 -12.54c-0.71,3.06 -6.9,11.31 -10.08,27.81 -0.45,2.33 -0.87,5.32 -1.1,8.07 -0.44,5.26 -0.97,2.03 -0.22,8.22 0.3,2.47 -0.19,10.52 3.24,9.91 3.12,-0.56 4.65,-13.8 5.76,-17.73 0.34,-1.19 0.8,-2.41 1.16,-3.63 0.37,-1.28 0.68,-2.35 1.07,-3.72 2.61,-9.17 4.6,-12.35 7.92,-20.4l5.81 -13.33c0,8.42 -0.28,22.13 -3.6,29.5 -0.59,1.3 -1.28,2.37 -1.24,4.42 0.05,2.51 0.85,2.38 3.25,2.38 3.06,-4.58 4.85,-12.57 5.95,-17.99 0.42,-2.1 1.18,-4.83 1.23,-7.14 1.43,0.96 5.82,8.89 6.76,10.79 0.93,1.88 1.28,1.97 4.01,1.97l1.11 -1.28c0.83,-2.15 -2.7,-14.08 -3.75,-17.22 -0.5,-1.5 -1.64,-4.15 -1.75,-5.43 3.5,2.57 10.71,17.17 12.13,23.76 0.41,1.9 0.47,3.19 0.76,5.24 0.64,4.49 -0.85,3.17 -0.13,4.9 1.79,-1.31 2.87,-5.42 2.82,-8.78 -0.05,-3.05 -1.2,-7.34 -1.97,-9.62 -1.67,-4.98 -3.67,-9.17 -6.46,-13.48 -0.72,-1.12 -0.8,-0.66 -1.17,-2.02 1.67,1.12 4.85,4.86 6.48,6.68 0.68,0.77 0.73,1 1.41,1.78 7.76,8.91 9.32,14.17 15.64,21.45 0,-3.95 -1.09,-7.6 -2.52,-10.24 -3.32,-6.12 -5.93,-9.66 -10.37,-15.16 -1.05,-1.3 -1.79,-2.26 -2.96,-3.42 -1.11,-1.09 -2.47,-1.89 -2.89,-3.49 2.6,1.25 10.26,3.46 13,4.15 2.08,0.52 5.2,1.34 7.34,1.44 1.4,0.07 2.98,-0.02 4.41,-0.02 2.08,0 2.43,0.28 3.97,0.41l0 -0.8c-8.05,-1.87 -20.81,-7.57 -29.28,-10.61 -1.22,-0.44 -1,-0.24 -1.83,-0.96 7.2,0 13.61,-0.56 19.29,-2.25 4.32,-1.28 12.64,-4.41 13.02,-8.92l-8.82 2.75c-2.86,0.92 -6.35,1.72 -9.22,2.34 -10.43,2.26 -12.58,0.89 -21.44,0.89 1.72,-1.49 3.47,-1.22 7.7,-4.66 2.51,-2.04 4.12,-3.67 6.09,-6.27 1.88,-2.49 3.07,-5.04 4.21,-8.16 0.98,-2.68 2.37,-8.13 -0.45,-10.03 -2.04,1.49 -2.44,8.03 -7.75,15.39 -3.07,4.26 -8.04,8.4 -13.79,9.74l3.83 -10.93c2.64,-9.38 2.14,-11.24 3.25,-19.49 0.51,-3.8 1.74,-17.35 -3.08,-18.64 -0.91,1.36 -0.88,1.91 -1.1,3.69l-3.03 30.08c-0.03,0.08 -0.1,0.21 -0.13,0.27 -0.03,0.06 -0.08,0.18 -0.13,0.27 0,-2.66 0,-5.32 -0,-7.98 -0.02,-7.23 2.29,-6.9 -4.78,-17.55 -1.87,-2.82 -9.55,-14.99 -13.2,-14.59 -1.12,0.12 -0.44,1.13 -0.05,2.26 2.58,7.4 13.72,18.65 14.05,25.88l-0.51 18.65c-0.13,0.98 -0.6,2.5 -0.7,3.7l-3.93 -5.24c-3.16,-3.89 -10.25,-10.9 -14.25,-13.66 -4.13,-2.86 -7.12,-4.63 -13.2,-5.55 -4.89,-0.74 -12.04,1.07 -14.08,4.12 6.62,1.54 14.1,-2.15 23.99,5.12 4.18,3.07 11.91,10.27 14.69,14.42z"/>
    <path class="fil0" d="M285.58 329.45l0 0zm-6.78 -23.53c-0.83,1.23 -1.19,0.89 -1.6,2.39l-0.8 0c-0.11,-1.24 0.01,-0.75 -0.4,-1.6l2.79 -0.8zm0 0l0 0zm6.78 23.53c2.1,0.49 5.56,1.94 9.1,1.55 10.47,-1.15 16.28,-2.66 25.18,-7.95 10,-5.95 17.26,-18.56 19.52,-29.54 0.46,-2.22 3.76,-7.53 -0.35,-7.5 -1.97,0.02 -2.26,1.36 -2.75,2.81 -1.39,4.04 -8.19,8.05 -12.01,9.93 -11.81,5.82 -23.86,2.5 -34.42,3.87 -1.46,0.19 -3.96,0.49 -5.07,0.51 5.37,-5.09 1.09,-17.78 -0.72,-25.21 -1.41,-5.78 -3.95,-12.17 -5.51,-18.42 -0.55,-2.2 -0.85,-4.52 -1.75,-6.22 -2.07,0 -2.63,-0.02 -2.82,1.97 -0.32,3.25 1.63,4.71 -1.21,13.53l-6.34 15.2c-0.43,-1.84 -3.06,-5.89 -4.39,-6.78 1.05,-1.57 1.4,-2.37 0.39,-4.36l-6.9 -12.67c-7.12,-12.78 -14.93,-6.09 -8.49,5.3 1.56,2.75 3.41,5.31 6.06,7.11 0.89,0.6 1.08,0.66 1.86,1.33 0.35,0.31 0.45,0.42 0.83,0.77l0.83 0.76c2.2,2.21 4.2,4.87 5.69,7.87 1.24,2.5 3.51,6.43 4.12,9.05 -5.24,-3.51 -13.54,-8.38 -20.34,-8.38 -1.72,2.57 -1.63,3.85 2.11,8.26 1.79,2.11 4.32,4.57 6.55,6.21 4.27,3.15 11.67,8.66 17.27,8.66 0.17,2 1.74,5.61 2.45,7.52l2.73 7.24c-3.62,-0.3 -6.26,-1.4 -10.06,4.3 -4.15,6.22 -5.67,21.92 -16.31,22.18 -3.22,0.08 -2.82,-1.44 -5.93,0.65 0,2.81 1.17,3.41 3.74,3.84l6.87 1.11c3.71,0.81 10.34,1.52 14.24,0.75 6.08,-1.2 11,-4.13 14.18,-8.96 1.35,-2.06 1.47,-3.45 2.46,-5.52 1.11,0.74 2.3,2.8 3.19,3.99l8.65 9.29c0.79,0.66 1.2,1.1 1.72,1.87 -2.16,0 -5.47,-0.19 -7.49,0.09 -3.37,0.47 -4.07,1.45 -4.07,3.9 2.12,1.42 2.68,1.22 5.64,1.54 4.28,0.46 10.76,-1.18 13.11,-0.38 3.35,1.14 7.82,4.67 15.43,6.14l12.48 1.88 0 -1.2c-7.38,-0.61 -18.19,-5.33 -23.93,-9.17 3.7,-7 7.98,-9.28 7.98,-13.96 -1.89,-1.64 -3.06,-1.81 -5.23,0.36 -2.01,2.01 -6.56,7.55 -7.14,10.01 -1.55,-0.13 -0.78,0.16 -3.47,-2.11 -5.24,-4.43 -16.29,-17.12 -17.67,-23.02z"/>
    <path class="fil0" d="M49.46 193.04l-0.4 -0.4 0.4 0.4zm-0.4 -0.4l0 0zm0.4 0.4c1.83,0.43 4.61,2.5 6.51,3.46 13.4,6.7 14.41,4.05 23.17,6.74 2.85,0.87 5.41,9.74 13.95,15.96 11.33,8.25 7.79,-5.56 2,-9.98 -1.23,-0.94 -2.17,-1.84 -2.96,-3.02 4.11,0.34 8.92,2.24 12.62,3.34l6.42 1.55c1.59,0.56 2.92,2.5 4.19,3.79 4.84,4.88 14.19,11.76 21.44,10.07 0.67,-2.88 0.1,-3.36 -1.69,-5.09 -3.75,-3.64 -8.41,-7.6 -13.87,-8.87l13.8 -4.95c2.98,-1.13 10.16,-4.81 8.14,-9.01 -1.81,-1.81 -23.02,5.24 -26.16,6.54 -2.67,1.11 -5.74,2.57 -5.74,5.82 -1.63,-0.86 -3,-1.53 -4.9,-2.28 -1.73,-0.69 -3.97,-1.39 -5.47,-2.11 0.8,-1.08 3.88,-2.57 5.25,-3.13 1.92,-0.79 3.91,-2.08 5.6,-3.17 1.55,-1 4.53,-2.02 4.26,-4.4 -0.3,-2.57 -5.15,-1.73 -7.14,-1.67 -4.91,0.15 -10.57,0.86 -15.06,2.09 -4.05,1.11 -9.15,3.17 -11.25,6.3 -3.08,-0.72 -6.6,-1.86 -9.67,-2.29 -7.68,-1.07 -14.05,-3.61 -20.47,-7.85 -1.75,-1.16 -3.36,-1.81 -5.01,-2.96 -2.61,-1.81 -8.24,-7.01 -9.11,-7.24 0.85,-1.16 0.24,-0.65 2.19,-1 8.97,-1.61 11.77,3.21 20.15,3.4 0.1,4.64 10.55,12.68 15.19,12.78 1.69,0.04 1.92,-0.56 3.16,-1.21 0,-4.41 -1.47,-5.71 -5.09,-8.87 -1.17,-1.02 -1.6,-0.98 -2.49,-2.3 4.68,0 6.18,-1.46 10.18,-2.18 2.09,-0.38 4.04,-0 6.08,-0.3 4.15,-0.62 11.14,-2.12 14.63,-4.52 2.1,-1.45 6,-4.19 3.9,-7.42 -2.1,-3.22 -5.65,-2.46 -9.94,-1.82 -3.2,0.48 -6.83,1.86 -9.56,3.21l-5.89 3.68c-3.2,2.13 -6.5,5.27 -10.59,5.36 1.36,-1.86 12.76,-6.35 12.76,-13.96 -3,-2.01 -3.93,-1.67 -7.53,-0.35 -4.72,1.73 -9.07,4.72 -12.98,7.76 -2.01,1.56 -3.95,3.45 -4.21,6.56 -4.28,-0.36 -6.24,-3.11 -10.75,-3.21 -5.33,-0.12 -8.8,-0.12 -11.98,2.01 -1.04,-1.56 -3.06,-2.41 -3.59,-4.39 2.04,-0.48 5.27,-2.45 8.69,-3.28 2.14,-0.52 4.88,-0.83 7.09,-1.69 1.63,-0.64 0.76,-0.32 2.56,-0.63 1.99,-0.34 2.1,-1.2 4.22,-1.76 1.79,-0.48 3.18,-0.66 4.94,-1.04 10.1,-2.17 10.94,-10.88 4.31,-11.88 -4.32,-0.65 -9.9,2.99 -12.04,6.14 -0.92,1.35 -1.28,2.67 -2.14,3.84 -1.73,2.35 -5.03,3.43 -8.85,3.52 1.25,-1.87 2.4,-3.46 3.36,-5.81 1.58,-3.82 1.82,-2.27 1.82,-7.75l-1.28 -1.11c-2.59,-0.09 -3.65,0.2 -5.02,1.59 -0.98,0.99 -2.03,2.68 -2.65,4.13 -1.22,2.85 -3.29,8.15 -1.42,10.95 -2.92,0.24 -3.99,2.55 -6.38,3.19 -2.4,-1.61 -3.89,-4.11 -7.18,-4.39 0,3.06 1.47,2.84 3.89,5.29 1.74,1.76 3.22,2.84 5,4.58 1.97,1.93 1.84,3.94 2.73,6.44 2.48,6.92 1.45,1.22 -2.5,13.16 -0.56,1.69 -2.35,5.58 -1.17,7.66 1.71,3.02 7.61,1.73 7.61,-9.2 1.75,1.17 5.23,6.34 6.46,8.29 3,4.77 2.71,4.67 2.71,12.05 -0,4.89 0.03,9.81 2.46,12.3 1.45,1.49 3.6,1.87 4.98,-0.07 2.31,-3.24 1.07,-8.73 0.43,-12.52 -0.34,-2.03 -1.16,-7.37 -2.27,-8.9 -0.95,-1.32 -1,-0.6 -2.14,-1.45 -0.94,-0.7 -4.86,-7.06 -6.08,-8.68 -2.96,-3.93 -7.72,-9.43 -8.15,-14.59 1.36,0.91 2.25,2.11 3.48,3.3 2.09,2.02 4.08,2.84 5.43,5.34 0.55,1.01 0.87,1.35 1.46,2.13 1.05,1.38 2.01,2.65 3.13,4.05 1.27,1.58 5.36,5.67 7.01,6.95 2.57,1.99 5.44,4.69 8.21,6.15l0.43 7.58c0.13,3.68 -1.98,5.88 -3.5,8.89 -0.49,0.97 -0.73,1.78 -1.07,2.92 -0.89,2.95 -2.24,11.27 -0.5,13.97 1.34,2.08 3.67,2.52 4.94,0.04 1.27,-2.48 1.69,-11.14 1.69,-15.06 1.24,0.91 1.92,3.47 2.65,4.93 0.96,1.89 1.93,3.15 3.09,4.89 1.05,1.58 5.38,9.38 7.82,6.94 2.24,-2.24 -5.09,-12.79 -6.25,-15.29 -0.34,-0.74 -0.54,-1.28 -0.87,-1.92 -1.21,-2.3 -4.29,-7.04 -4.86,-9.11 -0.13,-0.49 -0.39,-3.4 -0.39,-4.79 3.84,0 5.4,3.09 8.77,3.99 -1.15,2.17 -0.67,3.04 -0.01,5.59 0.49,1.87 1.13,3.67 1.67,5.51 2,6.75 -1.58,9.19 8.54,19.37 9.74,9.79 18.13,5.91 10.6,-3.42 -2.2,-2.72 -5.47,-4.29 -8.33,-6.43 -3.07,-2.3 -5.72,-3.92 -7.04,-7.71 -1.24,-3.54 -2.59,-7.68 -3.44,-11.32 1.08,0.29 4.35,2.17 5.58,2.79 2.02,1.02 3.84,1.69 6.18,2.6 3.14,1.22 1.18,2.38 4.92,3.85l6.68 2.09c4.79,1.81 14.95,7.15 20.19,5.51 7.5,-2.35 -1.29,-12.79 -7.27,-13.24 -9.08,-0.7 -17,1.95 -24.68,-0.85 -5.96,-2.17 -9.26,-4.62 -14.43,-7.5l-2.76 -1.62c8.14,-0.18 9.13,-7.34 1.04,-6.17 -3.76,0.54 -4.4,0.03 -7.02,1.78 -3.35,-2.25 -6.21,-4.88 -9.4,-7.35 -2.15,-1.67 -6.7,-6.45 -8.14,-8.61z"/>
    <path class="fil0" d="M293.55 0.4c-4.68,0 -8.44,0.22 -12.64,2.51 -8.55,4.67 -5.65,12.98 -0.12,13.44 -1.5,2.05 -9.72,2.49 -12.13,9.01 -1.01,2.74 -2.95,8.69 0.96,9.74 -0.79,2.96 -8.21,5.93 -10.03,17.09 -0.61,3.78 -1.55,7.82 -0.5,11.79 0.5,1.9 1.58,2.82 2.85,3.93 2.47,2.17 4.29,2.29 7.29,2.29 2.99,0 7.03,-5.38 8.46,-7.49 5.24,-7.77 3.83,-10.46 11.25,-20.66 2.31,-3.17 4.37,-6.72 7.81,-8.54 0,4.29 -0.44,7.84 1.04,10.92 3.39,7.07 12.98,8.07 15.46,-1.6l1.84 -12.12c0,2.98 0.59,6.24 1.47,8.51 2.88,7.43 9.2,5.7 11.07,-3.15 0.87,-4.11 0.96,-8.22 3.82,-10.14 1.28,15.33 12.82,12.62 12.78,2.81 -0.09,-21.48 3.4,-13.29 7.05,-21.26 0.74,-1.63 1.97,-2.9 3.25,-3.93 2.76,-2.23 2.18,-3.29 0.45,-3.54l-1.89 0c-1.07,0.11 -2.25,0.39 -3.3,0.79 -4.42,1.7 -6.59,2.02 -9.21,0.04 -0.6,-0.45 -1.13,-0.7 -1.71,-0.84l-5.84 0 -33.01 0.06c-2.14,0.47 0.63,-0.17 -0.95,0.53 -1.29,0.57 -2.61,-0.19 -5.52,-0.19z"/>
    <path class="fil0" d="M58.23 276.4c-1,-1.89 -4.48,-7.58 -7.18,-7.58 -4.47,0 -3.57,5.19 -1.93,7.91 1.9,3.15 3.52,5.31 6.72,6.84 -0.43,1.83 -1.12,3.82 -3.19,3.99 -0.51,-6.07 -9.97,-13.06 -9.97,-5.58 0,4.56 4.57,8.49 7.98,10.77 -0.6,2.25 -3.21,5.98 -4.7,8.06l-0.88 1.11c0,-6.04 -0.55,-7.8 -2.04,-12.31 -1.57,-4.73 -2.41,-9.22 -7.13,-9.22 -6.71,0 -3.1,26.23 3.59,30.71 -0.81,1.22 -2.19,4.05 -3.19,4.79 -0.15,-1.74 -5.9,-14.36 -9.97,-14.36 -5.51,0 -0.04,13.39 0.53,14.63l4.66 8.11 -2.8 4.38c-0.29,0.48 -0.02,0.1 -0.47,0.73 -0.3,0.42 -0.48,0.6 -0.72,0.88 -0.88,-3.79 -5.6,-11.97 -9.97,-11.97 -3.25,0 -3.19,4.04 -3.19,6.38 0,4.28 4.9,12.12 8.38,13.96 -0.84,3.61 -3.93,6.32 -4.79,9.97l-0.8 0c-0.44,-1.63 -1.74,-2.37 -3.02,-3.36 -3.89,-3.03 -9.03,-7.4 -14.13,-7.4l0 0.45c0.01,9.23 0.27,3.94 2.45,8.67 1.09,2.36 1.07,2.48 3.14,4.04 1.33,1 2.05,2.3 3.27,3.51 1.04,1.02 2.82,2.49 4.3,2.88 -0.24,2.84 -2.1,4.62 -2.79,7.58 -4.55,0 -6.23,1.2 -10.37,1.2l0 14.76 3.99 0c-0.15,1.86 -2.35,8.9 -3.38,10.58 -0.3,0.5 -0.5,1.07 -0.61,1.68l0 6.08c0,7.58 0,15.16 0,22.73 4.62,0 10.22,0.01 14.43,-0.72 12.5,-2.17 5.06,-14.98 -9.4,-10.99 -1.58,0.43 -2.48,1.03 -3.84,1.34 1.62,-3.39 1.09,-9.22 2.79,-12.76 8.41,0 21.54,5.52 21.54,-1.6 0,-2.37 -5.51,-4.24 -7.83,-4.93 -3.94,-1.17 -6.74,-1.45 -11.71,-1.45 0.34,-4.09 3.4,-9.73 4.39,-13.96 1.99,1.33 14.43,13.09 16.5,6.53 1.15,-3.65 -10.93,-12.62 -12.91,-15.31 0.39,-1.67 1.35,-3.37 1.99,-4.79 0.54,-1.2 1.9,-3.91 2,-5.18 5.16,1.2 5.74,3.59 13.16,3.59 8.41,0 10.49,-7.4 1.16,-10.33 -2.9,-0.91 -6.19,-1.64 -9.93,-1.64 0.42,-1.81 1.29,-2.59 2.13,-4.25 0.83,-1.64 1.46,-3.02 2.25,-4.53 1.26,0.85 0.47,0.92 1.94,1.04 1.1,0.09 0.48,-0.34 2.4,0.18 1.76,0.48 3.09,0.99 5.24,1.17 3,0.25 9.17,0.79 9.17,-3.59 0,-4.59 -10.03,-5.18 -15.16,-5.18 1.47,-2.79 2.91,-5.19 4.39,-7.98 1.88,0.16 5.35,1.6 7.32,2.25 14,4.57 16.79,-2.15 9.55,-5.56 -2.96,-1.39 -9.96,-2.74 -13.68,-1.87 1.31,-1.96 5.11,-7.52 5.58,-9.57 2.17,0.05 4.85,0.72 7.18,0.8 3.12,0.1 13.56,2.17 13.56,-3.19 0,-4.18 -6.95,-5.74 -10.37,-6.01 -1.12,-0.09 -1.57,-0.17 -2.28,-0.15 -0.63,0.03 -1.58,0.17 -2.5,0.17 0.88,-1.67 1.61,-2.87 2.62,-4.56 0.87,-1.45 2.22,-3.13 2.57,-4.61l7.58 0.8c2.52,0 5.18,-1.54 5.18,-3.59 0,-3.68 -4.98,-3.59 -8.77,-3.59l2.79 -5.98c3.02,0 10.77,2.05 10.77,-3.19 0,-3.96 -4.79,-3.59 -7.58,-3.59 0.04,-1.75 0.27,-1.24 0.4,-2.79 3.51,0 15.56,-0.48 15.56,-5.58 0,-5.55 -6.61,-6.83 -11.41,-5.83 -1.95,0.41 -2.59,1.42 -4.14,1.84 -2.43,-4.59 -9.63,-10.3 -11.33,-5.32 -0.39,1.13 0.17,2.17 0.68,3.2 1.41,2.9 3.29,5.47 5.18,7.99 1.69,2.27 2.64,2.96 1.47,5.67 -0.67,1.55 -0.53,1.59 -2.38,2.02z"/>
    <path class="fil0" d="M151.96 300.33l-0.78 0.46 0.78 -0.46zm0 0c1.06,-1.58 5.9,-5.47 7.36,-6.6l13.27 -14.65c1.38,-1.62 5.18,-6.71 5.7,-8.66 2.73,0.73 1.38,1.99 6.1,1.33 2.43,-0.34 5.18,-0.59 6.37,-2.02 1.62,-1.95 0.59,-4.34 -1.55,-5.04 -2.17,-0.71 -5.91,-0.27 -7.73,0.15 1.63,-3.07 6.43,-9.93 7.18,-13.16 2.04,0.05 1.31,0.5 2.86,0.08 3.06,-0.83 11.62,-5.07 7.44,-8.78 -1.57,-1.39 -3.99,-1.03 -5.91,-0.87 0.42,-1.8 1.45,-3.57 2.05,-5.53 0.45,-1.49 1.4,-4.35 1.54,-6.04 3.07,1.47 6.91,-1.23 8.03,-3.98 0.63,-1.53 0.11,-3.53 -1.49,-4.16 -2.02,-0.8 -3.84,0.21 -5.34,0.56l0 -12.76c3.03,0 6.16,-1.17 5.95,-4.76 -0.23,-3.91 -3.81,-3.77 -6.35,-2.42l0 -4.79c3.56,1.71 6.38,-2.85 6.38,-6.78 -1.56,-1.35 -2.95,-1.68 -4.79,-0.8 0,-4.21 -1.44,-6.98 -5.18,-5.19 -1.68,7.22 3.16,7.78 2.24,13.4 -0.62,3.78 -1.36,12.41 -0.65,14.12 -2.01,-0.54 -2.13,-2.44 -4.79,-2.45 -5.55,-0.02 -2.72,6.51 -0.31,8.75 1.49,1.39 3.02,2.16 5.1,1.68 0,6.75 -1.65,11.87 -3.73,17.81l-1.06 2.13c0,-6.88 -4.11,-10.24 -6.29,-6.29 -2.16,3.91 0.87,9.26 4.3,11.08 -1.54,6.61 -7.64,13.62 -10.46,19.85 -0.44,0.98 -0.4,0.52 -0.71,1.68 -2.43,-0.2 -3.94,-1.09 -5.11,1.29 -1.36,2.76 0.07,3.54 1.12,5.1 -1.37,2.05 -6.63,8.93 -8.77,10.37l1.02 -3.75c0.65,-1.51 0.98,-2.5 1.64,-3.96 0.7,-1.55 0.98,-2.44 1.36,-4.22 0.68,-3.13 1.35,-3.19 3.44,-4.94 0.67,-0.56 0.74,-0.72 1.49,-1.3 3.55,-2.74 5.63,-9.78 -1.37,-8.15 0,-2.32 -0.03,-2.95 0.4,-4.79l0.53 -0.18c0.18,-0.04 0.52,-0.1 1.05,-0.22 4.43,-1.01 6.95,-6.6 2.18,-7.77 -2.02,-0.5 -3.06,0.65 -4.16,1.39 -0.09,-4.15 -2.54,-10.02 -3.5,-14.05 -0.42,-1.77 -0.5,-3.44 -0.89,-5.09 2.33,-0.54 3.23,-2.36 3.24,-4.79 0.02,-5.77 -7.64,-4.54 -6.34,1.48l0.72 7.38 -2.42 0.72c-0.75,3.23 0.29,4.98 2.7,6.47 3.81,2.36 1.39,-0.02 2.88,3.1 -2.88,0 -1.93,0.09 -3.59,1.2 0,2.88 0.14,3.54 1.47,5.31 1.03,1.39 1.96,2.99 3.72,3.46 0,3.34 -0.8,7.13 -0.8,10.37l-3.23 -3.95c-3.29,-3.43 -3.5,-3.4 -6.74,-1.24 0,3.17 1.72,4.78 3.11,6.86 1.8,2.69 3.29,3.89 4.47,5.5 -0.77,3.32 -2.67,9.36 -4.4,12.35l-3.97 8.4c-0.54,1.53 -0.3,1.91 -1.61,2.78 1.08,-4.65 0.43,-11.13 -2.05,-15.1 -1.21,-1.94 -1.3,-2.05 -4.33,-2.05 -1.34,2 -1.63,1.66 -1.95,4.83 -1.24,12.26 1.66,11.31 4.74,15.91 -5.27,3.53 -9.18,8.32 -14.13,12.19 -1.78,1.39 -3.27,2.99 -5.02,4.16 1.28,-5.47 0.9,-5.32 0.8,-9.97 5.49,-1.47 6.45,-13.62 -1.2,-9.57 -0.36,-4.34 -3.1,-8.11 -3.19,-12.36 2.1,-0.49 2.23,-1.91 2.97,-3.81 0.57,-1.44 1.52,-3.93 0.93,-6.07 -0.49,-1.81 -2.51,-2.59 -4.2,-1.21 -1.1,0.9 -2.05,3.19 -2.09,5.11 -1.14,-1.64 -2.22,-3.93 -2.39,-5.98 1.14,-0.41 1.19,-1.07 1.24,-2.37 0.43,-11.42 -11.37,-14.97 -7.78,-3.06 3.05,10.11 5.18,1.36 6.12,9.04 0.54,4.46 1.86,8.29 2.81,12.35 -1.51,-0.35 -3.96,-1.64 -5.88,-1.12 -1.69,0.45 -2.86,2.9 -1.57,4.97 1.94,3.09 6.03,4.93 9.84,4.93 0,3.52 1.2,7.38 1.2,13.56 -2.14,-1.13 -6.87,-3.35 -7.52,0.89 -0.47,3.03 3.2,5.35 5.53,5.89 -2.82,5.32 -0.42,2.63 -1.86,4.49 -1.64,2.12 -4.59,3.95 -5.32,6.67 2.92,-1.55 7.43,-4.57 9.17,-7.18 2.9,0.68 8.42,2.59 11.72,0.94 3.25,-1.62 0.98,-5.33 -6.13,-5.33 1.38,-2.07 3.99,-3.73 5.86,-5.3 5.89,-4.92 0.02,-1.49 7.15,-3.61 1.62,-0.48 4.55,-1.33 6.13,-1.46 0.51,1.93 3.65,4.24 5.09,5.68 1.6,1.6 3.67,4.63 6.88,3.09 2.49,-2.49 -3.31,-9.37 -5.58,-9.97l0 -0.8c3.82,-0.32 7.8,-2.31 11.57,-2.39 1.34,2.8 1.85,2.62 6.22,4.15 2.85,1 5.52,1.89 8.14,0.64 0.57,-2.44 0.53,-2.9 -1.08,-4.51 -0.91,-0.91 -2.47,-2.34 -3.71,-2.67l0 -0.8c2.15,-0.5 7.41,-4.27 7.98,-6.38 3.09,2.07 0.83,1.8 5.62,1.23 2.13,-0.25 5.02,-0.65 6.42,-1.56 4.2,-2.72 0.01,-7.14 -5.26,-7.25 0.58,-2.47 1.93,-3.81 0.35,-6.73 -1.3,-2.41 -4.39,-1.76 -5.61,0.29 -1.68,2.84 0.47,5.46 -0.47,7.5l-1.54 2.45c-0.79,1 -1.3,1.8 -2.31,2.48 -0.15,-6.96 -6.33,-4.58 -7.57,0.41 -0.73,2.95 -0.07,2.6 -0.01,5.17 -2.08,1 -7.96,2.56 -10.77,2.79 4.5,-8.5 -12.94,-3.87 -13.56,3.59 -2.08,0.17 -3.18,1.14 -5.58,1.2z"/>
    <path class="fil0" d="M447.51 308.71l0 0zm31.11 -27.59l0 0.07c-0.94,-0.44 -0.24,-0.2 0,-0.07zm0 0.07l0 17.95c-0.13,1.46 -0.34,2.85 -0.64,4.14 -0.81,3.45 -1.37,5.89 -1.93,9.63 -0.61,4.05 0.18,6.75 0.12,10.48l-1.53 1.26c-2.08,-0.56 -2.21,-2.71 -3.94,-7.23 -2.91,-7.61 -2.26,-10.54 -0.97,-18.41 0.55,-3.31 1.03,-6.11 1.71,-9.06l-13.06 12.07c-1.07,1.08 -1.54,1.26 -2.6,2.19 -2.27,1.99 -0.7,1.95 -5.08,4.89 0.05,2.14 0.33,1.29 0.12,3.29 -0.29,2.79 -0.4,7.16 0.16,9.99 0.89,4.55 2.41,6.99 3.82,10.93 0.7,1.95 0.88,4.06 1.53,6.05 2.67,8.22 0.98,7.97 1.78,12.99 0.43,2.68 0.31,4.44 -1.83,5.01 -1,-1.5 -0.57,-0.55 -0.83,-2.76 -0.43,-3.79 -4,-7.38 -6.19,-10.17 -4.37,-5.58 -8.68,-9.07 -8.96,-17.37 -0.09,-2.68 0.42,-3.61 0.42,-5.99l-8.07 10.68c-4.56,5.21 -9.03,11.87 -13.24,17.47 -1.98,2.63 -1.91,1.82 -2.31,4.07 -3,16.85 5.71,34.75 2.88,37.58 -3.39,1.62 -6.11,-1.48 -7.19,-3.58 -1.99,-3.85 -1.43,-4.06 -2.1,-9.08 -1.12,-8.31 1.78,-16.07 2.12,-20.04l-7.88 8.08c-1.42,1.43 -2.65,2.46 -4.21,3.76 -2.52,2.11 -2.62,0.97 -2.66,5.31 -0.03,3.07 -1.15,4.08 -1.5,6.48l-2.11 21.43c-0.19,3.04 -1.89,12.49 -6.03,8.46 -2.49,-2.43 -1.37,-9.62 -1.12,-13.62 0.39,-6.35 3.83,-12.62 6.09,-17.84 1.24,-2.87 1.61,-5.15 1.88,-5.7 -3.08,0.82 -7.5,4.11 -9.67,6.28 -2.71,2.72 -4.76,5.38 -7.57,7.98 -2.78,2.57 -10.58,8.68 -14.43,9.52 -2.51,0.54 -4.78,-0.06 -5.72,-1.59 -1.29,-2.1 0.9,-3.69 1.95,-4.98 3.69,-4.55 7.57,-7.9 13.39,-10.15 2.05,-0.79 3.82,-1.31 5.82,-2.15 4.49,-1.89 5.09,-3.1 8.37,-3.14 1.74,-0.02 6.45,-3.24 7.07,-4.16 -3.88,0 -11.8,6.26 -24.73,-2.39 0,-2.08 -0.31,-2.54 1.27,-3.12 1.89,-0.69 10.37,-0.16 12.13,0.09l11.58 1.58c1.58,0.4 1.76,0.42 2.14,1.85 4.13,-2.18 11.68,-10.3 14.93,-14.58 3.07,-4.03 0.99,-2.61 3.83,-5.35l3.58 -4.8c-4.53,0.38 -4.93,1.35 -6.87,1.9 -3.3,0.94 -12.25,0.79 -15.67,-0.89 -2.03,-1 -3.38,-2.1 -3.38,-5 5.02,-3.36 13.59,1.5 19.94,0.81 2.79,-0.3 2.39,-2.55 6.38,-2.44 1.74,0.05 2.2,0.57 3.19,1.24 0.65,-2.44 10.24,-13.34 12.29,-16.43l8.86 -12.68c1.43,-2.27 2.05,-0.91 3.58,-3.2 -4.1,0.09 -3.42,2.97 -11.85,1.88 -4.45,-0.57 -7.53,-1.1 -11.28,-3.08l0 -2.39c2.74,-1.45 3.55,-1.23 7.58,-1.19 7.25,0.07 2.55,-1.55 7.15,-1.63 2.87,-0.05 5.4,-0.17 8.38,-0.39 1.19,-0.09 2.53,-0.53 3.78,-0.64 2.61,-0.23 0.43,0.45 3.02,0.66 0.9,-0.08 9.42,-8.14 10.56,-9.38 1.95,-2.14 10.01,-8.51 10.58,-9.36 -3.73,0 -6.06,-0.4 -9.97,-0.4 -5.38,0 -13.54,-0.04 -17.89,-2.85 -4.86,-3.15 -3.2,-3.81 -2.06,-5.52 7.33,0 12.31,0.56 18.09,2.25 1.95,0.57 11.31,2.58 12.3,3.26 0.91,0.62 0.44,0.74 2.12,1.15 0.33,0.08 0.51,0.11 0.6,0.12zm-7.18 8.77l0 0z"/>
    <path class="fil0" d="M0.4 90.14c0,4.42 3.19,11.3 4.78,14.36 1.17,2.25 2.28,3.74 3.87,5.7l4.41 5.16c0.88,0.87 1.58,1.49 2.4,2.39 0.48,0.52 0.66,0.84 1.09,1.3 3.61,3.94 12.46,11.69 17.08,14.43 6.02,3.57 13.52,6.6 20.77,7.95l8.62 0.54c4.63,0.27 7.83,-0.98 11.16,-3.18 2.08,-1.37 16.86,-10.58 11.55,-13.94 -2.03,-1.28 -0.55,0.59 -2.18,-1.81 -1.3,-1.92 -1.93,-2.52 -3.5,-4.08l-3.79 -3.79c-3.99,-3.93 -9.42,-6.53 -14.74,-8.4 -4.35,-1.52 -8.48,-1.46 -13.28,-2.28 -4.47,-0.77 -8.06,-1.69 -12.12,-3.04 -8.05,-2.68 -14.45,-4.85 -22.05,-8.67 -2.61,-1.31 -9.04,-4.65 -11.7,-4.65 -0.86,0 -2.39,1.6 -2.39,1.99z"/>
    <path class="fil0" d="M370.93 213.78c0,11.61 3.03,19.77 9.92,28.37l6.28 6.88c14.34,14.05 39.24,11.91 39.24,-3.35 0,-4.4 -5.31,-13.93 -7.9,-17.22 -0.76,-0.96 -2.13,-2.06 -3.45,-2.53 -3.42,-1.22 -1.51,-0.38 -3.69,-2.69l-6.91 -5.46c-7.44,-4.6 -10.73,-6 -17.74,-12.97 -3.43,-3.41 -5.38,-8.03 -5.38,-13.37 0,-1.53 1.87,-4.39 -1.2,-4.39 -3.35,0 -9.17,20.55 -9.17,26.72z"/>
    <path class="fil0" d="M44.27 37.09l-9.97 -0.4c-2.83,0 -11.56,0.83 -13.16,1.6 -0.6,-2.57 -2.73,-5 -4.26,-6.91 -3.69,-4.57 -12.73,-14.25 -16.88,-17.02l0 0.6c0,2.89 0.01,5.79 0,8.68l0 1.12c0.04,3.76 0.62,5.57 5.26,8.67l8.7 6.46 -13.96 3.99 0 4.39c2.93,-0.24 6.94,-2.54 9.97,-2.79 -0.87,1.64 -0.82,1.4 -2.1,2.69 -2.15,2.18 -5.48,7.4 -5.48,10.47 0,0.96 0.65,1.17 1.2,1.99 -1.56,6.71 -6.11,12.76 -1.6,12.76 1.43,0 4.5,-5.27 5.31,-6.65l8.65 -15.68c0.66,-1.32 1.05,-2.91 1.93,-4.06 1.11,-1.45 2,-1.76 2.06,-4.32 1.47,-0.03 2.95,-0.51 4.1,-0.69 3.41,-0.52 11.01,-1.54 14.24,-1.28 5.44,0.43 11.47,1.04 17.16,2.37 -0.47,0.3 0.06,0.06 -0.82,0.37l-3.74 1.05c-4.65,1.32 -9.5,3.01 -13.66,5.09 -5.22,2.61 -7.12,4.24 -11.3,7.44 -4.01,3.07 -3.4,5.59 -0.39,5.59 1.23,0 3.8,-1.5 5.23,-1.95 8.49,-2.71 14.67,-0.44 17.58,-3.16 1.47,-1.37 1.05,-2.42 3.16,-4.02 4.82,-3.64 4.34,-4.96 11.95,-6 4.21,-0.57 0.59,-2.54 11.86,2.83 2.49,1.19 2.29,1.92 5.66,1.92 0.72,-3.39 -4.1,-5.06 -7.84,-6.91 -3.42,-1.69 -2.64,-0.85 -3.32,-2.26 -0.05,-0.08 -0.09,-0.3 -0.1,-0.25l-0.11 -0.79c0.06,-0.63 1.18,-4.24 1.43,-7.71 0.47,-6.45 5.67,-13.99 -0.03,-13.99 -2.2,0 -4.02,6.98 -4.45,9.51 -0.36,2.13 -0.11,4.4 -0.44,6.74 -0.47,3.3 -0.19,3.1 0.51,6.09 -2.68,-1.42 -7.99,-2.74 -11.25,-3.51 -3.52,-0.82 -3.04,-0.36 -3.83,-3.74 -1.07,-4.57 -1.7,-8.84 -1.66,-13.5 0.03,-2.82 -0.42,-4.13 -0.41,-7.17 0.01,-2.53 -0,-5.05 0,-7.58 0.01,-2.96 -0.4,-4.75 -0.4,-7.18l-8.77 0c0,6.69 -0.7,5.85 -0.06,13.99 0.51,6.56 1.64,18.55 4.05,23.1z"/>
    <path class="fil0" d="M199.02 325.06c0,5.75 0.58,8.09 1.57,12.79 1.72,8.18 -1.17,3.68 -1.17,11.14 -0.36,-0.41 -0.02,0.08 -0.5,-0.69l-6.76 -10.79c-0.77,-1.35 -1.05,-3.68 -2.71,-3.68 -5.31,0 1.37,13.5 1.86,14.49 1.42,2.87 4.11,8.16 7.71,8.24 0,7.82 5.13,21.67 5.19,23.93l-8.66 -6.5c-0.7,-0.59 -0.96,-0.97 -1.66,-1.53 -0.83,-0.67 -0.91,-0.63 -1.74,-1.45 -2.08,-2.02 -4.3,-1.94 -4.3,1.11 0,2.76 12.16,11.57 15.85,14.07 2.55,1.73 1.9,1.02 2.25,2.53 0.41,1.76 0.16,7.2 0.31,9.67l-0.06 4.44c0.01,3.17 -0.4,6.21 -1.04,8.94 -0.64,2.75 -1.22,5.29 -2.01,7.96 -0.38,1.28 -0.73,2.4 -1.22,3.57 -1.13,2.72 -1.03,2.68 -2.12,3.07 0,-2.28 -1.8,-11.36 -3.19,-13.16 -1.12,-1.46 -0.21,-0.22 -1.39,-1.01l-6.08 -8.28c-0.43,-1.57 -0.12,-2.18 -0.75,-4.04 -2.35,-6.95 -7.86,-12.64 -10.76,-22.74 -0.45,-1.56 -0.73,-2.23 -2.56,-2.23 -2.32,0 -1.43,3.45 -1.27,4.85 0.28,2.5 0.38,4.03 0.76,6.02 0.86,4.51 2.03,6.74 4.09,9.87 0.92,1.41 1.81,2.49 2.92,3.86l4.48 5.49c2.01,1.67 3.73,3.46 4.97,5.8 -1.52,-0.13 -11.91,-3.63 -13.4,-4.55 -1.72,-1.07 -2.04,-2.23 -4.55,-2.23 -1.66,0 -1.6,1.48 -1.6,2.39 0,1.47 2.98,3.02 4.15,3.83 7.42,5.12 7.61,5.75 18.18,5.75 3.28,6.2 2.42,10.57 3.09,13.68 1.27,5.94 -3.09,7.72 -3.09,13.44 0,1.52 -0.12,0.15 0.4,1.2 1.81,-0.48 1.49,-1.86 2.13,-3.85 1.24,-3.82 4.04,-9.28 5.84,-12.9 5.19,-10.4 5.69,-19.02 6.17,-30.38 0.08,-1.95 -0.19,-2.68 -0.19,-5.12 0,-5.74 -1.4,-4.11 0.96,-7.42 1.65,-2.31 3.94,-7.66 5.16,-10.41 1.74,-3.92 -1.67,-5.43 -3.58,-2.76 -1.85,2.59 -2.96,6.67 -4.54,7.83l-2.32 -9.25c-0.72,-2.88 -1.67,-6.97 -1.67,-10.29 3.12,-0.73 6.22,-4.51 8.1,-7.06 1.11,-1.51 1.93,-3.01 2.81,-4.77 0.78,-1.57 4.29,-7.86 0.63,-8.02 -1.23,-0.05 -2.55,1.76 -3.65,3.01 -0.75,0.85 -0.8,1.12 -1.6,1.99 -2.14,2.3 -4.15,5.19 -6.68,6.88 0,-2.95 0.26,-3.89 0.7,-6.08 1.76,-8.72 2.18,-4.16 3.96,-9.6 1.24,-3.79 1.39,-17.7 4.32,-22.8 0.61,-1.07 1.19,-1 1.55,-2.06 0.28,-0.83 -0.21,-2.12 -0.95,-2.12 -2.11,0 -2.89,1.58 -4.08,2.7l-4.85 3.93c-2.61,2.38 -3.43,5.58 -3.43,9.33z"/>
    <path class="fil0" d="M223.75 398.05c-0.82,-0.95 -1.09,-2.24 -1.64,-3.54 -0.51,-1.21 -1.29,-2.36 -1.95,-3.64 -4.87,-9.5 -7.18,-4.3 -7.18,-3.59 0,5.36 3.1,14.8 5.57,19.56 0.85,1.65 0.83,1.09 1.73,2.26 1.08,1.4 -0.24,0.86 0.65,2.93 0.77,1.77 1.16,-0.46 -0.6,5.73 -2.78,9.79 -7.16,16.24 -7.35,16.98 -1.21,-0.89 -0.99,-0.44 -0.23,-5.02 1.75,-10.55 7.43,-17.32 1.83,-17.32 -2.21,0 -5.17,8.31 -5.93,10.42 -1.56,4.35 -2.05,9.49 -2.05,15.1 0,1.88 0.77,1.59 1.2,3.19 -0.58,0.15 -5.92,2.97 -5.98,5.98 5.39,-0.45 12.93,-10.2 15.56,-15.16 5.81,0.48 -0.64,1.69 9.34,-0.23 14.79,-2.85 9.95,-11.33 7.81,-11.33 -6.56,0 -7.41,5.43 -14.36,5.58 1.33,-2.51 2.75,-7.12 3.51,-10.05 0.82,-3.2 0.04,-2.61 2.98,-3.8 1.83,-0.74 3.1,-1.51 4.57,-2.61 1.65,-1.25 2.99,-1.97 4.46,-3.52 4.92,-5.19 9.21,-7.14 9.21,-11.13 0,-1.58 -1.55,-1.99 -2.79,-1.99 -2.65,0 -6.61,3.79 -8.28,5.28 -1.79,1.59 -5.77,4.89 -7.67,5.89 0.45,-5.4 1.2,-11.45 1.2,-17.55 3.49,-1.68 5.38,-0.73 11.47,-7.27 1.48,-1.59 10.64,-14.66 4.08,-14.66 -1.33,0 -2.21,2.16 -4.08,4.3 -2.17,2.49 -5.07,5.77 -8.69,6.07 0,-1.92 -0.08,-4.39 0.29,-5.69 0.47,-1.64 0.4,-0.81 0.86,-1.97 0.8,-2.03 0.05,-0.84 0.05,-2.31 0,-0.46 0.96,-2.59 1.2,-3.59 -0.9,0.66 -0.95,1.25 -1.6,1.99 -0.66,-2.85 -1.63,-5.74 -1.97,-8.8 -0.52,-4.76 0.23,-8.35 -3.22,-8.35 -2.42,0 -1.35,3.69 -1.22,5.2 0.56,6.45 -0.52,10.28 1.53,20.44 0.54,2.69 0.03,2.78 -0.54,5.63 -1.14,5.69 -1.76,14.5 -1.76,20.58z"/>
    <path class="fil0" d="M436.74 396.06c-2.32,0.79 -1.94,1.85 -3.18,4.4 -2.86,5.88 -9.61,12 -15.43,14.88 -10.97,5.43 -26.14,10.38 -30.2,23.64 -1.9,6.2 -1.16,4.33 -5.03,10.12 -0.47,0.7 -0.93,1.33 -1.43,2.16l-2.78 5.07c0.19,2.25 2.16,-1.49 3.31,-2.54 0.91,-0.83 1.27,-0.83 2.21,-1.77l3.57 -4.01c1.4,-1.6 1.52,-2.21 4.02,-3.56 8.96,-4.83 10.81,-1.38 18.73,-4l5.71 -1.87c14.19,-5.72 20.04,-17.67 21.81,-32.03 0.23,-1.87 0.41,-4.61 1,-6.62 0.6,-2.06 -0.11,-4.61 -2.31,-3.87z"/>
    <path class="fil0" d="M278.4 405.63c0.53,2.29 2.1,3.32 4.42,5.95 6.95,7.91 21.43,11.78 30.74,8.86 7.93,-2.49 24.2,-10.85 17.27,-20.97 -2.21,-3.23 -5.61,-3.68 -7.95,-4.81 -0.8,-0.39 -1,-0.62 -1.84,-0.95 -1.3,-0.5 -2.59,-0.7 -4.23,-0.98 -7.4,-1.24 -13.02,6.23 -21.36,9.6 -3.13,1.27 -10.63,2.19 -13.42,2.02 -2.27,-0.13 -2.2,-0.37 -3.63,1.28z"/>
    <path class="fil0" d="M141.99 439.53l0 0zm37.65 23.13l-14.52 0c0,-6.01 3.63,-2.35 -4.39,-11.57l-0.8 11.57 -6.78 0c0,-3.66 0.58,-5.96 1.35,-9.02 0.39,-1.56 0.65,-2.59 1.12,-4.07 0.66,-2.12 1.19,-1.87 1.92,-2.87l-5.17 -7.6c-1.13,-2.18 -3.21,-7.02 -3.21,-9.55l-0.25 0.54c-0.03,0.08 -0.08,0.2 -0.12,0.28l-1.62 5.16c1.48,0.99 2.8,3.26 3.73,5.04 1.53,2.92 1.57,3.57 -0.14,6.13 -2.78,0 -2.41,0.3 -3.91,-1.28 -0.93,-0.98 -1.45,-1.93 -2.87,-2.31 -0.48,2.08 -1.18,3.25 -1.77,5.42 -0.89,3.28 -0.93,2.47 0.74,4.79 1.11,1.55 4.05,7.25 4.23,9.34l-6.45 0c-0.67,-0.16 -1.3,-0.51 -2.32,-1.2l0 1.2 -3.59 0c0.44,-1.88 1.44,-3.67 1.6,-5.58 -1.38,0.11 -2.43,0.76 -3.63,1.15 -9.51,3.13 -13.87,-1.44 -8.18,-4.99 4.58,-2.86 8.8,-3.75 14.2,-3.75 0.31,-3.75 2.47,-6.88 3.19,-9.97 -2.34,0.2 -3.85,1.22 -7.16,0.78 -2.47,-0.33 -3.23,-2.8 -1.72,-4.87 3.02,-4.12 7.53,-3.66 11.67,-2.7 5.78,-12.04 0.78,-14.83 2.61,-17.8 0.92,-1.49 1.93,-0.46 2.31,0.9 0.3,1.07 0.94,6.25 1.06,7.73 2.35,-0.55 3.13,0.46 6.84,1.94 1.85,0.74 4.97,1.72 5.69,3.52 1.68,4.16 -3.68,6.58 -10.93,1.73 1.35,5.78 3.8,8.36 6.69,12.85 3.56,5.54 7.8,-0.53 14.84,1.11 0.33,1.41 0.4,1.31 0.4,3.19 -2.89,1.93 -5.21,2.39 -9.97,2.39 0.72,1.36 0.46,0.96 1.49,2.1 4.03,4.45 0.7,2.44 6.33,3.24 2.27,0.32 9.65,1.11 10.59,2.2 1.2,1.39 0.47,3.15 -0.81,4.07 -0.67,0.48 -1.42,0.68 -2.29,0.75z"/>
    <path class="fil0" d="M458.68 386.08c0,5.85 13.88,12.76 19.14,12.76l-2.39 11.97c-1.69,-1.13 -2.41,-1.73 -4.67,-2.51 -4.43,-1.53 -20.85,-5.56 -24.53,-2.36 -6.86,5.98 9.95,13.82 17.86,15.41 2.71,0.54 7.17,1.03 10.14,1.03l-0.4 10.77c-2.28,-1.09 -10.37,-2.75 -10.37,1.6 0,3.53 7.57,6.88 11.17,7.18 0,3.28 1.89,10.54 3.99,13.56l0 -20.11c-0.02,-0.19 -0.04,-0.38 -0.06,-0.57 -0.36,-3.24 0.06,-35.81 0.06,-42.34 0,-2.29 -10.35,-8.77 -17.55,-8.77 -1.04,0 -2.39,1.76 -2.39,2.39z"/>
    <path class="fil0" d="M445.51 27.52c-0.89,3.73 1.05,4.92 4.66,8.9 0.11,0.12 0.55,0.62 0.56,0.63l3.27 3.11c3.28,2.75 6.3,5.02 10.03,7.12l1.56 0.83c0.05,0.03 0.18,0.09 0.26,0.14 -3.75,0.87 -18.15,6.22 -22.17,5.83 -1.37,-0.14 -2.95,-0.42 -4.16,-0.63 -1.78,-0.32 -2.1,-0.74 -3.97,-0.82 -6.6,-0.3 -1.74,0.3 -8.08,-1.09 -1.88,-0.41 -6.47,-1.09 -8.52,-0.75 -4.89,0.82 -9.55,3.5 -13.02,3.64l-3.49 -0.19c-1.08,0 -0.27,-0.23 -1.42,0.97 -0.04,0.04 -0.11,0.15 -0.17,0.23 0.56,2.41 4.87,3.42 7.17,4 1.57,0.4 2.89,0.69 4.81,0.8 1.02,0.06 1.95,0.14 2.39,0.17 5.91,0.38 6.21,0.33 13.1,-0.64 6.23,-0.87 3.61,-1.98 8.42,-1.95 7.1,0.04 12.99,-1.03 18.76,-2.38l-2.35 3.63c-0.18,0.29 -0.63,0.91 -0.83,1.17 -3.03,3.94 -13.29,13.55 -4,13.55 6.25,0 11.75,-11.78 13.96,-16.75 2.54,-5.74 -2.98,-2.14 10.82,-6.73 1.86,-0.62 3.41,-1.47 5.53,-1.65l0 -4.79c-1.11,0.53 -3.46,1.29 -4.79,1.6l-12.09 -10.25c-3.22,-2.62 -11.84,-9.4 -16.23,-7.7z"/>
    <path class="fil0" d="M117.26 7.18c0,7.31 14.75,-1.36 15.95,-1.99 -0.05,2.29 -1.6,6.73 -1.6,11.17 -4.9,0.11 -12.36,8.02 -12.36,9.57 0,9.33 10.18,-1.59 11.97,-2.79 0,9.34 1.71,10.19 1.99,13.56 -4.8,1.28 -5.76,14.16 -0.06,11.55 1.86,-0.85 2.73,-2.95 3.25,-5.17l2.13 4.65c6.22,12.5 14.28,11.5 13.69,7.07 -0.37,-2.73 -6.91,-9.72 -9.11,-11.64 -0.45,-0.39 -4.1,-2.34 -5.1,-4.07 -0.95,-1.62 -2.26,-6.88 -2.79,-9.18 1.78,0.48 5.93,4.39 11.17,4.39 2,0 2.6,-2.7 0.71,-4.29 -0.96,-0.81 -12.28,-6.73 -12.28,-10.86 0,-2.65 0.4,-3.45 0.4,-5.98 2.66,1.78 1.74,4.79 6.38,4.79 4.67,0 -2.06,-12.3 -3.09,-14.08 -1.09,-1.88 -1.11,-1.77 -0.1,-3.87l-10.13 0c-2.58,0.25 -4.91,0.97 -7.81,2.81 -1.43,0.91 -3.21,2.04 -3.21,4.37z"/>
    <path class="fil0" d="M199.82 30.71l0 0zm-28.45 -30.71l3.12 0c1.38,0.07 0.91,0.46 3.17,2.22 7.99,6.24 3.04,6.21 11.41,6.14 4.25,-0.03 3.93,0.37 6.37,2 0,4.41 -1.75,3.99 -5.98,3.99 1.87,2.79 1.76,2.12 3.59,5.58 4.93,0 17.12,2.98 18.13,7.4 1.04,4.54 -6.72,3.37 -11.35,3.37 2.12,3.17 2.14,4.19 3.68,5.9 4.68,5.22 7.99,18.98 3.63,20.61 -6.22,2.33 -7.71,-15.58 -8.73,-19.1 -0.81,-2.81 -1.77,-4.16 -1.77,-7.4 -0.27,0.31 -0.2,0.19 -0.49,0.71 -0.04,0.07 -0.1,0.18 -0.14,0.26 -0.04,0.08 -0.08,0.19 -0.12,0.28 -1.69,3.68 -1.98,5.53 -6.83,5.53 -0.9,-1.35 -1.57,-1.43 -1.49,-3.64 0.03,-0.77 0.29,-2.51 0.29,-4.34 -0,-3.22 0.34,-6.3 2,-8.77 -1.69,-1.94 -3.48,-5.64 -5.19,-6.78 0,3.24 0.32,8.45 -0.15,11.42 -1.02,6.57 -4.74,4.54 -5.7,3.2 -2.54,-3.57 -0.28,-9.88 -0.14,-15.02 0.08,-2.98 0.28,-2.57 0.89,-4.88l-8.47 -8.68 0.26 0z"/>
    <path class="fil0" d="M383.69 268.42c-1.06,4.43 2.34,5.21 3.19,8.38 -3.01,0.8 -6.36,5.16 -8.77,6.78 -3.37,-0.78 -1.08,-0.8 -5.58,-0.8 -2.71,0 -6.78,2.3 -6.78,6.38 0,2.68 4.35,2.39 7.18,2.39 -1.29,2.44 -3.59,7.17 -3.59,10.77 -1.07,-0.26 -0.75,-0.4 -1.6,-0.4 -3.37,0 -9.32,8.06 -3.71,9.31 1.3,0.29 2.14,-0.17 3.71,-0.53l0 5.98c-3.05,0.07 -2.39,0.85 -2.39,6.78 0,2.93 1.88,2.79 3.19,2.79 1.63,0 7.11,-6.96 3.52,-10.71 -1.23,-1.28 -1.47,-1.24 -3.12,-0.86 0.11,-1.27 0.53,-2.82 0.8,-3.99 2.71,1.43 5.44,3.99 8.77,2.39 0.46,-1.99 1.06,-2.6 -2.68,-6.49 -1.56,-1.62 -2.27,-2.26 -4.1,-3.48 0.25,-2.98 2.17,-5.29 2.79,-7.98l2.13 2.66c3.82,3.81 8.64,4.84 8.64,1.73 0,-3.25 -2.45,-12.14 -4.79,-12.76 1.81,-3.42 5.05,-4.79 6.38,-6.78 1.69,1.13 2.14,1.78 5.1,2.52 3.45,0.86 6.44,-1.58 2.88,-6.91 1.52,-0.81 3.19,-1.13 5.11,-1.68 5.99,-1.7 1.12,-0.82 5.66,-0.72l0 -0.8c-2.9,0 -2.69,-0.8 -8.77,-0.8 -2.41,0 -3.63,1.14 -5.58,1.6 -0.34,-1.26 -4.9,-5.19 -5.98,-5.19 -0.1,0 -1.47,0.35 -1.6,0.4z"/>
    <path class="fil0" d="M470.24 125.64c0,4.1 0.33,14.1 1.65,17.1 0.73,1.64 1.3,1.89 2.74,2.85 -0.18,2.19 -1.5,5.05 -1.99,7.18 -3.15,-1.67 -1.5,-3.31 -5.48,-6.08 -5.75,-3.99 -9.75,3.22 -2.66,14.23 1.04,1.61 0.92,1.76 2.56,2.62 -1.16,1.74 -1.44,1.98 -2.9,3.48 -1.56,1.61 -1.24,2.84 -3.88,2.9 0.15,6.6 9.11,-4.04 9.12,-4.04 0.94,-0.55 1.42,-0.26 4.61,-2.17 1.23,-0.74 3.27,-1.85 4.62,-2.16l0 -9.17c-1.79,0.42 -1.28,0.79 -2.79,1.2 0.39,-1.67 1.08,-2.93 1.55,-4.43 0.4,-1.26 1.24,-3.75 1.24,-5.14l0 -19.54c0,-6.75 -8.38,-10.43 -8.38,1.2z"/>
    <path class="fil0" d="M232.53 72.19c0,3.59 1.67,8.9 2.24,12.52 0.38,2.39 0.52,4.45 -0.06,5.99l-0.71 2.91c-0.23,1.26 -0.64,1.58 -0.68,3.31 3.43,-0.29 3.84,-2.16 5.19,-4.38 0.94,-1.55 1.35,-1.18 2.48,-2.3 0.74,-0.74 0.48,-0.64 1.05,-1.35 5.02,-6.31 6.84,-8.35 6.84,-17.89 0,-2.86 -2.07,-5.96 -3.41,-7.76 -3.35,-4.49 -8.91,-7.45 -11.61,0.31 -0.84,2.42 -1.33,5.54 -1.33,8.64z"/>
    <path class="fil0" d="M19.14 261.64c-3.69,-2.47 -10.68,-0.37 -15.55,-3.2 -1.63,-0.95 -2.26,-1.88 -3.6,-2.78l0 9.17c1.64,0.87 4.92,2.57 6.95,3.03 4.71,1.06 4.17,-0.19 7.81,-1.03 -1.12,1.67 -4.07,4.3 -5.68,5.89 -1.19,1.17 -1.99,1.56 -3.2,2.78 -1.04,1.04 -1.91,2.05 -2.99,2.99 -2.23,1.96 -2.78,1.67 -2.89,3.51l0 5.17c0,3.99 0,7.98 0,11.97l0.4 0c0,-2.28 0.8,-7.09 0.8,-11.97 0,-4.33 -1.52,-2.8 2.7,-6.47 1.21,-1.05 1.8,-1.4 2.98,-2.6 4.36,-4.41 7.66,-6.43 10.99,-11.35 0.88,-1.3 1.52,-2.02 2.47,-3.11l0.86 12.7c0.22,1.86 0.67,3.71 1.34,5.44 0.91,2.35 1.37,2.74 3.38,3.8 2.27,-1.2 2.79,-2.59 2.79,-6.78 0,-8.22 -1.82,-8.99 -3.63,-14.71 -1.31,-4.13 -0.52,-1.68 -1.95,-3.63 1.1,-0.81 4.24,-5.58 5.27,-7.1 1.31,-1.93 3.51,-6.26 3.51,-9.26 0,-0.89 -0.32,-0.88 -0.8,-1.6 -2.19,1.47 -1.35,4.83 -5.29,10.26l-6.67 8.88z"/>
    <path class="fil0" d="M378.11 19.14c0,1.73 3.91,3.66 5.9,4.87 5.41,3.28 12.68,2.86 18.43,0.32 2.66,-1.17 3.99,-2.46 5.52,-4.85 1.67,-2.62 2.29,-6.5 -0.62,-8.83 -0.94,-0.75 -3.92,-2.27 -6.1,-2.27 -4.68,0 -9.19,1.42 -11.3,5.45 -3,5.74 -11.84,0.39 -11.84,5.31z"/>
    <path class="fil0" d="M457.08 368.54l0 1.2c0,5.17 12.84,11.17 18.75,11.17l2.79 0 0 -14.76c-1.39,0.67 -4.36,0.47 -6.4,0.41 -1.75,-0.04 -1.47,-0.11 -2.79,-0.43l-8.66 -0.31c-1.43,0.19 -3.68,1.06 -3.68,2.73z"/>
    <path class="fil0" d="M168.31 171.5c2.2,-0.51 13.6,-6.61 16.06,-9.07 1.17,-1.17 2.04,-1.95 2.93,-3.45 4.47,-7.49 2.93,-11.01 -5.43,-11.01 -2.43,0 -4.34,2.3 -5.2,3.97 -2.55,4.98 0.99,8.28 -4.89,13.45 -1.34,1.17 -0.92,0.56 -2.01,2.78 -0.61,1.25 -1.14,1.96 -1.46,3.33z"/>
    <path class="fil0" d="M320.67 460.67c-3.94,-2.08 -9.97,-4.39 -15.95,-4.39 -3.51,0 -5.58,2.51 -5.58,6.38l40.28 0c-1.84,-2.74 -7.09,-7.18 -11.57,-7.18 -2.6,0 -6.72,-0.38 -7.18,5.19z"/>
    <path class="fil0" d="M113.67 37.09c-1.31,-1.95 -3,-3.15 -4.78,-7.18 -3.72,-8.41 -6.78,-20.24 -6.78,-29.91l-4.39 0c0.33,1.43 0.29,3.73 0.8,4.79 -1.4,-0.33 -7.71,-3.75 -13.41,-4.79l-5.45 0c-0.38,0.1 -0.74,0.23 -1.09,0.4 0.83,2.29 10.81,4.78 15.61,6.73 3.77,1.53 4.47,0.44 5.13,3.65 0.29,1.43 0.45,2.65 0.8,3.99 1.53,5.93 4.44,13.66 8.67,18.05 1.25,1.3 3.17,3.82 4.89,4.28z"/>
    <path class="fil0" d="M459.07 248.08c0,1.68 0.71,1.85 1.37,3.02 1.17,2.1 -0.12,1.18 2.13,2.25l10.81 7.54c1.77,1.41 3.38,2.69 5.24,3.94l0 -8.39c-0.2,-0.92 -0.58,-1.69 -1.27,-2.3l-7.26 -5.5c-4.8,-3.23 -11.01,-2.54 -11.01,-0.55z"/>
    <path class="fil0" d="M165.12 3.99c0,2.65 1.33,5.76 1.91,8.06 2.53,10.06 6.47,5.93 6.47,2.31 0,-8.54 -2.63,-7.65 -3.19,-14.36l-5.18 0 0 3.99z"/>
    <path class="fil0" d="M-0 151.96l0 9.17c2.26,-0.53 3.75,-1.62 5.82,-2.15 1.4,-0.36 2.29,-0.03 3.48,-0.51 1.63,-0.64 0.77,-1.22 2.66,-1.73 -0.47,-1.26 0.87,-0.57 -1.2,-0.8 0.02,-0.19 3.04,-6.38 -2.79,-6.38 -2.35,0 -5.89,1.91 -7.98,2.39z"/>
    <path class="fil0" d="M470.24 12.76c0,2.45 1.3,3.02 2.43,6.35l5.95 8.81 0 -0.19 0 -12.59c-0.15,-1.93 -0.75,-1.7 -2.26,-2.91 -1.89,-1.51 -6.11,-4.4 -6.11,0.53z"/>
    <path class="fil0" d="M-0 433.95l0 7.98c2.62,0.22 3.64,0.51 6.35,-0.43 6.94,-2.4 5.26,-10.25 -6.35,-7.54z"/>
    <path class="fil0" d="M40.28 462.66l8.77 0c0,-3.31 -0.68,-9.97 -3.59,-9.97l-1.2 0c-2.46,0 -3.93,7.16 -3.99,9.97z"/>
    <path class="fil0" d="M5.58 462.66c-4.64,-8.77 -2.1,-2.27 -4.54,-12.61 -0.48,-2.01 -0.64,-2.96 -0.64,-5.34l-0.4 0 0 10.39c0.34,1.02 1.07,2.13 2.56,4.59 1.29,2.14 1.39,2.82 3.02,2.96z"/>
    <path class="fil0" d="M156.35 4.39c2.51,0 3.4,-2.08 3.59,-4.39l-6.78 0c0.27,1.16 0.35,1.62 1.01,2.58 0.38,0.54 1.81,1.81 2.18,1.81z"/>
    <path class="fil0" d="M145.18 3.19l0.8 0c1.07,-1.6 1.2,-0.48 1.2,-3.19l-7.58 0c0.77,1.05 3.56,3.19 5.58,3.19z"/>
    <path class="fil0" d="M-0 143.98l0.4 0c0,-2.76 2.27,-7.54 1.01,-9.77 -0.58,-1.02 -0.47,-0.21 -0.76,-1.15 -0.21,-0.71 0.15,-0.79 0.15,-3.04 0,-2.65 -0.4,-3.45 -0.4,-5.98l-0.4 19.94z"/>
    <path class="fil0" d="M477.02 340.22c0,1.51 0.71,2.54 1.6,3.19l0 -5.58c-0.74,0.49 -1.6,1.16 -1.6,2.39z"/>
    <polygon class="fil0" points="127.63,462.66 132.02,462.66 132.02,462.26 127.63,462.26 "/>
    <polygon class="fil0" points="80.97,462.66 82.96,462.66 82.96,462.26 80.97,462.26 "/>
    <polygon class="fil0" points="352.58,462.66 354.58,462.66 354.58,462.26 352.58,462.26 "/>
    <path class="fil0" d="M315.09 265.63c-0.6,-0.86 -0.06,-0.53 -1.2,-0.8 0.6,0.86 0.06,0.53 1.2,0.8z"/>
    <path class="fil0" d="M315.09 265.63c0.6,0.86 0.06,0.53 1.2,0.8 -0.61,-0.88 -0.07,-0.5 -1.2,-0.8z"/>
    <polygon class="fil0" points="204.61,131.62 204.61,132.02 205.07,131.69 "/>
    <polygon class="fil0" points="114.47,37.89 114.47,38.29 114.93,37.96 "/>
    <path class="fil0" d="M4.79 0.4c0.04,0.04 0.12,-0.18 0.12,-0.12l0 0c-0.01,0.01 -0.16,0.08 -0.12,0.12z"/>
    <polygon class="fil0" points="114.47,37.89 114.07,37.49 "/>
    <polygon class="fil0" points="114.07,37.49 113.67,37.09 "/>
   </g>
  </g>
 </g>
</svg>
