<?xml version="1.0" encoding="UTF-8" standalone="no"?>
<svg
   xmlns:dc="http://purl.org/dc/elements/1.1/"
   xmlns:cc="http://creativecommons.org/ns#"
   xmlns:rdf="http://www.w3.org/1999/02/22-rdf-syntax-ns#"
   xmlns:svg="http://www.w3.org/2000/svg"
   xmlns="http://www.w3.org/2000/svg"
   id="svg8382"
   version="1.1"
   viewBox="0 0 14.033259 15.287511"
   height="15.287511mm"
   width="14.033259mm">
  <defs
     id="defs8376" />
  <metadata
     id="metadata8379">
    <rdf:RDF>
      <cc:Work
         rdf:about="">
        <dc:format>image/svg+xml</dc:format>
        <dc:type
           rdf:resource="http://purl.org/dc/dcmitype/StillImage" />
        <dc:title></dc:title>
      </cc:Work>
    </rdf:RDF>
  </metadata>
  <g
     transform="translate(-22.46551,-19.334675)"
     id="layer1">
    <g
       transform="matrix(0.03751406,0,0,0.03751406,-165.23909,-59.059206)"
       id="_739678977872"
       style="clip-rule:evenodd;fill-rule:evenodd;image-rendering:optimizeQuality;shape-rendering:geometricPrecision;text-rendering:geometricPrecision">
      <g
         id="g6682">
        <path
           style="fill:#ccfeaa"
           id="path6678"
           d="m 5188.93,2222.48 c 0.33,-1.77 2.42,-5.64 3.28,-7.65 1.06,-2.49 1.97,-5.09 2.98,-7.64 8.4,-21.26 12.48,-49.8 -0.4,-70.01 -2.88,-4.52 -6.25,-7.74 -10.9,-10.59 -5.22,-3.2 -9.49,-4.4 -16.5,-4.89 -3.07,-0.21 -0.34,-0.79 -4.78,0.08 -3.86,0.76 -10.23,0.88 -13.27,-1.45 3.31,-0.06 7.59,-0.93 10.71,-1.69 3.73,-0.91 6.63,-1.49 10.63,-1.86 7.75,-0.71 15.39,0.31 21.58,3.17 6.84,3.16 9.38,6.5 12.88,12.1 7.44,11.92 9.65,26.32 9.1,40.91 -0.28,7.34 -1.5,14.71 -4.16,20.94 -4.52,10.57 -7.41,15.12 -14.06,23.48 -1.32,1.66 -3.76,3.38 -4.88,4.52 -0.84,0.86 -0.79,0.84 -2.2,0.58 z"
           class="fil0" />
        <path
           style="fill:#ccfeaa"
           id="path6680"
           d="m 5295.99,2148.91 c -0.48,0.36 0.09,0.13 -0.61,0.26 -1.19,0.23 -14.84,-2.08 -19.01,-1.36 -8.23,1.42 -9.87,1.4 -16.7,5.28 -9.84,5.59 -17.33,10.88 -25.21,18.51 -0.63,0.61 -1.11,1.13 -1.67,1.79 -3.04,3.57 -5.41,6.45 -7.86,10.67 -1.32,2.28 -1.45,2.59 -3.37,3.96 -0.57,-0.32 -0.12,0.13 -0.33,-0.55 1.07,-4.67 1.61,-8.6 2.42,-13.41 1.3,-7.77 0.29,-7.68 4.23,-11.52 5.3,-5.15 10.96,-9.55 17.71,-13.93 3.11,-2.02 6.73,-4.74 10.47,-5.28 12.99,-1.9 22.44,-1.8 34.55,3.07 1.85,0.75 3.84,1.94 5.38,2.52 z"
           class="fil0" />
      </g>
      <g
         id="g6688">
        <path
           style="fill:#75b93b"
           id="path6684"
           d="m 5149.33,2120.33 c 3.04,2.34 9.41,2.21 13.27,1.45 4.44,-0.87 1.71,-0.3 4.78,-0.08 7.01,0.49 11.28,1.69 16.5,4.89 4.65,2.85 8.02,6.07 10.9,10.59 12.88,20.21 8.8,48.75 0.4,70.01 -1.01,2.55 -1.91,5.16 -2.98,7.64 -0.86,2 -2.95,5.88 -3.28,7.65 l -1.08,-0.21 1.93,-5.43 c 1.6,-4.96 3.42,-14.73 3.36,-19.9 -0.1,-8.16 -2.73,-19.12 -6.37,-24.8 -3.86,-6.01 -9.56,-10.54 -17.27,-13.86 -5.93,-2.56 -13,-4.02 -19.67,-2.63 -2.29,0.48 -4.36,1.52 -6.16,1.86 -0.58,-8.49 -5.56,-18.08 -9.62,-22.82 -4.56,-5.33 -10.62,-9.8 -19.39,-12.99 -9.49,-3.45 -17.01,-4.2 -27.61,-1.88 -7.71,1.69 -13.04,5.08 -19.18,9.23 -0.58,0.39 -2.04,1.21 -2.39,1.53 -0.07,-0.84 0.71,-5.36 0.82,-7 0.45,-7.15 1.75,-13.5 6.99,-18.03 10.74,-9.29 39.06,-9.78 52.99,-1.37 5.96,3.6 8.62,7.42 13.22,11.73 1.73,1.62 3.24,2.18 3.66,2.52 0.92,0.75 0.1,0.34 0.75,1.41 1.65,-0.02 0.82,-0.58 2.59,-0.1 0.86,0.23 2.12,0.31 2.85,0.61 z"
           class="fil12" />
        <path
           style="fill:#75b93b"
           id="path6686"
           d="m 5295.99,2148.91 c 11.8,7.99 21.65,25.3 28.8,30.23 -1.83,1.32 -2.95,-0.18 -7.98,4.38 -2.29,2.07 -3.43,4.11 -6.26,6.1 -4.01,2.81 -12.15,7.03 -19.02,5.75 -5.17,-0.96 -7.78,-6.73 -13.83,-10.88 -11.5,-7.89 -26.4,-5.06 -34.8,5.66 -5.14,6.55 -5.5,10.88 -8.39,16.56 -2.35,4.61 -3.02,3.43 -8.54,3.33 -8.95,-0.15 -15.09,4.47 -19.29,11.59 -0.95,1.61 -1.17,2.72 -1.96,4.37 l -4.38,-1.04 c 0.53,-1.14 2.34,-3.02 3.18,-4.03 3.53,-4.22 6.19,-7.69 8.95,-13.02 2.5,-4.81 4.93,-9.65 6.9,-14.85 0.54,-1.43 1.4,-4.64 1.87,-5.59 0.22,0.68 -0.24,0.23 0.33,0.55 1.92,-1.37 2.05,-1.68 3.37,-3.96 2.45,-4.23 4.82,-7.1 7.86,-10.67 0.56,-0.66 1.05,-1.18 1.67,-1.79 7.88,-7.63 15.37,-12.92 25.21,-18.51 6.83,-3.88 8.47,-3.86 16.7,-5.28 4.17,-0.72 17.82,1.6 19.01,1.36 0.7,-0.14 0.13,0.09 0.61,-0.26 z"
           class="fil12" />
      </g>
      <g
         id="g6694">
        <path
           style="fill:#446e22"
           id="path6690"
           d="m 5137.54,2168.74 c 1.31,0.22 1.64,-0.29 2.54,-0.85 0.93,-0.58 1.54,-0.79 2.54,-1.16 1.73,-0.65 3.1,-1.56 4.97,-2.18 7.85,-2.6 16.58,-0.45 23.33,3.68 3.23,1.98 5.52,3.83 7.58,6.99 6.4,9.83 8.09,23.83 4.33,35.16 l -2.79,8.07 c -0.48,1.03 -1.06,1.37 -1.52,2.16 l -2.23,-0.23 c 0.15,-5.56 1.38,-7.22 -1.74,-14.28 -1.6,-3.63 -4.69,-6.41 -8.56,-7.99 -8.83,-3.6 -19.2,-1.05 -29.95,-0.67 -2.41,0.09 -5.44,-0.04 -7.77,-0.45 -2.62,-0.46 -4.49,-1.19 -3.64,-4.29 1.51,-5.48 1.76,-8.48 -0.14,-13.84 -2.68,-7.55 -9.02,-13.95 -17.19,-16.16 -8.6,-2.32 -21.05,-0.04 -28.8,2.66 -12,4.18 -22.64,14.43 -37.25,5.81 -10.98,-6.48 -8.52,-16.79 -21.57,-24.14 -0.44,-0.25 -0.78,-0.43 -1.3,-0.67 l -1.44,-0.79 c 1.5,-1.64 4.22,-3.77 6.35,-5.02 5.39,-3.17 14.52,-0.77 20.83,-0.3 3.75,0.28 6.81,0.72 10.88,0.77 9.5,0.1 11.53,-1.28 17.81,-5.3 5.13,-3.29 8.4,-5.97 15.52,-7.7 7.03,-1.71 13.4,-1.68 20.24,0.33 11.65,3.41 20.34,9.92 24.79,21.4 2.76,7.11 2.98,15.94 4.21,19.02 z"
           class="fil2" />
        <path
           style="fill:#446e22"
           id="path6692"
           d="m 5326.82,2282.8 c 0.53,-7.47 1.28,-10 -1.31,-17.92 -1.64,-5.02 -4.65,-9.62 -7.41,-12.84 -10.92,-12.74 -28.17,-19.15 -35.19,-25.59 -3.37,-3.09 -6.23,-6.95 -9.5,-10.76 -1.8,-2.1 -5.14,-6.18 -7.03,-8.04 -2.17,-2.12 -6.04,-4.86 -9.3,-6.02 -3.69,-1.31 -4.73,-1.01 -8.76,-1.37 5.06,-9.96 15.58,-13.32 23.87,-7.32 7.17,5.19 9.99,14.07 24.77,12.46 5.72,-0.62 9.67,-2 14.14,-4.36 14.34,-7.56 10.74,-16.64 23.05,-12.49 2.24,0.75 1.48,-0.1 3.32,1.37 0.95,0.76 1.62,1.27 2.65,2.04 4.91,3.72 11.78,8.19 15.94,11.98 3.48,3.17 5.16,6.04 7.63,11.15 1.02,2.1 2.03,4.28 2.91,6.47 0.81,2 0.84,6.05 0.97,8.46 0.3,5.37 -1.29,11.56 -3.03,15.8 -5.2,12.64 -15.07,23.1 -26.33,29.75 -2.13,1.26 -10.43,6.9 -11.4,7.22 z"
           class="fil2" />
      </g>
      <path
         style="fill:#f5edda"
         id="path6696"
         d="m 5200.79,2236.61 c -0.46,0.38 0.03,0.21 -0.69,0.24 -0.02,0 -0.67,-0.1 -0.79,-0.12 -2.82,-0.58 -10.05,-2.18 -12.14,-2.17 1.42,0.85 8,2.62 10.21,3.32 10.53,3.32 18.39,7.3 26.5,14.76 9.66,8.88 17.03,20.08 23.16,31.68 10.31,19.52 14.69,45.96 12.58,68.8 -0.96,10.38 -11.32,30.4 -16.85,38.27 -4.66,6.62 -6.85,9.31 -12.09,15.33 -6.94,7.97 -20.72,18.86 -29.84,25.01 -7.55,5.09 -16.94,11 -25.09,15.92 -2.98,1.8 -9.39,6.21 -12.03,8.48 -0.62,0.53 -1.11,1.19 -1.79,1.67 -3.83,2.79 -5.14,2.79 -9.84,7.46 -3.76,3.74 -7.57,9.33 -9.63,14.58 -0.39,1 -0.4,1.78 -1.38,2.22 -3.13,-0.74 -8.25,-3.44 -11.04,-4.93 -3.53,-1.89 -6.9,-3.96 -9.95,-6.11 -3.23,-2.28 -6.5,-4.5 -9.18,-6.89 -2.79,-2.48 -6.64,-4.73 -8.9,-7.16 l -16.49,-15.62 c -5.07,-5.38 -9.81,-11.53 -14.57,-17.8 -8.94,-11.78 -17.25,-25.33 -22.88,-41.6 -2.86,-8.26 -4.46,-17.39 -5.3,-26.75 -0.45,-4.98 -0.18,-10.59 0.29,-15.54 0.47,-4.92 0.59,-10.06 1.47,-14.78 3.14,-16.86 6.38,-27.66 13.9,-42.22 3.55,-6.86 4.27,-8.41 9.36,-14.84 31.45,-39.67 79.26,-43.56 126.47,-32.8 2.03,0.46 4.61,1.3 6.51,1.58 z"
         class="fil13" />
      <path
         style="fill:#373435"
         id="path6698"
         d="m 5200.79,2236.61 c -1.89,-0.27 -4.47,-1.11 -6.51,-1.58 -47.21,-10.76 -95.01,-6.87 -126.47,32.8 -5.1,6.43 -5.82,7.98 -9.36,14.84 -7.52,14.56 -10.76,25.36 -13.9,42.22 -0.88,4.72 -1,9.86 -1.47,14.78 -0.47,4.94 -0.74,10.56 -0.29,15.54 0.84,9.36 2.44,18.49 5.3,26.75 5.63,16.28 13.94,29.82 22.88,41.6 4.76,6.27 9.5,12.42 14.57,17.8 l 16.49,15.62 c 2.26,2.43 6.11,4.68 8.9,7.16 2.68,2.38 5.94,4.6 9.18,6.89 3.04,2.15 6.41,4.22 9.95,6.11 2.78,1.49 7.9,4.19 11.04,4.93 1.87,1.1 14.37,3.96 15.87,3.97 0.01,-3.86 0.83,-9.78 1.99,-13.2 1.06,-3.12 3.28,-8.05 5.1,-9.96 3.32,-3.49 16.04,-6.06 22.16,-7.97 5.32,-1.66 5.78,-1.75 11.08,-4 10.19,-4.34 20.75,-9.65 29.78,-15.43 12.68,-8.12 27.45,-21.38 36.5,-31.44 l 7.36,-7.71 c 4,-3.95 4.2,-4.89 7.05,-8.03 14.14,-15.63 20.01,-41.86 15.73,-63.87 -3.23,-16.59 -11.2,-30.29 -19.24,-41.08 -2.22,-2.99 -4.61,-5.5 -6.95,-8.12 -9.62,-10.74 -21.43,-19 -34.31,-25.95 -3.29,-1.78 -6.64,-3.45 -10.18,-4.9 -3.5,-1.43 -7.1,-2.95 -10.85,-4.23 -3.26,-1.11 -7.75,-2.8 -11.38,-3.52 z m -98.9,-146.89 h -2.55 c -7.85,0.18 -16.88,1.94 -23.08,4.48 -2.57,1.05 -5.37,2.57 -7.45,4.16 -3.29,2.53 -4.68,4.55 -6.77,8.05 -0.45,0.75 -0.67,1.07 -1.03,1.94 -1.82,4.39 -2.93,9.46 -3.08,14.22 -0.36,12.06 1.41,10.13 -8.15,9.89 -1.65,-0.04 -3.21,-0.45 -4.94,-0.5 -4.44,-0.11 -7.53,-0.99 -12.11,-0.99 -8.78,0 -19.04,4.21 -24.17,10.66 -1.19,1.49 -4.98,5.09 -4.98,6.63 0,2.04 1.83,1 4.19,1.5 6.51,1.38 6.69,3.22 9.89,5.67 1.51,1.16 2.8,2.39 3.99,3.92 l 1.94,3.25 c 1.96,3.79 4.36,7.71 7.35,10.68 10.44,10.38 23.8,11.65 37.12,5.62 l 7.5,-3.62 c 3.71,-1.86 7.11,-2.96 11.22,-3.85 6.85,-1.48 15.5,-2.98 22.13,0.72 1.78,0.99 3.35,2.3 4.58,3.82 9.32,11.55 -0.2,15.34 3.9,23.03 2.51,4.69 8.76,6.3 13.91,6.35 l 4.45,-0.01 c 1.7,-0.1 3.45,0.16 5.13,-0.07 1.17,-0.16 3.24,-0.31 4.52,-0.42 3.78,-0.33 10.13,-1.82 13.61,-0.78 2.38,0.71 4.92,1.63 6.71,3.43 1.96,1.97 2.79,6.86 2.91,9.71 0.05,1.2 -0.18,1.28 -0.26,2.22 -2.24,0 -4.42,-0.52 -6.92,-0.49 -1.6,0.02 -2.13,-0.22 -3.45,-0.26 -2.9,-0.09 -11.07,-0.25 -13.49,0.11 l -10.24,0.88 c -4.49,0.3 -9.04,1.28 -12.89,2.18 -5.45,1.28 -15.26,3.84 -20.13,6.3 -0.92,0.47 -1.71,0.77 -2.59,1.12 -3.36,1.34 -6.78,3.42 -9.93,5.14 -0.9,0.5 -1.58,1.06 -2.4,1.55 -0.83,0.5 -1.44,0.9 -2.26,1.44 -1.58,1.05 -2.87,1.93 -4.36,3.05 -1.5,1.13 -2.83,2.17 -4.29,3.37 l -9.24,8.55 c -0.03,0.04 -0.09,0.09 -0.13,0.12 l -10.54,12.93 c -0.52,0.79 -1.07,1.48 -1.52,2.19 -1.97,3.09 -3.87,6.22 -5.53,9.54 l -6.59,12.19 c -0.39,0.85 -0.7,1.66 -1.09,2.62 -0.43,1.03 -0.88,1.66 -1.28,2.67 -0.37,0.94 -0.55,1.9 -0.87,2.84 -4.01,11.92 -6.48,25.35 -7.13,38.08 -0.52,10.08 -0.48,20.84 1.16,30.71 1.96,11.76 5.26,23.25 10.61,33.86 0.54,1.08 0.84,2.03 1.4,3.05 0.57,1.06 1,1.73 1.57,2.88 l 3.22,5.68 c 3.85,6.44 8.16,12.49 12.64,18.48 0.65,0.86 1.2,1.72 1.95,2.5 l 6.06,7.29 c 0.73,0.78 1.39,1.53 2.09,2.36 l 2.05,2.4 c 1.59,2.08 11.52,12.46 13.1,13.83 0.86,0.74 1.45,1.33 2.28,2.16 1.53,1.53 3.17,2.65 4.98,3.91 3.02,2.11 6.08,4.27 8.85,6.71 l 6.07,5.05 c 1.8,1.22 3.37,2.5 5.18,3.71 l 11.35,6.44 c 1.26,0.56 1.87,0.91 3.25,1.2 1.23,0.25 7.43,3.05 9.58,3.77 6.89,2.3 14.28,3.76 21.4,5.28 1.6,0.34 2.1,0.56 3.62,0.3 0.77,-0.13 1.17,-0.15 1.5,-0.76 0.29,-0.53 -0.54,-13.05 0.9,-18.35 0.38,-1.39 0.88,-2.06 1.3,-3.15 1.17,-3.1 2.08,-6.41 4.89,-8.45 1.18,-0.86 8.23,-2.54 10.18,-3.16 2.42,-0.77 4.62,-1.2 7.3,-1.59 10.57,-1.54 20.69,-5.44 30.12,-10.15 8.17,-4.08 16.02,-9.07 23.28,-14.52 0.54,-0.41 0.65,-0.55 1.23,-0.99 0.94,-0.71 1.6,-1.21 2.5,-1.95 3.62,-2.93 8.82,-7.28 12,-10.48 l 16.35,-17.01 c 0.42,-0.54 0.6,-0.66 1.03,-1.2 l 6.09,-7.25 11.2,-15.72 c 1.79,-2.91 2.97,-5.79 4.47,-8.88 4.24,-8.75 7.25,-23.01 7.25,-32.77 0,-10.51 -0.9,-16.34 -3.36,-26.29 -0.84,-3.38 -1.95,-6.31 -3.03,-9.32 -0.55,-1.54 -1.18,-2.89 -1.8,-4.38 -4,-9.7 -9.69,-18.82 -16.31,-26.93 l -5.71,-6.64 c -2.12,-2.08 -3.74,-4.28 -6.15,-6.2 -0.64,-0.51 -1.04,-0.99 -1.63,-1.58 -0.65,-0.66 -0.96,-0.79 -1.6,-1.36 -1.15,-1.03 -2.1,-1.87 -3.32,-2.85 -0.68,-0.54 -1.11,-0.9 -1.75,-1.46 -2.76,-2.43 -5.95,-4.24 -8.88,-6.44 -5.51,-4.13 -17.64,-10.58 -23.96,-13.1 -4.11,-1.63 -9.19,-4.13 -13.41,-5.12 0.09,-1.12 0.85,-2.21 1.37,-3.07 0.75,-1.25 0.9,-1.56 1.9,-2.55 0.81,-0.8 1.37,-1.47 2.35,-2.09 2.56,-1.6 2.96,-1.3 4.31,-0.73 4.88,2.06 12.29,0.48 15.87,-4.29 1.07,-1.43 1.63,-3.28 3.26,-4.16 1.84,-0.98 3.56,-1.63 5.78,-1.63 11.83,0 9.08,2.94 16,10.19 1.58,1.66 2.95,3.77 4.3,5.58 1.38,1.85 2.98,3.42 4.6,5.04 9.44,9.44 22.41,13.99 31.38,21.99 2.18,1.94 4.32,3.89 6.14,6.21 l 2.9,4.26 c 1.33,2.45 2.09,3.94 2.97,6.91 0.38,1.28 0.72,2.78 0.86,4.09 0.25,2.39 0.15,2.08 0.04,4.16 -0.16,3.13 -0.81,5.09 -1.54,8.1 -0.29,1.21 -0.54,2.62 0.23,3.83 2.17,3.37 6.32,0.71 8.93,-0.35 l 4.97,-2.19 c 0.88,-0.39 1.53,-0.72 2.55,-1.15 l 2.27,-1.44 c 0.52,-0.28 4.64,-1.26 7.95,-2.92 3.92,-1.97 7.62,-4.25 11.01,-7.03 l 5.56,-5.31 c 3.1,-3.09 5.58,-6.63 8.02,-10.26 4.86,-7.23 9.09,-18.36 9.09,-26.98 0,-5.21 -0.83,-13.21 -3.6,-17.15 -2.05,-2.91 -2.73,-8.84 -7.3,-14.94 l -2.93,-3.49 c -0.45,-0.59 -0.84,-1.04 -1.44,-1.52 -1.24,-0.99 -2.25,-1.95 -3.5,-2.93 l -7.37,-5.47 c -0.67,-0.5 -1.2,-0.79 -1.91,-1.3 -3.72,-2.69 -9.1,-6.5 -12.4,-9.59 -0.71,-0.66 -0.97,-0.87 -1.71,-1.5 -2.25,-1.89 -6.45,-5.61 -8.08,-7.73 -1.42,-1.84 -3.13,-3.27 -4.56,-5.08 -0.43,-0.55 -0.85,-1.12 -1.33,-1.64 -1.06,-1.14 -1.98,-2.33 -2.9,-3.52 -0.95,-1.22 -1.88,-2.28 -2.89,-3.54 -1.91,-2.37 -3.81,-4.52 -5.94,-6.65 -4.67,-4.67 -8.79,-7.32 -15.31,-10.14 -12.16,-5.25 -25.48,-5.6 -38.44,-3.46 -9.72,1.6 -15.79,3.47 -24.09,9.02 -1.74,1.16 -3.23,2.22 -4.88,3.52 -1.49,1.17 -2.83,2.86 -4.31,3.85 -0.72,-1.5 -1.36,-6.5 -2.26,-8.86 -1,-2.64 -1.94,-5.24 -3.17,-7.7 -1.8,-3.59 -4.15,-6.64 -6.57,-9.74 -0.88,-1.13 -1.65,-1.81 -2.64,-2.8 -2.28,-2.28 -4.8,-4.32 -7.55,-6.04 -7.98,-5 -17.15,-6.62 -26.74,-6.62 -3.56,0 -7.66,0.61 -10.65,1.21 -2.51,0.51 -4.55,1.23 -6.93,1.97 -1.95,0.6 -5.68,1.28 -7.44,0.85 -0.72,-0.18 -1.52,-0.55 -2.06,-0.92 -0.45,-0.31 -1.24,-0.96 -1.64,-1.32 -0.53,-0.46 -0.99,-0.96 -1.49,-1.48 -0.62,-0.64 -0.73,-0.97 -1.35,-1.62 -4.89,-5.08 -9.99,-9.77 -16.66,-12.5 -4.36,-1.78 -9,-3.03 -13.73,-3.81 -1.54,-0.25 -3.36,-0.26 -5.16,-0.52 -1.5,-0.22 -3.12,-0.35 -4.83,-0.39 z m 224.93,193.09 c 0.96,-0.32 9.27,-5.96 11.4,-7.22 11.26,-6.66 21.13,-17.11 26.33,-29.75 1.74,-4.25 3.33,-10.43 3.03,-15.8 -0.14,-2.41 -0.17,-6.45 -0.97,-8.46 -0.88,-2.2 -1.89,-4.37 -2.91,-6.47 -2.48,-5.11 -4.15,-7.98 -7.63,-11.15 -4.16,-3.78 -11.03,-8.26 -15.94,-11.98 -1.02,-0.77 -1.7,-1.29 -2.65,-2.04 -1.84,-1.46 -1.09,-0.61 -3.32,-1.37 -12.31,-4.15 -8.71,4.93 -23.05,12.49 -4.47,2.36 -8.43,3.74 -14.14,4.36 -14.79,1.62 -17.6,-7.27 -24.77,-12.46 -8.29,-6 -18.81,-2.64 -23.87,7.32 4.04,0.36 5.07,0.06 8.76,1.37 3.26,1.15 7.13,3.89 9.3,6.02 1.89,1.86 5.23,5.94 7.03,8.04 3.27,3.81 6.13,7.67 9.5,10.76 7.02,6.44 24.27,12.84 35.19,25.59 2.76,3.22 5.77,7.82 7.41,12.84 2.59,7.92 1.84,10.45 1.31,17.92 z m -30.83,-133.9 c -1.55,-0.58 -3.53,-1.77 -5.38,-2.52 -12.11,-4.87 -21.56,-4.97 -34.55,-3.07 -3.75,0.55 -7.37,3.27 -10.47,5.28 -6.75,4.39 -12.41,8.78 -17.71,13.93 -3.95,3.84 -2.93,3.75 -4.23,11.52 -0.81,4.81 -1.35,8.75 -2.42,13.41 -0.47,0.95 -1.33,4.16 -1.87,5.59 -1.97,5.2 -4.4,10.04 -6.9,14.85 -2.76,5.33 -5.42,8.8 -8.95,13.02 -0.85,1.01 -2.65,2.89 -3.18,4.03 l 4.38,1.04 c 0.79,-1.65 1.01,-2.76 1.96,-4.37 4.21,-7.12 10.35,-11.74 19.29,-11.59 5.51,0.09 6.19,1.28 8.54,-3.33 2.89,-5.68 3.25,-10 8.39,-16.56 8.4,-10.72 23.3,-13.55 34.8,-5.66 6.05,4.15 8.66,9.91 13.83,10.88 6.87,1.28 15.01,-2.94 19.02,-5.75 2.84,-1.99 3.97,-4.03 6.26,-6.1 5.03,-4.56 6.15,-3.06 7.98,-4.38 -7.15,-4.93 -17,-22.24 -28.8,-30.23 z m -158.45,19.83 c -1.23,-3.08 -1.45,-11.92 -4.21,-19.02 -4.44,-11.47 -13.14,-17.99 -24.79,-21.4 -6.84,-2 -13.21,-2.04 -20.24,-0.33 -7.12,1.73 -10.38,4.41 -15.52,7.7 -6.28,4.02 -8.32,5.41 -17.81,5.3 -4.07,-0.05 -7.13,-0.49 -10.88,-0.77 -6.31,-0.46 -15.44,-2.86 -20.83,0.3 -2.13,1.25 -4.85,3.38 -6.35,5.02 l 1.44,0.79 c 0.52,0.24 0.86,0.43 1.3,0.67 13.05,7.35 10.59,17.66 21.57,24.14 14.61,8.62 25.25,-1.63 37.25,-5.81 7.75,-2.7 20.2,-4.98 28.8,-2.66 8.17,2.21 14.51,8.6 17.19,16.16 1.9,5.36 1.65,8.36 0.14,13.84 -0.85,3.1 1.02,3.83 3.64,4.29 2.34,0.41 5.36,0.54 7.77,0.45 10.75,-0.38 21.12,-2.92 29.95,0.67 3.87,1.58 6.97,4.36 8.56,7.99 3.11,7.06 1.88,8.72 1.74,14.28 l 2.23,0.23 c 0.46,-0.79 1.04,-1.12 1.52,-2.16 l 2.79,-8.07 c 3.76,-11.33 2.07,-25.33 -4.33,-35.16 -2.06,-3.17 -4.35,-5.02 -7.58,-6.99 -6.75,-4.13 -15.48,-6.29 -23.33,-3.68 -1.87,0.62 -3.24,1.53 -4.97,2.18 -1,0.37 -1.61,0.58 -2.54,1.16 -0.9,0.57 -1.23,1.07 -2.54,0.85 z m 51.39,53.75 c 1.41,0.26 1.35,0.28 2.2,-0.58 1.11,-1.14 3.55,-2.85 4.88,-4.52 6.66,-8.36 9.54,-12.9 14.06,-23.48 2.66,-6.23 3.88,-13.6 4.16,-20.94 0.55,-14.59 -1.66,-28.99 -9.1,-40.91 -3.5,-5.6 -6.04,-8.94 -12.88,-12.1 -6.19,-2.86 -13.83,-3.88 -21.58,-3.17 -3.99,0.37 -6.9,0.95 -10.63,1.86 -3.12,0.76 -7.39,1.62 -10.71,1.69 -0.73,-0.29 -1.99,-0.38 -2.85,-0.61 -1.78,-0.48 -0.95,0.07 -2.59,0.1 -0.65,-1.07 0.16,-0.66 -0.75,-1.41 -0.41,-0.34 -1.93,-0.9 -3.66,-2.52 -4.6,-4.31 -7.26,-8.12 -13.22,-11.73 -13.93,-8.41 -42.24,-7.92 -52.99,1.37 -5.24,4.53 -6.54,10.87 -6.99,18.03 -0.1,1.64 -0.89,6.16 -0.82,7 0.35,-0.32 1.81,-1.14 2.39,-1.53 6.14,-4.15 11.47,-7.54 19.18,-9.23 10.61,-2.32 18.12,-1.56 27.61,1.88 8.77,3.19 14.83,7.66 19.39,12.99 4.06,4.74 9.03,14.34 9.62,22.82 1.79,-0.34 3.86,-1.38 6.16,-1.86 6.67,-1.39 13.75,0.07 19.67,2.63 7.71,3.32 13.41,7.86 17.27,13.86 3.64,5.68 6.27,16.63 6.37,24.8 0.07,5.17 -1.76,14.95 -3.36,19.9 l -1.93,5.43 1.08,0.21 z"
         class="fil14" />
      <path
         style="fill:#c4b48f"
         id="path6700"
         d="m 5200.79,2236.61 c 3.63,0.72 8.12,2.41 11.38,3.52 3.75,1.28 7.35,2.8 10.85,4.23 3.55,1.45 6.89,3.12 10.18,4.9 12.89,6.95 24.7,15.21 34.31,25.95 2.35,2.62 4.73,5.14 6.95,8.12 8.03,10.79 16.01,24.49 19.24,41.08 4.28,22.01 -1.59,48.24 -15.73,63.87 -2.84,3.14 -3.05,4.08 -7.05,8.03 l -7.36,7.71 c -9.05,10.07 -23.83,23.32 -36.5,31.44 -9.03,5.78 -19.59,11.09 -29.78,15.43 -5.3,2.26 -5.76,2.35 -11.08,4 -6.12,1.91 -18.84,4.48 -22.16,7.97 -1.82,1.91 -4.04,6.84 -5.1,9.96 -1.16,3.41 -1.99,9.34 -1.99,13.2 -1.5,-0.01 -14,-2.88 -15.87,-3.97 0.98,-0.44 0.99,-1.22 1.38,-2.22 2.06,-5.25 5.86,-10.84 9.63,-14.58 4.7,-4.67 6.01,-4.67 9.84,-7.46 0.67,-0.49 1.17,-1.15 1.79,-1.67 2.64,-2.27 9.05,-6.68 12.03,-8.48 8.15,-4.92 17.54,-10.83 25.09,-15.92 9.12,-6.16 22.9,-17.04 29.84,-25.01 5.24,-6.02 7.43,-8.71 12.09,-15.33 5.53,-7.87 15.89,-27.89 16.85,-38.27 2.11,-22.84 -2.27,-49.28 -12.58,-68.8 -6.13,-11.61 -13.49,-22.8 -23.16,-31.68 -8.11,-7.46 -15.97,-11.43 -26.5,-14.76 -2.21,-0.7 -8.79,-2.47 -10.21,-3.32 2.09,0 9.32,1.59 12.14,2.17 0.12,0.02 0.77,0.12 0.79,0.12 0.72,-0.03 0.23,0.14 0.69,-0.24 z"
         class="fil15" />
    </g>
  </g>
</svg>
