<?xml version="1.0" encoding="UTF-8" standalone="no"?>
<!-- Creator: CorelDRAW 2018 (64-Bit) -->

<svg
   xmlns:dc="http://purl.org/dc/elements/1.1/"
   xmlns:cc="http://creativecommons.org/ns#"
   xmlns:rdf="http://www.w3.org/1999/02/22-rdf-syntax-ns#"
   xmlns:svg="http://www.w3.org/2000/svg"
   xmlns="http://www.w3.org/2000/svg"
   xmlns:sodipodi="http://sodipodi.sourceforge.net/DTD/sodipodi-0.dtd"
   xmlns:inkscape="http://www.inkscape.org/namespaces/inkscape"
   xml:space="preserve"
   width="0.49920043in"
   height="0.54500198in"
   version="1.1"
   style="clip-rule:evenodd;fill-rule:evenodd;image-rendering:optimizeQuality;shape-rendering:geometricPrecision;text-rendering:geometricPrecision"
   viewBox="0 0 337.99835 369.00735"
   id="svg8192"
   sodipodi:docname="bells.svg"
   inkscape:version="0.92.4 (5da689c313, 2019-01-14)"><metadata
   id="metadata8196"><rdf:RDF><cc:Work
       rdf:about=""><dc:format>image/svg+xml</dc:format><dc:type
         rdf:resource="http://purl.org/dc/dcmitype/StillImage" /><dc:title></dc:title></cc:Work></rdf:RDF></metadata><sodipodi:namedview
   pagecolor="#ffffff"
   bordercolor="#666666"
   borderopacity="1"
   objecttolerance="10"
   gridtolerance="10"
   guidetolerance="10"
   inkscape:pageopacity="0"
   inkscape:pageshadow="2"
   inkscape:window-width="875"
   inkscape:window-height="1029"
   id="namedview8194"
   showgrid="false"
   inkscape:zoom="1.141342"
   inkscape:cx="-23.857818"
   inkscape:cy="28.329255"
   inkscape:window-x="640"
   inkscape:window-y="24"
   inkscape:window-maximized="0"
   inkscape:current-layer="Layer_x0020_1" />
 <defs
   id="defs6382">
  <style
   type="text/css"
   id="style6377">
   <![CDATA[
    .str1 {stroke:#373435;stroke-width:4.7;stroke-miterlimit:2.61313}
    .str0 {stroke:black;stroke-width:4.51;stroke-miterlimit:2.61313}
    .str5 {stroke:black;stroke-width:8.72;stroke-miterlimit:2.61313}
    .str9 {stroke:black;stroke-width:8.72;stroke-miterlimit:2.61313}
    .str2 {stroke:black;stroke-width:4.7;stroke-miterlimit:2.61313}
    .str3 {stroke:black;stroke-width:4.7;stroke-miterlimit:2.61313}
    .str4 {stroke:black;stroke-width:4.7;stroke-miterlimit:2.61313}
    .str7 {stroke:#ED8970;stroke-width:2.28;stroke-linecap:round;stroke-linejoin:round;stroke-miterlimit:2.61313}
    .str11 {stroke:#ED8970;stroke-width:2.28;stroke-linecap:round;stroke-linejoin:round;stroke-miterlimit:2.61313}
    .str6 {stroke:#ED8970;stroke-width:1.69;stroke-linecap:round;stroke-linejoin:round;stroke-miterlimit:2.61313}
    .str10 {stroke:#ED8970;stroke-width:1.69;stroke-linecap:round;stroke-linejoin:round;stroke-miterlimit:2.61313}
    .str8 {stroke:#ED8970;stroke-width:2.59;stroke-linecap:round;stroke-linejoin:round;stroke-miterlimit:2.61313}
    .str12 {stroke:#ED8970;stroke-width:2.59;stroke-linecap:round;stroke-linejoin:round;stroke-miterlimit:2.61313}
    .str14 {stroke:black;stroke-width:6.49;stroke-miterlimit:2.61313;stroke-dasharray:12.976431 19.464646}
    .str15 {stroke:black;stroke-width:6.49;stroke-miterlimit:2.61313;stroke-dasharray:12.976431 19.464646}
    .str13 {stroke:black;stroke-width:6.49;stroke-miterlimit:2.61313;stroke-dasharray:12.976431 19.464646}
    .str16 {stroke:black;stroke-width:6.49;stroke-miterlimit:2.61313;stroke-dasharray:12.976431 19.464646}
    .fil22 {fill:none}
    .fil14 {fill:#373435}
    .fil7 {fill:black}
    .fil39 {fill:black}
    .fil43 {fill:#254DB0}
    .fil35 {fill:#3B0909}
    .fil2 {fill:#446E22}
    .fil29 {fill:#50D960}
    .fil1 {fill:#74B93B}
    .fil12 {fill:#75B93B}
    .fil25 {fill:#789ED6}
    .fil6 {fill:#86D442}
    .fil28 {fill:#B3B3B3}
    .fil38 {fill:#BAD5E3}
    .fil15 {fill:#C4B48F}
    .fil9 {fill:#C4B490}
    .fil0 {fill:#CCFEAA}
    .fil17 {fill:#D18E4D}
    .fil3 {fill:#D28E4D}
    .fil20 {fill:#DB2E16}
    .fil8 {fill:#DC2E16}
    .fil31 {fill:#E36464}
    .fil33 {fill:#ED8970}
    .fil5 {fill:#F4ECD9}
    .fil13 {fill:#F5EDDA}
    .fil18 {fill:#FCCA91}
    .fil19 {fill:#FCCB93}
    .fil23 {fill:#FCD929}
    .fil4 {fill:#FECC94}
    .fil36 {fill:#FFB5B5}
    .fil30 {fill:#FFB82B}
    .fil34 {fill:#FFD333}
    .fil21 {fill:#FFFBE0}
    .fil24 {fill:white}
    .fil27 {fill:white}
    .fil11 {fill:black;fill-rule:nonzero}
    .fil10 {fill:black;fill-rule:nonzero}
    .fil37 {fill:#254DB0;fill-rule:nonzero}
    .fil40 {fill:#50D960;fill-rule:nonzero}
    .fil16 {fill:#CC6C52;fill-rule:nonzero}
    .fil42 {fill:#E36464;fill-rule:nonzero}
    .fil32 {fill:#FF7E0D;fill-rule:nonzero}
    .fil41 {fill:#FFB82B;fill-rule:nonzero}
    .fil26 {fill:white;fill-rule:nonzero}
   ]]>
  </style>
   <clipPath
   id="id0">
    <rect
   y="924.71002"
   width="4574.79"
   height="5418.8799"
   id="rect6379"
   x="0" />
   </clipPath>
 
   
   
   
   
   
   
   
   
   
   
   
   
   
   
   
   
   
   
   
   
   
   
   
   
   
   
   
   
   
   
   
   
   
   
   
   
   
   
   
   
   
   
   
   
   
   
   
   
   
   
   
   
   
   
   
   
   
   
   
   
   
   
   
   
   
   
   
   
   
   
   
   
   
   
  
   
   
   
   
   
   
  </defs>
 <g
   id="Layer_x0020_1"
   transform="translate(-4922.0417,-2552.484)">
  <metadata
   id="CorelCorpID_0Corel-Layer" />
  
  
  
  
  
  
  
  
  
  
  
  
  
  
  
  
  
  
  
  
  
  
  
  
  
  
  
  
  <g
   id="_739678982640">
   <g
   id="g6755">
    <path
   class="fil17"
   d="m 5165.71,2765.47 c 0.21,1.34 1.15,3.56 1.59,4.99 2.14,6.95 5.68,19.06 5.1,25.93 -0.58,6.98 -2.01,14.57 -4.05,21.17 -1.41,4.55 -3.85,8.22 -6.98,11.78 -2.5,2.85 -6.27,7.48 -8.88,9.88 l -7.78,4.96 c -2.58,1.7 -5.01,3.41 -7.45,5.06 -2.57,1.74 -4.75,3.43 -7.31,5.2 -3.18,2.19 -4.22,3.59 -7.74,4.76 -12.93,4.32 -26.33,7.62 -40.46,9.77 -8.15,1.24 -15.35,0.24 -23.49,-0.44 -31.89,-2.64 -67.63,-14.63 -93.25,-32.49 -6.75,-4.7 -8.45,-6.17 -14.34,-10.9 -1.19,-0.95 -2.16,-1.89 -3.32,-2.93 -1.17,-1.04 -2.18,-1.86 -3.23,-3.03 l -5.45,-5.48 c -0.59,-0.59 -0.23,-0.38 -0.98,-0.78 1.75,14.89 9.27,29.81 18.1,41.29 2.06,2.68 4.25,4.9 5.73,6.78 l 4.08,4.41 c 3.57,3.61 7.25,6.66 11.14,9.86 11.04,9.1 29.04,18.93 43.18,24.07 6.19,2.25 6.09,2.89 12.95,3.98 27.84,4.42 50.04,4.88 78.83,3.13 14.29,-0.87 31.39,-2.91 45.66,-5.19 12.54,-2 9.73,-1.56 20.44,-4.77 3.86,-1.16 8.51,-3.19 12.13,-4.84 15.3,-6.98 13.9,-6.38 25.54,-16.24 3.05,-2.58 6.34,-5 9,-7.98 2.57,-2.88 5.29,-5.7 7.79,-8.97 1.51,-1.98 2.11,-2.79 3.19,-5.31 0.87,-2.01 1.51,-4.05 2.1,-6.41 3.65,-14.69 1.56,-30.29 -1.89,-44.74 -1,-4.21 -6.26,-23.61 -8.03,-25.38 -6.22,2.31 -7.43,1.31 -10.43,-3.3 l -3.11,-4.93 c -0.92,-1.63 -1.68,-3.66 -2.54,-5.51 -1.4,-3.01 -8.86,-18.59 -10.95,-21.21 0.39,5.44 3.47,11.24 3.29,13.83 -0.34,5.02 -3.8,7.52 -8.36,8.58 -4.9,1.14 -9.83,1.58 -15.04,1.86 -2.68,0.14 -5.29,0.33 -7.85,0.68 -1.36,0.19 -2.47,0.58 -3.96,0.26 -1.66,-0.35 -1.74,-0.62 -2.95,-1.4 z"
   id="path6751"
   inkscape:connector-curvature="0"
   style="fill:#d18e4d" />
    <path
   class="fil17"
   d="m 5135,2659.35 c 1.48,1.32 14.48,4.21 18.03,4.96 2.27,0.49 10.25,1.35 12.49,1.51 4.66,0.34 2.06,-0.02 7.41,-1.21 8.72,-1.94 15.66,0.59 23.38,3.37 4.3,1.55 9.21,3.23 13.48,5.07 4.13,1.78 5,2.38 9.66,4.17 4.74,1.82 4.38,2.1 11.51,2.41 3.27,0.14 6.06,-0.18 9.17,-0.23 3.05,-0.05 5.72,-0.06 8.05,-1.4 2.87,-1.65 2.29,-3.77 0.34,-5.72 -2.8,-2.78 -6.33,-4.9 -9.06,-9.48 -5.93,-9.95 -0.12,-19.17 3.47,-28.71 2.25,-6.01 -2.69,-9.44 -6,-11.65 -7.19,-4.82 -18.09,-8.4 -19.46,-17.61 -0.82,-5.54 3.13,-9.53 4.6,-13.72 1.8,-5.13 -3.44,-10.69 -5.75,-12.28 0.11,0.89 0.19,0.43 -0.51,1.11 -4.5,4.35 -8.66,10.31 -9.43,16.76 -1.39,11.54 3.39,13.31 9.66,18.04 2.42,1.83 17.19,14.78 17.7,17.13 0.23,1.1 0.62,5.26 0.51,6.31 -0.35,3.4 -2.65,7.97 -5.02,8.83 -6.55,2.38 -18.02,-0.36 -25.29,-1 -5.99,-0.53 -13.51,-0.72 -19.5,0.46 -5.02,0.98 -11.42,0.92 -18.72,2.27 -4.55,0.85 -9.6,2.63 -10.97,2.88 -4.21,0.74 -7.39,1.09 -11.21,2.62 -6.35,2.54 -6.99,4.4 -8.54,5.12 z"
   id="path6753"
   inkscape:connector-curvature="0"
   style="fill:#d18e4d" />
   </g>
   <path
   class="fil18"
   d="m 4990.51,2821.27 c -0.62,-1.14 0.43,-2.95 0.86,-4.21 4.89,-14.36 10.01,-29.83 15.02,-43.92 0.88,-2.48 -0.3,-3.7 -1.99,-7.76 l -9.39,-22.56 c -4.95,-12.39 -6.86,-12.52 -0.29,-11.84 6.58,0.67 13.22,1.18 19.77,1.77 l 14.73,1.33 c 1.79,0.16 3.12,0.63 4.46,-0.26 l 39.27,-25.09 c 1.7,-0.65 1.76,1.59 2.06,2.96 2.31,10.69 5.1,21.85 7.44,32.61 0.27,1.25 0.11,1.16 1.04,1.64 l 32.23,16.02 c 1.22,0.6 2.38,1.22 3.57,1.81 1.43,0.71 2.82,0.81 2.64,2.55 l -9.61,5.51 c -3.09,1.74 -6.41,3.65 -9.55,5.42 -6.4,3.6 -12.72,7.33 -19.22,10.93 -3.01,1.67 -2.45,0.77 -2.83,4.69 -0.22,2.32 -0.45,4.62 -0.69,6.98 -0.62,6.14 -3.73,39.66 -4.31,40.81 -1.48,0.36 -2.11,-0.69 -2.93,-1.58 l -7.59,-7.15 c -0.87,-0.77 -1.6,-1.67 -2.45,-2.47 -0.9,-0.85 -1.75,-1.45 -2.61,-2.31 -3.07,-3.05 -9.34,-9.19 -12.46,-11.88 l -9.98,-9.46 c -0.92,-0.89 -1.42,-1.67 -2.44,-2.33 -0.43,-0.09 -10.11,4.05 -11.36,4.57 l -22.1,9.19 c -1.74,0.72 -10.02,4.7 -11.29,4.04 z m -52.83,-8.34 c 0.75,0.4 0.4,0.19 0.98,0.78 l 5.45,5.48 c 1.06,1.17 2.07,1.98 3.23,3.03 1.16,1.04 2.13,1.98 3.32,2.93 5.89,4.73 7.59,6.2 14.34,10.9 25.61,17.86 61.36,29.85 93.25,32.49 8.14,0.68 15.35,1.68 23.49,0.44 14.12,-2.15 27.53,-5.45 40.46,-9.77 3.52,-1.18 4.56,-2.57 7.74,-4.76 2.56,-1.77 4.74,-3.45 7.31,-5.2 2.44,-1.66 4.87,-3.37 7.45,-5.06 l 7.78,-4.96 c 2.61,-2.4 6.38,-7.03 8.88,-9.88 3.13,-3.56 5.57,-7.23 6.98,-11.78 2.04,-6.59 3.47,-14.19 4.05,-21.17 0.57,-6.87 -2.97,-18.98 -5.1,-25.93 -0.44,-1.43 -1.38,-3.65 -1.59,-4.99 -0.3,-0.66 -0.65,-0.91 -0.93,-1.66 -0.82,-2.23 -0.55,-4.78 -0.51,-7.18 0.23,-10.99 -0.34,-17.43 -1.63,-28.51 -1.02,-8.81 -2.22,-17.13 -5.5,-25.28 l -3.13,-6.88 c -14.45,-1.22 -27.8,-5.22 -39.46,-10.32 -5.76,-2.52 -11.15,-5.59 -16.87,-8.16 -4.52,-2.03 -16.7,-7.52 -20.42,-10.66 -1.06,-0.9 -1.78,-2.56 -3.56,-2.68 -3.59,-0.26 -8.51,0.14 -12.08,0.47 -19.4,1.82 -39.91,9.38 -55.66,18.93 -35.17,21.32 -62.26,64.36 -68.31,106.09 -1.22,8.4 -0.72,15.09 0.02,23.29 z"
   id="path6757"
   inkscape:connector-curvature="0"
   style="fill:#fcca91" />
   <path
   class="fil7"
   d="m 4937.68,2812.93 c -0.75,-8.2 -1.24,-14.89 -0.02,-23.29 6.05,-41.73 33.15,-84.77 68.31,-106.09 15.74,-9.54 36.26,-17.11 55.66,-18.93 3.57,-0.33 8.5,-0.73 12.08,-0.47 1.78,0.13 2.5,1.79 3.56,2.68 3.72,3.14 15.9,8.63 20.42,10.66 5.72,2.56 11.12,5.64 16.87,8.16 11.66,5.09 25.01,9.1 39.46,10.32 l 3.13,6.88 c 3.28,8.14 4.48,16.47 5.5,25.28 1.29,11.08 1.85,17.52 1.63,28.51 -0.05,2.4 -0.32,4.96 0.51,7.18 0.28,0.75 0.62,1 0.93,1.66 1.21,0.77 1.28,1.04 2.95,1.4 1.49,0.32 2.6,-0.07 3.96,-0.26 2.57,-0.35 5.17,-0.54 7.85,-0.68 5.21,-0.28 10.13,-0.71 15.04,-1.86 4.56,-1.06 8.03,-3.56 8.36,-8.58 0.18,-2.59 -2.9,-8.39 -3.29,-13.83 2.09,2.63 9.55,18.2 10.95,21.21 0.86,1.85 1.62,3.88 2.54,5.51 l 3.11,4.93 c 3,4.61 4.21,5.61 10.43,3.3 1.78,1.77 7.03,21.18 8.03,25.38 3.45,14.46 5.54,30.05 1.89,44.74 -0.59,2.35 -1.23,4.4 -2.1,6.41 -1.09,2.51 -1.68,3.33 -3.19,5.31 -2.5,3.27 -5.22,6.09 -7.79,8.97 -2.66,2.97 -5.96,5.39 -9,7.98 -11.64,9.86 -10.24,9.26 -25.54,16.24 -3.61,1.65 -8.27,3.68 -12.13,4.84 -10.71,3.21 -7.91,2.77 -20.44,4.77 -14.27,2.28 -31.37,4.33 -45.66,5.19 -28.79,1.74 -50.99,1.29 -78.83,-3.13 -6.86,-1.09 -6.76,-1.72 -12.95,-3.98 -14.14,-5.14 -32.14,-14.97 -43.18,-24.07 -3.89,-3.2 -7.57,-6.25 -11.14,-9.86 l -4.08,-4.41 c -1.49,-1.87 -3.67,-4.1 -5.73,-6.78 -8.83,-11.48 -16.35,-26.4 -18.1,-41.29 z m 251.06,-138.96 c 0.02,-0.02 0.07,0.03 0.07,0.07 z m -19.1,87.69 c 0.07,-6.07 0.26,-11.65 0.03,-17.76 l -1.59,-15.85 c -1.21,-11.83 -4.12,-26.13 -10.06,-36.09 -0.49,-0.82 -0.26,-0.75 -1.31,-0.97 -1.14,-0.25 -2.48,-0.45 -3.65,-0.6 -15.72,-2.04 -26.32,-4.54 -40.65,-11.8 -9.03,-4.57 -21.76,-9.94 -29.55,-14.47 -2.71,-1.57 -2.32,-2.08 -3.6,-3.09 -5.05,-4 -3.45,-8.38 -1.23,-14.05 0.83,-2.12 1.92,-4 3.12,-5.79 4.48,-6.69 7.05,-0.92 9.22,0.24 2.59,1.38 1.68,1.95 3.19,3.29 2.79,2.46 1.35,2.11 4.77,3.95 1.06,0.57 1.82,0.99 2.89,1.58 13.02,7.07 29.07,14.34 43.53,17.63 4.95,1.13 9.72,2.02 14.91,2.86 2.47,0.4 5.41,0.2 8.02,0.67 5.53,1 13.96,5.1 18.7,7.59 4.17,2.19 5.73,3.71 8.09,5.09 1.01,0.59 1.66,0.94 2.65,1.6 6.8,4.5 7.03,4.4 12.68,9.43 l 19.59,19.73 c 4.67,6.1 6.34,7.56 11.29,15.07 2.41,3.66 4.45,7.1 6.89,10.54 1.25,1.76 2.38,3.45 3.67,5.27 0.9,1.27 2.68,3.82 3.12,5.6 0.81,3.26 -1.47,4.28 -3.07,5.5 -1.59,1.21 -3.35,2.41 -5.17,3.53 -4.29,2.64 -19.82,11.68 -22.96,12.14 l -4.91,-7.82 c -2.77,-6.13 -5.06,-11.12 -8.21,-17.05 -4.32,-8.12 -8.9,-16.3 -13.89,-23.87 -1.44,-2.19 -8.95,-13.91 -10.28,-14.8 0.26,1.3 1.07,3.22 1.49,4.6 0.46,1.48 0.86,3.02 1.26,4.53 0.83,3.15 1.6,6.26 2.48,9.35 0.93,3.26 1.56,6.11 2.34,9.49 0.73,3.17 1.91,5.42 2.62,9.02 l 2.48,9.32 c -0.1,5.01 -13.66,4.96 -18.08,5.27 -3.76,0.27 -7.11,0.58 -10.82,1.11 z m -34.63,-102.31 c -3.17,-0.35 -18.45,-7.07 -21.96,-8.87 -3.48,-1.8 -6.7,-3.56 -10.05,-5.35 -1.91,-1.02 -3.45,-1.74 -4.59,-3.01 -1.16,-1.29 -2.11,-2.8 -3.46,-4.12 -0.08,-1.87 2.08,-9 2.73,-10.89 1.13,-3.26 2.49,-6.53 3.81,-9.6 3.95,-9.2 13.45,-22.05 20.68,-30.02 2.61,-2.87 5.58,-5.69 8.5,-8.26 7.12,-6.29 15.91,-12.18 25.26,-15.15 16.45,-5.23 28.37,-3.07 42.61,5.84 1.44,0.9 2.71,1.68 4.15,2.56 5,3.06 10.85,4.14 13.65,6.35 2.31,1.58 7.55,7.14 5.75,12.28 -1.47,4.19 -5.42,8.18 -4.6,13.72 1.37,9.21 12.27,12.79 19.46,17.61 3.3,2.22 8.24,5.65 6,11.65 -3.58,9.55 -9.4,18.76 -3.47,28.71 2.73,4.58 6.26,6.7 9.06,9.48 1.95,1.94 2.53,4.06 -0.34,5.72 -2.33,1.34 -5,1.35 -8.05,1.4 -3.11,0.05 -5.9,0.37 -9.17,0.23 -7.13,-0.31 -6.77,-0.59 -11.51,-2.41 -4.66,-1.79 -5.53,-2.39 -9.66,-4.17 -4.27,-1.84 -9.18,-3.52 -13.48,-5.07 -7.73,-2.78 -14.66,-5.32 -23.38,-3.37 -5.36,1.19 -2.75,1.55 -7.41,1.21 -2.24,-0.16 -10.21,-1.02 -12.49,-1.51 -3.54,-0.75 -16.54,-3.64 -18.03,-4.96 z m -49.25,-26.71 c -1.51,0 -2.62,0.32 -3.81,0.66 -3.05,0.88 -5.01,4.3 -6.54,6.86 -1.18,1.99 -2.13,3.82 -2.92,6.02 -0.42,1.17 -0.78,2.11 -1.11,3.35 -0.25,0.91 -0.75,2.85 -0.81,3.65 -2.09,0 -3.92,0.42 -5.74,0.96 l -10.31,1.08 c -2.52,0.36 -5.22,0.8 -7.65,1.28 -7.28,1.46 -14.74,3.18 -21.74,5.52 -7.05,2.36 -13.86,5.35 -20.39,8.87 l -4.4,2.53 c -1.02,0.55 -1.84,1.08 -2.79,1.68 l -8.08,5.54 c -3.48,2.62 -6.74,5.19 -10,8.1 -0.51,0.45 -0.71,0.5 -1.23,1 l -13.51,13.74 c -3.2,3.6 -6.27,7.32 -9.08,11.24 -0.34,0.48 -0.61,0.81 -0.96,1.27 -15.59,20.89 -27.24,44.66 -31.46,70.86 -0.45,2.8 -0.48,5.49 -0.9,8.26 -0.28,1.89 -0.33,5.62 -0.26,7.77 l 0.16,4.65 c 0.34,6.41 1.84,13.67 3.35,19.44 2.95,11.26 8.14,21.41 14.48,30.88 l 3.88,5.28 c 0.67,0.9 1.24,1.66 1.95,2.52 3.25,3.99 11.5,12.98 15.58,16.15 3.44,2.67 6.6,5.63 10.11,8.21 3.49,2.56 7.01,5 10.83,7.27 l 8.56,4.84 c 6.43,3.19 8.57,4.37 15.75,7.04 2.24,0.84 4.44,1.65 6.85,2.32 8.44,2.34 13.65,3.56 22.57,4.68 3.04,0.39 5.06,0.26 8.06,0.87 4.92,1 10.44,2.01 15.47,2.62 l 12.45,1.17 c 7.78,0.61 13.4,0.65 21.15,0.65 h 0.38 0.38 c 3.55,0 6.44,-0.24 9.83,-0.22 3.97,0.02 7.93,-0.57 11.84,-0.67 l 11.65,-1.09 c 6.19,-0.63 22.48,-2.19 26.95,-3.43 3.94,-1.1 8.61,-1.89 12.56,-2.85 2.7,-0.66 5.3,-1.33 8,-2.06 3,-0.81 8.55,-2.43 11.29,-3.67 l 15.64,-7.15 c 4.56,-2.13 10.97,-5.29 14.83,-8.18 4.83,-3.61 9.39,-7.36 13.63,-11.61 0.86,-0.86 1.91,-1.55 2.68,-2.46 2.3,-2.72 5,-5.17 7.24,-7.95 0.81,-1 1.48,-1.8 2.3,-2.84 l 2.07,-2.84 c 1.26,-2.27 2.71,-4.16 3.68,-6.6 0.47,-1.19 0.95,-2.39 1.47,-3.67 1.34,-3.28 3.15,-13.65 3.4,-16.93 l 0.39,-6.96 c 0.03,-0.59 -0.16,-1.41 -0.15,-2.41 0.02,-3.21 -0.69,-14.57 -1.24,-18.41 -0.11,-0.8 -0.05,-1.49 -0.18,-2.28 l -1.31,-6.51 c -2.05,-9.59 -4.88,-18.26 -8.13,-27.39 -0.43,-1.22 -1.16,-2.6 -1.42,-3.72 2.19,-0.51 9.46,-5.6 11.13,-6.75 2.47,-1.68 5.72,-3.56 6.98,-6.43 0.09,-0.21 0.88,-3.39 0.88,-3.58 0,-0.96 -0.5,-2.77 -0.76,-3.71 -0.98,-3.47 -3.29,-5.94 -5.23,-8.85 -2.52,-3.79 -5.17,-7.36 -7.49,-11.28 -1.15,-1.95 -2.38,-3.63 -3.64,-5.52 -3.36,-5.08 -7.43,-9.73 -11.23,-14.47 -1.72,-2.14 -3.73,-4 -5.68,-5.94 l -5.81,-5.81 c -0.54,-0.5 -0.8,-0.58 -1.35,-1.11 -0.83,-0.8 -1.5,-1.6 -2.34,-2.35 l -2.48,-2.21 c -1.8,-1.43 -3.2,-2.96 -5.04,-4.34 -2.3,-1.72 -8.88,-6.28 -11.22,-7.54 l -7.81,-4.93 c -0.33,-0.2 -0.53,-0.38 -0.76,-0.58 1.96,0.17 16.37,5.66 19.66,7.15 2.79,1.25 5.5,2.3 8.49,3.13 1.99,0.55 3.73,1.32 5.58,2.24 9.2,4.57 30.47,3.44 35.01,-6.78 0.59,-1.32 1.63,-4.26 1.63,-5.74 0,-7.13 -8.18,-10.09 -11.78,-13.68 -1.55,-1.54 -2.74,-2.96 -2.74,-5.98 0,-8.82 6.93,-15.8 6.93,-23.01 0,-4.6 -1.42,-7.64 -4.19,-10.78 -2.04,-2.31 -4.65,-4.12 -7.29,-5.89 -2.71,-1.81 -5.57,-3.13 -8.36,-4.82 -11.41,-6.89 -5.32,-8.07 -2.52,-16.74 2.72,-8.43 -3.65,-18 -10.77,-21.8 l -5.73,-2.99 c -0.6,-0.36 -1.11,-0.75 -1.75,-1.15 -1.31,-0.82 -2.36,-1.56 -3.69,-2.34 -5.16,-3.05 -9.55,-5.87 -15.12,-8.33 -18.65,-8.23 -40.22,-3.61 -56.56,7.32 -1.09,0.73 -1.95,1.36 -3.04,2.1 l -5.78,4.49 c -3.81,3.23 -7.18,6.57 -10.63,10.15 l -2.36,2.77 c -2.27,2.82 -4.78,5.52 -6.87,8.55 l -2.27,2.87 c -2.63,2.69 -4.51,5.9 -6.44,9.19 -0.7,1.19 -1.2,2.1 -1.92,3.21 -0.71,1.11 -1.31,1.97 -2.01,3.13 -1.22,2.01 -2.39,4.64 -3.37,6.91 -0.56,1.29 -0.91,2.37 -1.43,3.7 -0.5,1.27 -1.02,2.55 -1.36,3.78 -0.77,2.8 -2.2,5.5 -2.73,7.77 z"
   id="path6759"
   inkscape:connector-curvature="0"
   style="fill:#000000" />
   <path
   class="fil19"
   d="m 5135,2659.35 c 1.55,-0.72 2.18,-2.58 8.54,-5.12 3.82,-1.53 7,-1.88 11.21,-2.62 1.37,-0.24 6.41,-2.03 10.97,-2.88 7.3,-1.36 13.7,-1.29 18.72,-2.27 5.99,-1.18 13.51,-0.98 19.5,-0.46 7.27,0.64 18.74,3.38 25.29,1 2.37,-0.86 4.67,-5.43 5.02,-8.83 0.11,-1.05 -0.28,-5.21 -0.51,-6.31 -0.5,-2.35 -15.27,-15.31 -17.7,-17.13 -6.27,-4.72 -11.04,-6.5 -9.66,-18.04 0.78,-6.45 4.93,-12.42 9.43,-16.76 0.71,-0.68 0.63,-0.22 0.51,-1.11 -2.8,-2.21 -8.65,-3.29 -13.65,-6.35 -1.44,-0.88 -2.71,-1.66 -4.15,-2.56 -14.24,-8.9 -26.16,-11.07 -42.61,-5.84 -9.35,2.97 -18.14,8.86 -25.26,15.15 -2.92,2.57 -5.89,5.39 -8.5,8.26 -7.23,7.97 -16.74,20.82 -20.68,30.02 -1.32,3.07 -2.68,6.34 -3.81,9.6 -0.65,1.88 -2.81,9.02 -2.73,10.89 1.35,1.32 2.3,2.83 3.46,4.12 1.14,1.27 2.68,1.99 4.59,3.01 3.35,1.8 6.57,3.56 10.05,5.35 3.51,1.8 18.79,8.53 21.96,8.87 z"
   id="path6761"
   inkscape:connector-curvature="0"
   style="fill:#fccb93" />
   <path
   class="fil14"
   d="m 4990.51,2821.27 c 1.27,0.66 9.55,-3.32 11.29,-4.04 l 22.1,-9.19 c 1.25,-0.53 10.93,-4.66 11.36,-4.57 1.03,0.66 1.53,1.44 2.44,2.33 l 9.98,9.46 c 3.13,2.69 9.4,8.83 12.46,11.88 0.86,0.86 1.71,1.46 2.61,2.31 0.85,0.8 1.58,1.7 2.45,2.47 l 7.59,7.15 c 0.82,0.89 1.45,1.94 2.93,1.58 0.58,-1.14 3.69,-34.67 4.31,-40.81 0.24,-2.36 0.47,-4.66 0.69,-6.98 0.37,-3.92 -0.18,-3.02 2.83,-4.69 6.5,-3.6 12.82,-7.33 19.22,-10.93 3.14,-1.77 6.46,-3.67 9.55,-5.42 l 9.61,-5.51 c 0.18,-1.74 -1.22,-1.84 -2.64,-2.55 -1.19,-0.59 -2.36,-1.2 -3.57,-1.81 l -32.23,-16.02 c -0.93,-0.48 -0.77,-0.39 -1.04,-1.64 -2.34,-10.76 -5.14,-21.92 -7.44,-32.61 -0.29,-1.36 -0.36,-3.6 -2.06,-2.96 l -39.27,25.09 c -1.34,0.89 -2.67,0.43 -4.46,0.26 l -14.73,-1.33 c -6.55,-0.59 -13.18,-1.1 -19.77,-1.77 -6.57,-0.67 -4.66,-0.55 0.29,11.84 l 9.39,22.56 c 1.69,4.05 2.87,5.28 1.99,7.76 -5.01,14.09 -10.13,29.56 -15.02,43.92 -0.43,1.26 -1.48,3.07 -0.86,4.21 z"
   id="path6763"
   inkscape:connector-curvature="0"
   style="fill:#373435" />
   <path
   class="fil20"
   d="m 5169.64,2761.67 c 3.71,-0.53 7.06,-0.84 10.82,-1.11 4.42,-0.31 17.98,-0.26 18.08,-5.27 l -2.48,-9.32 c -0.71,-3.6 -1.9,-5.84 -2.62,-9.02 -0.78,-3.38 -1.41,-6.23 -2.34,-9.49 -0.88,-3.09 -1.65,-6.2 -2.48,-9.35 -0.4,-1.52 -0.81,-3.05 -1.26,-4.53 -0.42,-1.37 -1.23,-3.29 -1.49,-4.6 1.33,0.89 8.83,12.61 10.28,14.8 4.99,7.58 9.57,15.75 13.89,23.87 3.15,5.93 5.44,10.92 8.21,17.05 l 4.91,7.82 c 3.14,-0.46 18.67,-9.49 22.96,-12.14 1.83,-1.12 3.59,-2.32 5.17,-3.53 1.6,-1.22 3.88,-2.24 3.07,-5.5 -0.44,-1.78 -2.22,-4.33 -3.12,-5.6 -1.29,-1.82 -2.42,-3.51 -3.67,-5.27 -2.44,-3.44 -4.48,-6.88 -6.89,-10.54 -4.96,-7.51 -6.62,-8.97 -11.29,-15.07 l -19.59,-19.73 c -5.65,-5.04 -5.88,-4.93 -12.68,-9.43 -0.99,-0.66 -1.64,-1 -2.65,-1.6 -2.36,-1.38 -3.92,-2.9 -8.09,-5.09 -4.75,-2.5 -13.18,-6.6 -18.7,-7.59 -2.61,-0.47 -5.55,-0.28 -8.02,-0.67 -5.19,-0.84 -9.96,-1.73 -14.91,-2.86 -14.46,-3.29 -30.51,-10.56 -43.53,-17.63 -1.07,-0.58 -1.84,-1.01 -2.89,-1.58 -3.43,-1.84 -1.99,-1.49 -4.77,-3.95 -1.52,-1.34 -0.61,-1.91 -3.19,-3.29 -2.17,-1.16 -4.74,-6.93 -9.22,-0.24 -1.2,1.79 -2.29,3.68 -3.12,5.79 -2.22,5.67 -3.82,10.05 1.23,14.05 1.28,1.01 0.9,1.52 3.6,3.09 7.79,4.53 20.52,9.9 29.55,14.47 14.33,7.26 24.93,9.75 40.65,11.8 1.17,0.15 2.51,0.35 3.65,0.6 1.05,0.23 0.82,0.15 1.31,0.97 5.94,9.96 8.86,24.26 10.06,36.09 l 1.59,15.85 c 0.22,6.11 0.03,11.69 -0.03,17.76 z"
   id="path6765"
   inkscape:connector-curvature="0"
   style="fill:#db2e16" />
  </g>
  
  
  
  
  
  
  
  
  
  
 </g>
</svg>