<?xml version="1.0" encoding="UTF-8" standalone="no"?>
<!-- Created with Inkscape (http://www.inkscape.org/) -->

<svg
   xmlns:dc="http://purl.org/dc/elements/1.1/"
   xmlns:cc="http://creativecommons.org/ns#"
   xmlns:rdf="http://www.w3.org/1999/02/22-rdf-syntax-ns#"
   xmlns:svg="http://www.w3.org/2000/svg"
   xmlns="http://www.w3.org/2000/svg"
   xmlns:sodipodi="http://sodipodi.sourceforge.net/DTD/sodipodi-0.dtd"
   xmlns:inkscape="http://www.inkscape.org/namespaces/inkscape"
   width="11.791044mm"
   height="8.9223166mm"
   viewBox="0 0 11.791044 8.9223172"
   version="1.1"
   id="svg8382"
   inkscape:version="0.92.4 (5da689c313, 2019-01-14)"
   sodipodi:docname="buttonicon.svg">
  <defs
     id="defs8376" />
  <sodipodi:namedview
     id="base"
     pagecolor="#ffffff"
     bordercolor="#666666"
     borderopacity="1.0"
     inkscape:pageopacity="0.0"
     inkscape:pageshadow="2"
     inkscape:zoom="1.4"
     inkscape:cx="18.824651"
     inkscape:cy="236.01183"
     inkscape:document-units="mm"
     inkscape:current-layer="layer1"
     showgrid="false"
     inkscape:window-width="397"
     inkscape:window-height="1029"
     inkscape:window-x="1519"
     inkscape:window-y="24"
     inkscape:window-maximized="0" />
  <metadata
     id="metadata8379">
    <rdf:RDF>
      <cc:Work
         rdf:about="">
        <dc:format>image/svg+xml</dc:format>
        <dc:type
           rdf:resource="http://purl.org/dc/dcmitype/StillImage" />
        <dc:title></dc:title>
      </cc:Work>
    </rdf:RDF>
  </metadata>
  <g
     inkscape:label="Layer 1"
     inkscape:groupmode="layer"
     id="layer1"
     transform="translate(-30.701033,-12.465388)">
    <g
       transform="matrix(0.03751406,0,0,0.03751406,-258.30691,-88.642507)"
       style="clip-rule:evenodd;fill-rule:evenodd;image-rendering:optimizeQuality;shape-rendering:geometricPrecision;text-rendering:geometricPrecision"
       id="_739678928336">
      <g
         id="g6963">
        <path
           style="fill:#000000"
           inkscape:connector-curvature="0"
           id="path6959"
           d="m 7758.26,2841.15 c -5.01,4.49 -4.06,19.87 -5.3,27.84 -0.82,5.2 -1.72,8.32 -3.91,12.57 -1.24,2.41 -5.71,7.02 -8.11,8.4 -5.29,3.04 -17.04,-2.25 -21.02,-10.38 -1.51,-3.08 -2.74,-9.1 -3.7,-12.81 -1.23,-4.75 -3.19,-23.45 -3.66,-29.11 -0.43,-5.1 -0.3,-11.17 -0.3,-16.35 0,-10.78 0.01,-21.81 0.33,-32.55 0.35,-11.56 0.88,-18.52 4.35,-28.71 1.23,-3.63 3.71,-8.1 5.69,-10.81 3.14,-4.29 5.33,-4.5 12.31,-3.45 11.85,1.78 16.97,9.63 22.29,19.15 0.61,1.1 0.83,1.75 1.99,2.22 4.91,2.02 3.63,-3.93 3.77,-7.97 0.1,-2.77 0.25,-4.67 1,-7.13 3.06,-10.05 5.05,-14.07 10.7,-22.32 4.46,-6.5 9.6,-13.01 15.44,-17.32 7.74,-5.72 13.78,-6.59 25.02,-8 9.56,-1.2 21.96,-1.28 31.72,-0.66 10.6,0.67 24.5,3.15 30.62,10.9 4.8,6.09 5.97,7.28 5.8,18.63 -8.97,0.38 -17.32,1.76 -26.2,2.25 -4.72,0.26 -9.44,0.22 -14.15,0.45 -3.02,0.15 -10.95,0.5 -9.06,4.69 1.08,2.39 9.1,2.04 12.22,2.17 17.25,0.7 23.06,-0.36 40.22,-1.62 9.6,-0.71 28.05,-3.09 37.68,-5.28 3.87,-0.88 7.71,-1.94 11.84,-2.28 8.99,-0.74 16.63,-2.43 26.08,-2.6 8.76,-0.15 17.36,0.77 24.88,3.5 6.97,2.54 14.53,5.86 18.09,10.48 3.52,4.56 6.19,16.28 4.82,23.4 -1.61,8.36 -5.47,14.1 -11.15,17.41 -6.91,4.03 -11.12,6.42 -20.34,7.94 -7.23,1.19 -19.87,1.13 -27.57,0.91 -18.24,-0.51 -32.94,-4.8 -50.04,-6.98 -2.56,-0.33 -19.92,-2.77 -21.11,1.73 -0.26,1 -0.13,2.21 -0.07,3.25 2.19,2.02 14.75,2.3 19.05,2.89 2.3,0.32 18.44,2.26 18.99,3.23 0.02,0.04 0.08,0.13 0.11,0.18 l 1.12,2.31 c 1.04,2.01 2.77,6.44 3.28,8.52 1.54,6.32 -0.59,14.55 -4.36,18.52 -4.15,4.36 -8.49,7.38 -15.18,8.41 -9.23,1.43 -27.03,-2.28 -25.07,6.17 1.03,4.44 7.78,2.55 11.95,2.32 6.45,-0.36 8.67,-0.33 12.7,2.91 3.25,2.62 5.01,4.37 5.39,10.33 0.29,4.57 -0.56,9.83 -1.96,13.78 -3.15,8.92 -8.47,12.68 -18.48,12.81 -5.04,0.06 -10.33,0.27 -15.22,-0.34 -2.06,-0.26 -5.27,-0.99 -7.3,-0.55 -4.04,0.87 -5.33,7.08 1.46,7.98 2.22,0.29 4.6,0.67 6.9,0.86 17.68,1.45 13.95,-2.86 18.37,4.22 1.17,1.88 1.64,2.38 1.78,5.01 0.32,6.06 -2.25,10.64 -6.7,13.74 -1.42,0.99 -2.73,1.65 -4.35,2.48 -13.34,6.79 -31.77,7.59 -46.59,4.76 -3.6,-0.69 -7.69,-1.29 -11.04,-2.32 -5.97,-1.82 -13.64,-5.54 -18.9,-8.36 -3.38,-1.81 -5.65,-3.04 -8.52,-5.12 -2.77,-2.01 -4.96,-3.98 -7.55,-6.07 l -5.56,-4.67 c -0.77,-0.63 -1.03,-0.83 -1.79,-1.62 -0.63,-0.66 -1.17,-0.95 -1.83,-1.58 l -16.66,-14 c -1.08,-1 -2.26,-2.07 -3.58,-2.99 -0.05,-1.67 1.19,-6.61 1.47,-8.86 0.51,-4.25 2.95,-26.22 -3.11,-26.52 z m -1.84,-91.39 c -1.04,-0.7 -1.46,-1.6 -2.42,-2.56 -2.41,-2.38 -5.38,-5.1 -8.55,-6.39 -1.12,-0.46 -2.3,-1.05 -3.49,-1.5 -4.39,-1.63 -9.06,-2.13 -14.12,-2.13 -5.76,0 -9.2,3.62 -12.1,7.56 -6.21,8.44 -9.1,18.92 -10.56,29.28 -0.56,3.96 -0.66,8.25 -0.66,12.45 l -0.27,6.54 c 0,9.06 -0.26,17.33 -0.26,26.47 l 0.52,20.45 1.33,12.56 c 0.46,6.03 1.35,12.56 2.92,18.31 0.47,1.72 0.96,3.38 1.41,5.41 1.17,5.35 3.36,10.19 7.25,13.98 5.78,5.66 12.88,8.71 21.44,8.71 5.52,0 11.53,-5.44 14.72,-9.4 l 3.37,-4.76 9.81,8.02 c 2.8,2.2 9.53,8 12.01,10.53 0.8,0.81 1.52,1.32 2.36,2.1 2.32,2.16 4.9,4.02 7.36,6.01 8.36,6.81 22.1,13.65 32.45,17.08 4.2,1.39 9.9,2.4 14.64,3.18 16.66,2.75 35.14,1.69 50.42,-5.94 8.76,-4.37 15.38,-12.1 15.38,-22.37 0,-6.93 -0.59,-6.54 -3.93,-11.53 1.68,-0.39 2.71,-1.13 4.08,-1.95 9,-5.39 11.42,-12.61 13.59,-22.59 1.1,-5.04 0.75,-12.13 -1.15,-16.36 -2.21,-4.92 -3.47,-4.3 -5.5,-7.34 4.33,-1.01 8.3,-3.34 11.57,-5.99 1.02,-0.83 2.06,-2.02 3.04,-2.99 3.33,-3.3 7.4,-11.08 7.4,-16.19 0,-7.25 -0.32,-11.76 -3.67,-18.09 14.1,3.28 29.61,2.28 44.05,2.11 1.35,-0.02 1.44,-0.21 2.61,-0.27 3.77,-0.2 4.42,-0.12 8.5,-0.94 7.37,-1.47 13.23,-4.01 19.5,-7.76 0.75,-0.45 1.24,-0.66 2,-1.15 1.74,-1.15 3.71,-2.25 5.06,-3.85 0.62,-0.74 0.74,-0.97 1.45,-1.7 0.57,-0.58 0.9,-1.06 1.43,-1.72 3.73,-4.6 6.89,-13.3 6.89,-20.63 0,-10.33 -2.9,-22.56 -11.46,-28.91 l -3.59,-2.44 c -7.39,-4.88 -16.83,-7.44 -25.43,-9.17 -13.22,-2.66 -27.06,-0.49 -40.1,1.36 -1.65,0.23 -3.21,0.23 -4.83,0.41 -2.8,0.3 -6.13,1.27 -8.88,1.86 l -13.51,2.48 c -2.6,0.44 -16.26,2.43 -19.06,2.43 0,-3.86 -0.18,-8.03 -0.94,-11.38 -0.97,-4.23 -2.93,-7.76 -5.8,-10.71 -3.33,-3.42 -4.63,-5 -9.09,-7.69 -10.88,-6.54 -26.73,-7.45 -42.36,-7.45 -11.45,0 -31.97,0.88 -42.19,6.83 -2.6,1.51 -5.06,3.03 -7.39,4.93 l -8.15,8.1 c -5.2,5.81 -11.99,15.47 -14.77,22.45 -1.6,4 -3.3,7.9 -4.31,12.21 z"
           class="fil7" />
        <path
           style="fill:#000000"
           inkscape:connector-curvature="0"
           id="path6961"
           d="m 7730.71,2766.15 c -3.94,1.28 -5.63,5.76 -6.6,10.52 -2.97,14.57 -4.15,32.52 -3.51,47.36 0.64,14.79 -0.29,16.06 2.79,31.33 0.96,4.8 1.42,9.75 2.73,14.32 1.17,4.07 2.61,10.21 7.49,9.83 7.54,-0.6 7.83,-18.15 8.03,-25.96 0.14,-5.51 0.62,-10.81 0.89,-16.27 0.27,-5.5 0.29,-11.22 0.38,-16.77 0.09,-5.41 0.57,-10.71 0.58,-16.24 0.01,-10.13 0.26,-22.2 -2.04,-31.95 -0.63,-2.65 -1.1,-4.23 -3.71,-4.93 -1.54,-0.41 -1.58,-0.92 -3.08,-1.15 -1.29,-0.19 -2.75,-0.49 -3.95,-0.1 z"
           class="fil7" />
      </g>
      <path
         style="fill:#ffffff"
         inkscape:connector-curvature="0"
         id="path6965"
         d="m 7730.71,2766.15 c 1.2,-0.39 2.65,-0.1 3.95,0.1 1.5,0.22 1.54,0.74 3.08,1.15 2.62,0.7 3.09,2.28 3.71,4.93 2.31,9.74 2.06,21.82 2.04,31.95 -0.01,5.53 -0.49,10.83 -0.58,16.24 -0.09,5.56 -0.11,11.28 -0.38,16.77 -0.27,5.46 -0.75,10.76 -0.89,16.27 -0.2,7.81 -0.49,25.36 -8.03,25.96 -4.88,0.38 -6.32,-5.75 -7.49,-9.83 -1.31,-4.57 -1.77,-9.52 -2.73,-14.32 -3.07,-15.27 -2.15,-16.55 -2.79,-31.33 -0.64,-14.85 0.53,-32.8 3.51,-47.36 0.97,-4.75 2.65,-9.24 6.6,-10.52 z m 27.55,74.99 c 6.06,0.3 3.62,22.28 3.11,26.52 -0.27,2.26 -1.51,7.19 -1.47,8.86 1.32,0.92 2.5,1.99 3.58,2.99 l 16.66,14 c 0.66,0.63 1.2,0.93 1.83,1.58 0.76,0.79 1.02,0.99 1.79,1.62 l 5.56,4.67 c 2.59,2.09 4.78,4.06 7.55,6.07 2.86,2.08 5.14,3.31 8.52,5.12 5.27,2.82 12.93,6.53 18.9,8.36 3.35,1.02 7.44,1.63 11.04,2.32 14.82,2.83 33.25,2.03 46.59,-4.76 1.62,-0.82 2.92,-1.49 4.35,-2.48 4.45,-3.1 7.03,-7.68 6.7,-13.74 -0.14,-2.63 -0.61,-3.13 -1.78,-5.01 -4.42,-7.08 -0.7,-2.77 -18.37,-4.22 -2.31,-0.19 -4.68,-0.57 -6.9,-0.86 -6.79,-0.9 -5.5,-7.11 -1.46,-7.98 2.03,-0.44 5.24,0.29 7.3,0.55 4.89,0.61 10.18,0.4 15.22,0.34 10.01,-0.13 15.33,-3.89 18.48,-12.81 1.4,-3.96 2.25,-9.21 1.96,-13.78 -0.38,-5.96 -2.14,-7.71 -5.39,-10.33 -4.03,-3.24 -6.24,-3.27 -12.7,-2.91 -4.17,0.23 -10.92,2.11 -11.95,-2.32 -1.95,-8.44 15.84,-4.74 25.07,-6.17 6.69,-1.03 11.04,-4.05 15.18,-8.41 3.77,-3.97 5.9,-12.21 4.36,-18.52 -0.51,-2.08 -2.24,-6.51 -3.28,-8.52 l -1.12,-2.31 c -0.03,-0.05 -0.09,-0.14 -0.11,-0.18 -0.55,-0.98 -16.69,-2.91 -18.99,-3.23 -4.29,-0.6 -16.85,-0.88 -19.05,-2.89 -0.06,-1.04 -0.19,-2.25 0.07,-3.25 1.18,-4.5 18.54,-2.06 21.11,-1.73 17.09,2.19 31.8,6.47 50.04,6.98 7.7,0.22 20.34,0.28 27.57,-0.91 9.22,-1.52 13.43,-3.91 20.34,-7.94 5.68,-3.31 9.54,-9.06 11.15,-17.41 1.37,-7.12 -1.3,-18.84 -4.82,-23.4 -3.57,-4.62 -11.12,-7.94 -18.09,-10.48 -7.51,-2.73 -16.12,-3.66 -24.88,-3.5 -9.45,0.17 -17.09,1.86 -26.08,2.6 -4.13,0.34 -7.97,1.4 -11.84,2.28 -9.63,2.18 -28.09,4.57 -37.68,5.28 -17.16,1.27 -22.98,2.32 -40.22,1.62 -3.12,-0.13 -11.14,0.22 -12.22,-2.17 -1.9,-4.19 6.04,-4.54 9.06,-4.69 4.72,-0.23 9.44,-0.19 14.15,-0.45 8.88,-0.49 17.23,-1.87 26.2,-2.25 0.17,-11.35 -1,-12.54 -5.8,-18.63 -6.12,-7.75 -20.02,-10.24 -30.62,-10.9 -9.76,-0.62 -22.16,-0.54 -31.72,0.66 -11.24,1.41 -17.28,2.29 -25.02,8 -5.85,4.32 -10.98,10.82 -15.44,17.32 -5.66,8.25 -7.64,12.27 -10.7,22.32 -0.75,2.46 -0.9,4.36 -1,7.13 -0.15,4.04 1.13,9.99 -3.77,7.97 -1.15,-0.47 -1.37,-1.13 -1.99,-2.22 -5.32,-9.51 -10.44,-17.36 -22.29,-19.15 -6.98,-1.05 -9.17,-0.84 -12.31,3.45 -1.99,2.71 -4.46,7.18 -5.69,10.81 -3.47,10.19 -3.99,17.15 -4.35,28.71 -0.33,10.74 -0.33,21.77 -0.33,32.55 0,5.18 -0.13,11.25 0.3,16.35 0.47,5.66 2.43,24.35 3.66,29.11 0.96,3.71 2.19,9.73 3.7,12.81 3.98,8.14 15.73,13.42 21.02,10.38 2.4,-1.38 6.88,-5.99 8.11,-8.4 2.18,-4.26 3.09,-7.38 3.91,-12.57 1.25,-7.97 0.29,-23.35 5.3,-27.84 z"
         class="fil24" />
    </g>
  </g>
</svg>
