<?xml version="1.0" encoding="UTF-8" standalone="no"?>
<!-- Created with Inkscape (http://www.inkscape.org/) -->

<svg
   xmlns:dc="http://purl.org/dc/elements/1.1/"
   xmlns:cc="http://creativecommons.org/ns#"
   xmlns:rdf="http://www.w3.org/1999/02/22-rdf-syntax-ns#"
   xmlns:svg="http://www.w3.org/2000/svg"
   xmlns="http://www.w3.org/2000/svg"
   xmlns:sodipodi="http://sodipodi.sourceforge.net/DTD/sodipodi-0.dtd"
   xmlns:inkscape="http://www.inkscape.org/namespaces/inkscape"
   width="13.39372mm"
   height="15.80387mm"
   viewBox="0 0 13.393719 15.803871"
   version="1.1"
   id="svg8382"
   inkscape:version="0.92.4 (5da689c313, 2019-01-14)"
   sodipodi:docname="item.svg">
  <defs
     id="defs8376" />
  <sodipodi:namedview
     id="base"
     pagecolor="#ffffff"
     bordercolor="#666666"
     borderopacity="1.0"
     inkscape:pageopacity="0.0"
     inkscape:pageshadow="2"
     inkscape:zoom="3.959798"
     inkscape:cx="-1.9762663"
     inkscape:cy="34.04406"
     inkscape:document-units="mm"
     inkscape:current-layer="layer1"
     showgrid="false"
     inkscape:window-width="956"
     inkscape:window-height="1029"
     inkscape:window-x="960"
     inkscape:window-y="24"
     inkscape:window-maximized="0" />
  <metadata
     id="metadata8379">
    <rdf:RDF>
      <cc:Work
         rdf:about="">
        <dc:format>image/svg+xml</dc:format>
        <dc:type
           rdf:resource="http://purl.org/dc/dcmitype/StillImage" />
        <dc:title></dc:title>
      </cc:Work>
    </rdf:RDF>
  </metadata>
  <g
     inkscape:label="Layer 1"
     inkscape:groupmode="layer"
     id="layer1"
     transform="translate(-14.030961,22.776135)">
    <g
       transform="matrix(0.05602893,0,0,0.05602893,-298.01113,-292.76227)"
       style="clip-rule:evenodd;fill-rule:evenodd;image-rendering:optimizeQuality;shape-rendering:geometricPrecision;text-rendering:geometricPrecision"
       id="g7681">
      <path
         style="fill:none;stroke:#000000;stroke-width:8.72000027;stroke-miterlimit:2.61313009"
         inkscape:connector-curvature="0"
         id="path7677"
         d="m 5601.66,4850.14 135.53,-23.89 c 12.88,-2.27 25.27,6.41 27.54,19.28 l 31.95,181.18 c 2.27,12.88 -6.41,25.27 -19.29,27.54 l -135.53,23.9 c -12.88,2.27 -25.27,-6.41 -27.54,-19.29 l -31.95,-181.17 c -2.27,-12.88 6.41,-25.27 19.28,-27.54 z"
         class="fil22 str9" />
      <path
         style="fill:#ffffff"
         inkscape:connector-curvature="0"
         d="m 5601.66,4850.14 135.53,-23.89 c 12.88,-2.27 25.27,6.41 27.54,19.28 l 31.95,181.18 c 2.27,12.88 -6.41,25.27 -19.29,27.54 l -135.53,23.9 c -12.88,2.27 -25.27,-6.41 -27.54,-19.29 l -31.95,-181.17 c -2.27,-12.88 6.41,-25.27 19.28,-27.54 z"
         class="fil27"
         id="path7679" />
    </g>
    <g
       transform="matrix(0.05602893,0,0,0.05602893,-298.01113,-292.76227)"
       style="clip-rule:evenodd;fill-rule:evenodd;image-rendering:optimizeQuality;shape-rendering:geometricPrecision;text-rendering:geometricPrecision"
       id="g7687">
      <path
         style="fill:#000000;fill-rule:nonzero"
         inkscape:connector-curvature="0"
         id="path7683"
         d="m 5727.37,4851.75 -107.75,19 -1.35,-7.67 107.75,-19 v 0 z m 25.04,10.83 -7.63,1.35 v 0 l -0.15,-0.75 -0.19,-0.74 -0.22,-0.73 -0.26,-0.7 -0.29,-0.69 -0.32,-0.66 -0.35,-0.64 -0.38,-0.63 -0.41,-0.6 -0.44,-0.58 -0.46,-0.55 -0.49,-0.53 -0.51,-0.51 -0.55,-0.49 -0.56,-0.46 -0.58,-0.43 -0.61,-0.4 -0.63,-0.38 -0.63,-0.34 -0.66,-0.31 -0.67,-0.28 -0.68,-0.25 -0.7,-0.22 -0.71,-0.18 -0.71,-0.15 -0.72,-0.11 -0.74,-0.08 -0.74,-0.04 h -0.75 l -0.76,0.03 -0.76,0.07 -0.77,0.11 -1.35,-7.67 1.15,-0.17 1.15,-0.11 1.14,-0.06 1.14,0.01 1.13,0.06 1.12,0.11 1.11,0.17 1.09,0.23 1.07,0.27 1.05,0.32 1.04,0.38 1.01,0.43 0.99,0.47 0.97,0.52 0.94,0.56 0.9,0.6 0.88,0.65 0.85,0.69 0.81,0.73 0.78,0.77 0.74,0.81 0.71,0.85 0.66,0.88 0.63,0.91 0.58,0.95 0.54,0.98 0.49,1.02 0.44,1.04 0.39,1.07 0.34,1.09 0.29,1.12 0.23,1.15 v 0 z m 19.22,153.68 -26.86,-152.33 7.63,-1.35 26.86,152.33 z m -10.84,25.05 -1.35,-7.67 v 0 l 0.75,-0.15 0.74,-0.19 0.73,-0.22 0.7,-0.26 0.68,-0.29 0.66,-0.32 0.64,-0.36 0.63,-0.38 0.6,-0.41 0.58,-0.44 0.55,-0.47 0.54,-0.5 0.51,-0.51 0.48,-0.54 0.46,-0.57 0.43,-0.58 0.4,-0.6 0.37,-0.62 0.34,-0.64 0.31,-0.66 0.28,-0.67 0.25,-0.68 0.22,-0.7 0.18,-0.7 0.14,-0.71 0.11,-0.73 0.08,-0.73 0.04,-0.74 v -0.75 l -0.04,-0.75 -0.07,-0.76 -0.11,-0.76 7.63,-1.35 0.18,1.16 0.11,1.15 0.05,1.15 v 1.14 l -0.06,1.13 -0.11,1.12 -0.17,1.1 -0.22,1.1 -0.28,1.08 -0.33,1.06 -0.38,1.03 -0.42,1.01 -0.47,0.99 -0.51,0.96 -0.56,0.94 -0.61,0.91 -0.65,0.88 -0.69,0.85 -0.73,0.82 -0.77,0.78 -0.8,0.74 -0.85,0.71 -0.88,0.66 -0.91,0.63 -0.94,0.58 -0.98,0.54 -1.02,0.5 -1.04,0.44 -1.07,0.39 -1.09,0.34 -1.12,0.29 z m -109.11,11.33 107.75,-19 1.35,7.67 -107.75,19 v 0 z m -25.04,-10.83 7.63,-1.35 v 0 l 0.15,0.75 0.19,0.74 0.22,0.73 0.26,0.7 0.29,0.68 0.32,0.67 0.35,0.64 0.38,0.62 0.41,0.6 0.45,0.58 0.46,0.56 0.49,0.53 0.52,0.51 0.54,0.49 0.56,0.46 0.58,0.43 0.61,0.4 0.62,0.38 0.63,0.34 0.66,0.31 0.67,0.28 0.68,0.25 0.7,0.22 0.71,0.18 0.71,0.15 0.72,0.11 0.74,0.08 0.74,0.04 h 0.75 l 0.76,-0.03 0.76,-0.07 0.77,-0.11 1.35,7.67 -1.15,0.17 -1.15,0.11 -1.14,0.06 -1.14,-0.01 -1.13,-0.06 -1.12,-0.11 -1.11,-0.17 -1.09,-0.23 -1.07,-0.27 -1.05,-0.32 -1.04,-0.38 -1.02,-0.43 -0.99,-0.47 -0.97,-0.52 -0.93,-0.56 -0.91,-0.6 -0.88,-0.65 -0.85,-0.69 -0.81,-0.73 -0.78,-0.77 -0.75,-0.81 -0.71,-0.85 -0.66,-0.88 -0.63,-0.92 -0.58,-0.95 -0.54,-0.98 -0.49,-1.01 -0.44,-1.04 -0.39,-1.07 -0.34,-1.09 -0.29,-1.12 -0.23,-1.14 v 0 z m -19.22,-153.68 26.86,152.33 -7.63,1.35 -26.86,-152.33 v 0 z m 10.84,-25.05 1.35,7.67 v 0 l -0.75,0.15 -0.74,0.19 -0.73,0.22 -0.7,0.26 -0.68,0.29 -0.66,0.32 -0.64,0.36 -0.63,0.38 -0.6,0.41 -0.58,0.44 -0.55,0.47 -0.54,0.49 -0.51,0.52 -0.49,0.54 -0.45,0.56 -0.43,0.58 -0.4,0.61 -0.38,0.63 -0.34,0.63 -0.31,0.66 -0.28,0.67 -0.25,0.68 -0.21,0.7 -0.18,0.71 -0.15,0.71 -0.11,0.73 -0.08,0.73 -0.04,0.74 v 0.75 l 0.04,0.75 0.07,0.76 0.11,0.76 -7.63,1.34 -0.18,-1.16 -0.11,-1.15 -0.05,-1.15 v -1.14 l 0.06,-1.13 0.11,-1.12 0.17,-1.11 0.23,-1.1 0.27,-1.07 0.33,-1.06 0.38,-1.04 0.42,-1.01 0.47,-0.99 0.52,-0.97 0.56,-0.94 0.6,-0.9 0.65,-0.88 0.69,-0.86 0.73,-0.81 0.77,-0.78 0.8,-0.74 0.85,-0.71 0.88,-0.66 0.91,-0.63 0.94,-0.58 0.98,-0.54 1.02,-0.5 1.04,-0.44 1.07,-0.39 1.09,-0.34 1.12,-0.29 1.14,-0.23 v 0 z"
         class="fil10" />
      <path
         style="fill:#ed8970"
         inkscape:connector-curvature="0"
         d="m 5618.94,4866.92 107.75,-19 c 10.24,-1.8 20.09,5.09 21.9,15.33 l 26.86,152.33 c 1.81,10.24 -5.09,20.09 -15.33,21.9 l -107.75,19 c -10.24,1.8 -20.09,-5.09 -21.9,-15.33 l -26.86,-152.33 c -1.8,-10.24 5.09,-20.09 15.33,-21.9 z"
         class="fil33"
         id="path7685" />
    </g>
    <path
       style="clip-rule:evenodd;fill:#ffd333;fill-rule:evenodd;stroke-width:0.05602893;image-rendering:optimizeQuality;shape-rendering:geometricPrecision;text-rendering:geometricPrecision"
       inkscape:connector-curvature="0"
       id="path7689"
       d="m 19.628687,-18.287141 c 0,0 -1.187253,-0.09805 -1.603549,0.767597 -0.416294,0.865647 0.100292,2.127419 0.100292,2.127419 0,0 0.962017,-0.811859 2.514578,-1.016926 1.552563,-0.205625 2.433899,-0.101412 2.433899,-0.101412 0,0 0.313761,-1.483085 -0.67515,-1.93748 -0.98891,-0.454396 -2.184567,-0.0039 -2.184567,-0.0039 0,0 -0.235322,-0.36867 -0.165847,-0.606233 0.06948,-0.237563 -0.01906,-0.40677 -0.355783,-0.312642 -0.336734,0.09357 -0.456076,0.305918 -0.456076,0.305918 0,0 -0.158001,0.06891 0.07675,0.286868 0.23476,0.217953 0.315443,0.490813 0.315443,0.490813 z"
       class="fil34" />
    <path
       style="clip-rule:evenodd;fill:#3b0909;fill-rule:evenodd;stroke-width:0.05602893;image-rendering:optimizeQuality;shape-rendering:geometricPrecision;text-rendering:geometricPrecision"
       inkscape:connector-curvature="0"
       id="path7691"
       d="m 18.465526,-15.089568 c 0,0 0.996195,-0.742945 2.311194,-0.879095 1.314999,-0.136152 2.272533,0.179853 2.272533,0.179853 0.52219,2.839547 0.83259,2.82778 -1.520624,4.626869 -2.899498,-1.071272 -2.640084,-0.9693 -3.063103,-3.928189 z"
       class="fil35" />
    <path
       style="clip-rule:evenodd;fill:#ffb5b5;fill-rule:evenodd;stroke-width:0.05602893;image-rendering:optimizeQuality;shape-rendering:geometricPrecision;text-rendering:geometricPrecision"
       inkscape:connector-curvature="0"
       id="path7693"
       d="m 22.259245,-15.638652 c 0.36755,-0.08516 0.719973,0.323847 0.772079,0.81354 0.05602,0.523309 -0.256611,1.738577 -0.789447,0.638169 -0.12159,-0.25101 -0.356905,-1.364304 0.01737,-1.451149 z"
       class="fil36" />
    <ellipse
       style="clip-rule:evenodd;fill:#ffb5b5;fill-rule:evenodd;stroke-width:0.01907887;image-rendering:optimizeQuality;shape-rendering:geometricPrecision;text-rendering:geometricPrecision"
       cy="-9.0362005"
       cx="24.506006"
       id="ellipse7695"
       ry="0.35982758"
       rx="0.390163"
       transform="rotate(-9.9999868)"
       class="fil36" />
    <g
       transform="matrix(0.05602893,0,0,0.05602893,-298.01113,-292.76227)"
       style="clip-rule:evenodd;fill-rule:evenodd;image-rendering:optimizeQuality;shape-rendering:geometricPrecision;text-rendering:geometricPrecision"
       id="g7709">
      <g
         id="g7699">
        <path
           style="fill:none;stroke:#ed8970;stroke-width:1.69000006;stroke-linecap:round;stroke-linejoin:round;stroke-miterlimit:2.61313009"
           inkscape:connector-curvature="0"
           id="path7697"
           d="m 5649,4918.83 c 8.46,-6.93 12.45,-9.6 23.7,-11.79 2.66,-0.52 7.35,-1.26 10.11,-0.52 0.15,0.04 0.3,-0.02 0.45,-0.05"
           class="fil22 str10" />
      </g>
      <g
         id="g7703">
        <path
           style="fill:none;stroke:#ed8970;stroke-width:2.27999997;stroke-linecap:round;stroke-linejoin:round;stroke-miterlimit:2.61313009"
           inkscape:connector-curvature="0"
           id="path7701"
           d="m 5644.37,4928.83 c 11.4,-9.34 16.78,-12.94 31.93,-15.88 3.59,-0.7 9.91,-1.7 13.63,-0.7 0.2,0.05 0.41,-0.03 0.61,-0.06"
           class="fil22 str11" />
      </g>
      <g
         id="g7707">
        <path
           style="fill:none;stroke:#ed8970;stroke-width:2.58999991;stroke-linecap:round;stroke-linejoin:round;stroke-miterlimit:2.61313009"
           inkscape:connector-curvature="0"
           id="path7705"
           d="m 5642.5,4937.33 c 12.97,-10.62 19.08,-14.71 36.31,-18.06 4.08,-0.79 11.27,-1.93 15.49,-0.79 0.22,0.06 0.46,-0.03 0.69,-0.07"
           class="fil22 str12" />
      </g>
    </g>
  </g>
</svg>
