<?xml version="1.0" encoding="UTF-8"?>
<!DOCTYPE svg PUBLIC "-//W3C//DTD SVG 1.1//EN" "http://www.w3.org/Graphics/SVG/1.1/DTD/svg11.dtd">
<!-- Creator: CorelDRAW 2018 (64-Bit) -->
<svg xmlns="http://www.w3.org/2000/svg" xml:space="preserve" width="0.709598in" height="0.789449in" version="1.1" style="shape-rendering:geometricPrecision; text-rendering:geometricPrecision; image-rendering:optimizeQuality; fill-rule:evenodd; clip-rule:evenodd"
viewBox="0 0 14.06 15.65"
 xmlns:xlink="http://www.w3.org/1999/xlink">
 <defs>
  <style type="text/css">
   <![CDATA[
    .fil7 {fill:black}
    .fil2 {fill:#446E22}
    .fil1 {fill:#74B93B}
    .fil6 {fill:#86D442}
    .fil9 {fill:#C4B490}
    .fil0 {fill:#CCFEAA}
    .fil3 {fill:#D28E4D}
    .fil8 {fill:#DC2E16}
    .fil5 {fill:#F4ECD9}
    .fil4 {fill:#FECC94}
   ]]>
  </style>
 </defs>
 <g id="Layer_x0020_1">
  <metadata id="CorelCorpID_0Corel-Layer"/>
  <g id="_740193523440">
   <path class="fil0" d="M4.13 9.77c-0.01,-0.03 -0.17,-0.39 -0.24,-0.68 -0.11,-0.47 -0.1,-1.09 0.35,-1.38 0.11,-0.07 0.33,-0.13 0.46,-0.1 0.09,0.02 0.23,0.01 0.28,-0.03 -0.16,0.01 -0.55,-0.18 -0.92,-0.01 -0.25,0.12 -0.37,0.39 -0.43,0.64 -0.07,0.28 -0.06,0.69 0.05,0.95 0.05,0.12 0.12,0.25 0.18,0.35 0.08,0.11 0.1,0.14 0.19,0.22 0.03,0.03 0.03,0.05 0.08,0.04z"/>
   <path class="fil0" d="M1.83 8.2c0.22,0.01 0.23,-0.07 0.56,-0.01 0.24,0.05 0.61,0.33 0.77,0.49 0.05,0.05 0.09,0.1 0.14,0.17 0.03,0.04 0.09,0.17 0.14,0.17 -0.01,-0.05 -0.02,-0.09 -0.03,-0.14 -0.01,-0.05 -0.01,-0.1 -0.02,-0.15 -0.03,-0.16 -0.01,-0.17 -0.09,-0.25 -0.1,-0.1 -0.45,-0.39 -0.61,-0.41 -0.3,-0.04 -0.6,-0.03 -0.85,0.13z"/>
   <path class="fil1" d="M4.98 7.58c-0.05,0.05 -0.2,0.05 -0.28,0.03 -0.12,-0.03 -0.35,0.04 -0.46,0.1 -0.44,0.28 -0.46,0.91 -0.35,1.38 0.07,0.28 0.24,0.65 0.24,0.68l0.03 -0c-0.01,-0.04 -0.03,-0.08 -0.05,-0.12 -0.03,-0.11 -0.07,-0.32 -0.07,-0.43 0,-0.18 0.06,-0.4 0.14,-0.53 0.08,-0.12 0.21,-0.23 0.37,-0.29 0.08,-0.03 0.18,-0.06 0.27,-0.06 0.15,-0.01 0.22,0.04 0.28,0.05 0.02,-0.19 0.11,-0.38 0.2,-0.48 0.24,-0.27 0.62,-0.41 1,-0.32 0.28,0.06 0.37,0.19 0.47,0.23 -0.02,-0.22 -0.04,-0.44 -0.17,-0.54 -0.28,-0.2 -0.84,-0.2 -1.13,-0.02 -0.15,0.09 -0.24,0.23 -0.33,0.29 -0.04,0.03 -0.02,0.01 -0.04,0.05 -0.06,-0 -0.06,0 -0.12,0.01z"/>
   <path class="fil1" d="M1.83 8.2c-0.2,0.11 -0.38,0.43 -0.53,0.56 -0.03,0.03 -0.05,0.05 -0.08,0.08 0.04,0.03 0.07,0 0.17,0.09 0.05,0.05 0.08,0.09 0.13,0.13 0.09,0.06 0.26,0.15 0.4,0.12 0.11,-0.02 0.17,-0.15 0.3,-0.23 0.24,-0.17 0.55,-0.11 0.74,0.12 0.03,0.04 0.07,0.11 0.1,0.17 0.13,0.28 0.06,0.26 0.26,0.26 0.08,-0 0.15,0.02 0.22,0.05 0.06,0.03 0.11,0.08 0.14,0.12 0.08,0.1 0.07,0.14 0.1,0.17l0.09 -0.02 -0.14 -0.17c-0.18,-0.22 -0.3,-0.61 -0.31,-0.62 -0.05,-0 -0.11,-0.13 -0.14,-0.17 -0.05,-0.07 -0.09,-0.12 -0.14,-0.17 -0.16,-0.16 -0.53,-0.45 -0.77,-0.49 -0.33,-0.06 -0.34,0.01 -0.56,0.01z"/>
   <path class="fil2" d="M5.23 8.62c-0.03,0 -0.17,-0.07 -0.22,-0.09 -0.23,-0.08 -0.56,0.05 -0.67,0.25 -0.14,0.25 -0.16,0.5 -0.07,0.78 0.01,0.04 0.03,0.08 0.04,0.12 0.03,0.08 0.05,0.06 0.09,0.05 -0.02,-0.12 -0,-0.26 0.06,-0.35 0.05,-0.08 0.14,-0.13 0.27,-0.16 0.19,-0.05 0.66,0.09 0.78,-0.03 0.02,-0.05 -0.09,-0.18 0.03,-0.41 0.21,-0.41 0.71,-0.34 1.07,-0.19 0.12,0.05 0.2,0.11 0.35,0.14 0.15,0.03 0.29,-0.02 0.38,-0.09 0.17,-0.13 0.17,-0.3 0.32,-0.42 0.06,-0.05 0.14,-0.09 0.15,-0.1 -0.23,-0.2 -0.25,-0.14 -0.58,-0.11 -0.08,0.01 -0.15,0.02 -0.24,0.02 -0.39,0.01 -0.38,-0.2 -0.72,-0.28 -0.15,-0.04 -0.29,-0.04 -0.43,0.01 -0.12,0.04 -0.25,0.1 -0.33,0.17 -0.29,0.26 -0.24,0.57 -0.3,0.7z"/>
   <path class="fil2" d="M1.18 11.06c-0.02,-0.15 -0.02,-0.25 0.03,-0.38 0.07,-0.21 0.22,-0.36 0.39,-0.48 0.25,-0.18 0.44,-0.22 0.63,-0.45 0.19,-0.23 0.33,-0.45 0.64,-0.45 -0.01,-0.04 -0.06,-0.09 -0.08,-0.12 -0.03,-0.03 -0.06,-0.06 -0.12,-0.08 -0.11,-0.05 -0.23,-0.02 -0.32,0.04 -0.13,0.1 -0.21,0.29 -0.52,0.26 -0.23,-0.02 -0.39,-0.12 -0.53,-0.27 -0.09,-0.09 -0.1,-0.15 -0.27,-0.09 -0.07,0.02 -0.08,0.03 -0.13,0.07 -0.04,0.03 -0.08,0.06 -0.12,0.09 -0.19,0.14 -0.28,0.18 -0.39,0.41 -0.06,0.13 -0.08,0.15 -0.08,0.32 -0.01,0.12 0.02,0.24 0.06,0.34 0.11,0.28 0.32,0.49 0.56,0.64l0.25 0.15z"/>
   <path class="fil3" d="M8.66 6.17c0.15,0.01 0.06,-0.03 0.16,0.05 0.29,0.22 0.49,0.39 0.86,0.56 0.05,0.02 0.1,0.04 0.13,0.08l0.1 0.11c0.46,0.49 0.85,1.16 0.99,1.85 0.03,0.15 0.03,0.21 0,0.37 -0.04,0.27 -0.07,0.38 -0.23,0.57 -0.04,0.04 -0.16,0.19 -0.19,0.21l-0.25 0.16c-0.05,0.03 -0.33,0.24 -0.36,0.25 -0.31,0.12 -0.88,0.25 -1.18,0.23 -0.74,-0.05 -1.28,-0.19 -1.91,-0.52 -0.24,-0.13 -0.63,-0.4 -0.82,-0.6 -0.02,-0.02 -0.08,-0.08 -0.1,-0.1 0.02,0.16 0.08,0.34 0.14,0.48 0.02,0.04 0.01,0.03 0.05,0.04 0.17,0.07 0.32,0.17 0.45,0.27 0.25,0.19 0.49,0.45 0.65,0.78 0.07,0.13 0.05,0.1 0.19,0.17 0.08,0.04 0.16,0.07 0.25,0.11 0.26,0.11 0.29,0.11 0.57,0.14 0.22,0.03 0.44,0.04 0.66,0.05 0.21,0.01 0.13,0.02 0.29,-0.06 0.55,-0.28 1.22,-0.74 1.71,-1.14l0.66 -0.58c0.03,-0.03 0.06,-0.06 0.09,-0.09 0.06,-0.06 0.46,-0.45 0.53,-0.54 0.11,-0.14 0.12,-0.07 0.07,-0.22 -0.02,-0.06 -0.07,-0.22 -0.1,-0.26 -0.13,0.02 -0.12,0.03 -0.24,-0.21 -0.06,-0.1 -0.1,-0.22 -0.15,-0.32 -0.09,-0.18 -0.24,-0.48 -0.36,-0.59 0.02,0.17 0.22,0.7 0.17,0.83 -0.05,0.02 -0.24,0.05 -0.31,0.06 -0.06,0 -0.12,0.01 -0.17,0.01 -0.22,0.01 -0.18,0.04 -0.17,-0.21 0,-0.14 -0.04,-0.46 -0.07,-0.59 -0.02,-0.12 -0.06,-0.24 -0.09,-0.35 -0.03,-0.12 -0.06,-0.23 -0.1,-0.35 -0.57,-0.12 -0.83,-0.17 -1.34,-0.41 -0.09,-0.04 -0.32,-0.15 -0.37,-0.22 -0.04,0.01 -0.05,0.02 -0.1,0.02 -0.03,0 -0.08,-0 -0.11,0.01z"/>
   <path class="fil3" d="M10.14 6.04c0.1,0.06 0.52,0.13 0.65,0.15 0.18,0.04 0.14,-0.12 0.66,0.07 0.09,0.03 0.19,0.07 0.29,0.11 0.35,0.16 0.25,0.13 0.65,0.13 0.11,-0 0.28,-0.04 0.16,-0.16 -0.15,-0.14 -0.3,-0.24 -0.22,-0.54 0.07,-0.26 0.23,-0.36 -0.02,-0.53 -0.15,-0.1 -0.39,-0.19 -0.42,-0.38 -0.03,-0.19 0.18,-0.26 0.08,-0.45 -0.02,-0.04 -0.06,-0.09 -0.1,-0.11 -0.03,0.04 -0.05,0.05 -0.07,0.08 -0.02,0.03 -0.04,0.05 -0.06,0.08 -0.08,0.13 -0.13,0.34 -0.04,0.47 0.05,0.07 0.09,0.08 0.16,0.14l0.24 0.21c0.14,0.14 0.16,0.13 0.16,0.28 0,0.08 -0.05,0.17 -0.09,0.2 -0.1,0.07 -0.4,0 -0.53,-0.01 -0.09,-0.01 -0.19,-0.01 -0.29,-0.01 -0.1,0 -0.17,0.02 -0.26,0.03 -0.18,0.01 -0.35,0.03 -0.51,0.08 -0.07,0.02 -0.16,0.03 -0.24,0.05 -0.12,0.03 -0.12,0.06 -0.19,0.1z"/>
   <path class="fil4" d="M5.85 9.38c0.02,0.01 0.08,0.08 0.1,0.1 0.19,0.21 0.57,0.48 0.82,0.6 0.64,0.33 1.18,0.47 1.91,0.52 0.3,0.02 0.87,-0.12 1.18,-0.23 0.03,-0.01 0.31,-0.21 0.36,-0.25l0.25 -0.16c0.04,-0.03 0.16,-0.17 0.19,-0.21 0.16,-0.19 0.19,-0.3 0.23,-0.57 0.02,-0.16 0.03,-0.21 -0,-0.37 -0.13,-0.68 -0.53,-1.36 -0.99,-1.85l-0.1 -0.11c-0.03,-0.04 -0.08,-0.05 -0.13,-0.08 -0.37,-0.17 -0.57,-0.34 -0.86,-0.56 -0.1,-0.08 -0.01,-0.04 -0.16,-0.05 -0.15,-0.01 -0.48,0.06 -0.62,0.1 -0.5,0.14 -0.9,0.38 -1.25,0.74 -0.03,0.03 -0.07,0.06 -0.09,0.09 0.02,0.04 0.2,0.12 0.23,0.52 0.02,0.24 -0.03,0.22 0.14,0.22 -0.01,-0.06 -0.09,-0.18 -0.08,-0.23 0.05,-0.01 0.7,0.06 0.84,0.07 0.07,0.01 0.07,0.01 0.11,-0.02l0.65 -0.41c0.04,-0.02 0.15,-0.11 0.19,-0.11 0.02,0.03 0.1,0.39 0.11,0.45 0.01,0.03 0.07,0.33 0.08,0.34l0.8 0.4c0.03,0.01 0.03,0.01 0.04,0.04 -0.01,0.03 -0.06,0.05 -0.1,0.07 -0.04,0.02 -0.07,0.04 -0.11,0.06l-0.62 0.35c-0.08,0.04 -0.06,0.03 -0.08,0.25 -0.02,0.15 -0.07,0.84 -0.09,0.89 -0.04,0 -0.04,-0.01 -0.06,-0.03l-0.81 -0.77c-0.05,0.01 -0.39,0.16 -0.48,0.2 -0.02,0.01 -0.44,0.19 -0.47,0.19 -0.03,-0 -0.01,-0 -0.02,-0 -0.01,-0.04 0.19,-0.56 0.22,-0.66 -0.16,0.01 -0.19,0.03 -0.36,-0.01 -0.11,-0.03 -0.2,-0.08 -0.29,-0.12 -0.14,-0.07 -0.5,-0.17 -0.67,-0.09 -0.03,0.06 -0.05,0.26 -0.05,0.34 -0.01,0.12 -0,0.26 0.01,0.37z"/>
   <path class="fil4" d="M10.14 6.04c0.07,-0.04 0.08,-0.06 0.19,-0.1 0.08,-0.02 0.17,-0.03 0.24,-0.05 0.16,-0.05 0.33,-0.07 0.51,-0.08 0.09,-0 0.16,-0.03 0.26,-0.03 0.1,-0 0.19,0 0.29,0.01 0.12,0.01 0.43,0.08 0.53,0.01 0.04,-0.03 0.09,-0.12 0.09,-0.2 -0,-0.15 -0.02,-0.14 -0.16,-0.28l-0.24 -0.21c-0.07,-0.05 -0.11,-0.07 -0.16,-0.14 -0.09,-0.13 -0.04,-0.33 0.04,-0.47 0.02,-0.03 0.04,-0.06 0.06,-0.08 0.03,-0.03 0.05,-0.04 0.07,-0.08 -0.04,-0.04 -0.13,-0.06 -0.19,-0.09 -0.07,-0.03 -0.12,-0.06 -0.19,-0.1 -0.46,-0.29 -0.88,-0.23 -1.3,0.06 -0.22,0.15 -0.42,0.37 -0.58,0.59 -0.07,0.1 -0.16,0.23 -0.22,0.36 -0.04,0.1 -0.14,0.33 -0.14,0.44 0.01,0.03 0.16,0.12 0.19,0.14 0.13,0.08 0.62,0.31 0.7,0.31z"/>
   <path class="fil5" d="M4.35 9.97c-0.02,0.02 -0.01,0.01 -0.03,0.02 -0.01,0 -0.02,0.01 -0.03,0.01 -0.12,0.03 -0.36,0.11 -0.44,0.16 -0.15,0.08 -0.3,0.2 -0.38,0.31 -0.05,0.06 -0.1,0.12 -0.16,0.19 -0.05,0.07 -0.1,0.14 -0.14,0.21 -0.08,0.14 -0.16,0.31 -0.22,0.47 -0.2,0.61 -0.2,1.17 -0.02,1.8 0.02,0.08 0.15,0.45 0.2,0.49 0.22,0.01 1.91,-0.56 2.13,-0.64 0.56,-0.19 1.21,-0.43 1.76,-0.66 0.07,-0.03 0.19,-0.08 0.25,-0.1 -0.01,-0.47 -0.23,-1.12 -0.5,-1.46 -0.06,-0.08 -0.16,-0.19 -0.23,-0.26 -0.27,-0.24 -0.53,-0.41 -0.97,-0.51 -0.3,-0.07 -0.59,-0.08 -0.9,-0.06 -0.1,0.01 -0.2,0.03 -0.3,0.03z"/>
   <path class="fil5" d="M4.82 15.41c0.11,-0.03 0.24,-0.05 0.36,-0.09 0.2,-0.07 0.41,-0.21 0.58,-0.34l0.19 -0.15c0.03,-0.02 0.03,-0.02 0.06,-0.05l0.12 -0.1c0.08,-0.07 0.27,-0.27 0.33,-0.35 0.09,-0.12 0.32,-0.4 0.39,-0.52 -0.05,0.01 -0.11,0.04 -0.16,0.06 -0.06,0.02 -0.11,0.04 -0.16,0.06 -0.55,0.21 -1.11,0.41 -1.68,0.59 -0.23,0.07 -0.46,0.15 -0.69,0.21 0.07,0.04 0.41,0.09 0.51,0.18 0.12,0.1 0.15,0.32 0.17,0.51z"/>
   <path class="fil6" d="M12.7 10.1c0.14,-0.12 0.35,-0.34 0.48,-0.48l0.25 -0.28c0.28,-0.34 0.74,-1.03 0.4,-1.48 -0.25,-0.33 -0.8,-0.37 -1.33,-0.35 0.03,0.07 0.08,0.13 0.12,0.19 0.06,0.1 0.2,0.34 0.14,0.46 -0.02,0.04 -0.07,0.05 -0.09,0.07 -0.02,0.03 -0.02,0.21 -0.24,0.54 -0.12,0.18 -0.52,0.59 -0.67,0.73 -0.02,0.02 -0.04,0.05 -0.07,0.08l-0.65 0.59c-0.05,0.04 -0.11,0.1 -0.17,0.14 -0.62,0.48 -0.79,0.62 -1.47,1.01 -0.48,0.28 -1.14,0.58 -1.66,0.81 -0.82,0.37 -1.83,0.74 -2.69,1.04 -0.31,0.11 -0.62,0.2 -0.93,0.3 -0.52,0.17 -1.48,0.45 -2.08,0.34 -0.17,-0.03 -0.33,-0.09 -0.45,-0.17 -0.12,-0.08 -0.23,-0.18 -0.21,-0.4 0.01,-0.16 0.09,-0.35 0.15,-0.47 0.15,-0.29 0.14,-0.13 0.12,-0.31 -0.01,-0.05 -0.01,-0.09 -0.01,-0.14l-0.31 0.33c-0.03,0.04 -0.07,0.07 -0.1,0.11l-0.2 0.22c-0.16,0.17 -0.43,0.53 -0.56,0.72 -0.1,0.15 -0.23,0.35 -0.3,0.55 -0.1,0.29 -0.07,0.46 0.14,0.6 0.16,0.11 0.41,0.17 0.65,0.19 0.51,0.06 1.09,0.01 1.59,-0.06 0.84,-0.12 2.44,-0.64 3.3,-0.94 0.52,-0.18 1.33,-0.51 1.81,-0.73 0.39,-0.18 0.77,-0.36 1.14,-0.56 0.19,-0.1 0.37,-0.2 0.55,-0.3 0.55,-0.32 1.03,-0.62 1.56,-0.98 0.34,-0.23 0.67,-0.47 0.98,-0.71 0.15,-0.12 0.46,-0.36 0.59,-0.48l0.22 -0.2z"/>
   <path class="fil6" d="M3.29 8.11c0.04,0.03 0.08,0.07 0.11,0.1l0.02 -0.05c0.02,-0.12 0.07,-0.24 0.12,-0.34 0.05,-0.08 0.16,-0.24 0.24,-0.29l-0.01 -0.18 3.07 -1.04 -0.25 -2.48c0.04,-0.03 1.03,-0.34 1.11,-0.37 0.73,-0.24 1.49,-0.49 2.22,-0.73 0.11,-0.04 1.04,-0.35 1.11,-0.36l0.27 0.95 0.03 -0.02c0,-0 0.01,-0.01 0.02,-0.02l0.18 -0.19c0.03,-0.03 0.04,-0.05 0.07,-0.07l0.84 -0.9c0.05,-0.05 0.1,-0.1 0.14,-0.15l0.63 -0.68c0.09,-0.1 0.24,-0.25 0.33,-0.36 0.02,-0.02 0,0 0.01,-0.02l-3.15 -0.78 0.28 1.1 -5.14 1.98 0.32 2.56 -2.78 1.19 0.2 1.14z"/>
   <path class="fil7" d="M4.82 15.41c-0.02,-0.19 -0.05,-0.41 -0.17,-0.51 -0.09,-0.08 -0.44,-0.13 -0.51,-0.18 0.23,-0.06 0.47,-0.14 0.69,-0.21 0.57,-0.18 1.13,-0.38 1.68,-0.59 0.06,-0.02 0.11,-0.04 0.16,-0.06 0.05,-0.02 0.11,-0.05 0.16,-0.06 -0.06,0.13 -0.29,0.4 -0.39,0.52 -0.07,0.08 -0.25,0.28 -0.33,0.35l-0.12 0.1c-0.03,0.03 -0.03,0.03 -0.06,0.05l-0.19 0.15c-0.16,0.13 -0.37,0.26 -0.58,0.34 -0.12,0.04 -0.25,0.06 -0.36,0.09zm-1.71 -1.78l-0.01 0.01c-0.04,0.02 -0.31,0.06 -0.39,0.07 -0.13,0.02 -0.1,0.02 -0.17,-0.04 -0.05,-0.05 -0.07,-0.08 -0.11,-0.12l-0.23 -0.25c-0.06,-0.08 -0.13,-0.19 -0.18,-0.29 -0.44,-0.99 0.11,-1.99 0.94,-2.52 0.36,-0.23 0.89,-0.44 1.39,-0.5 0.1,-0.01 0.2,-0.03 0.3,-0.03 0.31,-0.02 0.6,-0.01 0.9,0.06 0.44,0.1 0.7,0.27 0.97,0.51 0.08,0.07 0.17,0.18 0.23,0.26 0.27,0.35 0.49,0.99 0.5,1.46 -0.06,0.02 -0.18,0.07 -0.25,0.1 -0.55,0.23 -1.2,0.47 -1.76,0.66 -0.22,0.08 -1.91,0.65 -2.13,0.64zm4.27 -2.15l0.58 0.13c0.03,0 0.05,0 0.08,0 0.13,0.02 0.31,0.06 0.41,0.07 -0,0 -0,0 -0,0l-0.05 0.03c-0.02,0.01 -0.04,0.01 -0.06,0.03 -0.12,0.06 -0.8,0.37 -0.84,0.38 0,-0.1 -0.07,-0.55 -0.11,-0.64zm-2.12 -2.07c0.08,0 0.21,-0 0.27,-0.03 0,0.05 0.02,0.15 0.03,0.2 0.01,0.03 0.01,0.06 0.02,0.09 0.01,0.03 0.02,0.06 0.02,0.1 -0.27,-0.06 -0.46,-0.07 -0.76,-0.08l-0.27 0.02c-0.01,-0.17 0.02,-0.28 0.2,-0.33 0.05,-0.02 0.17,0 0.24,0.01 0.08,0.01 0.16,0.02 0.25,0.02zm-4.33 1.5c-0.24,-0.15 -0.45,-0.36 -0.56,-0.64 -0.04,-0.1 -0.07,-0.22 -0.06,-0.34 0.01,-0.17 0.02,-0.19 0.08,-0.32 0.11,-0.23 0.2,-0.27 0.39,-0.41 0.04,-0.03 0.08,-0.06 0.12,-0.09 0.05,-0.04 0.06,-0.05 0.13,-0.07 0.18,-0.05 0.19,0 0.27,0.09 0.14,0.15 0.29,0.25 0.53,0.27 0.31,0.03 0.38,-0.17 0.52,-0.26 0.08,-0.06 0.2,-0.09 0.32,-0.04 0.05,0.02 0.08,0.05 0.12,0.08 0.02,0.02 0.07,0.08 0.08,0.12 -0.3,-0 -0.45,0.22 -0.64,0.45 -0.19,0.23 -0.38,0.27 -0.63,0.45 -0.17,0.12 -0.31,0.27 -0.39,0.48 -0.05,0.14 -0.04,0.23 -0.03,0.38l-0.25 -0.15zm0.9 -2.7c0.25,-0.16 0.55,-0.17 0.85,-0.13 0.16,0.02 0.51,0.31 0.61,0.41 0.08,0.08 0.06,0.09 0.09,0.25 0.01,0.05 0.01,0.1 0.02,0.15 0.01,0.05 0.02,0.09 0.03,0.14 0.01,0.01 0.13,0.4 0.31,0.62l0.14 0.17 -0.09 0.02c-0.03,-0.03 -0.02,-0.08 -0.1,-0.17 -0.04,-0.04 -0.08,-0.09 -0.14,-0.12 -0.06,-0.03 -0.14,-0.05 -0.22,-0.05 -0.19,0 -0.13,0.02 -0.26,-0.26 -0.03,-0.06 -0.06,-0.12 -0.1,-0.17 -0.19,-0.23 -0.5,-0.29 -0.74,-0.12 -0.13,0.09 -0.19,0.21 -0.3,0.23 -0.14,0.03 -0.32,-0.06 -0.4,-0.12 -0.06,-0.04 -0.08,-0.08 -0.13,-0.13 -0.1,-0.09 -0.13,-0.07 -0.17,-0.09 0.03,-0.03 0.05,-0.05 0.08,-0.08 0.15,-0.13 0.33,-0.45 0.53,-0.56zm3.4 0.42c0.06,-0.13 0,-0.44 0.3,-0.7 0.07,-0.07 0.21,-0.13 0.33,-0.17 0.15,-0.04 0.28,-0.04 0.43,-0.01 0.34,0.08 0.33,0.29 0.72,0.28 0.09,-0 0.15,-0.01 0.24,-0.02 0.33,-0.03 0.34,-0.09 0.58,0.11 -0.01,0.01 -0.09,0.05 -0.15,0.1 -0.16,0.12 -0.16,0.29 -0.32,0.42 -0.09,0.07 -0.24,0.12 -0.38,0.09 -0.15,-0.03 -0.23,-0.09 -0.35,-0.14 -0.35,-0.16 -0.86,-0.22 -1.07,0.19 -0.12,0.23 -0,0.36 -0.03,0.41 -0.12,0.12 -0.59,-0.01 -0.78,0.03 -0.12,0.03 -0.21,0.07 -0.27,0.16 -0.06,0.09 -0.08,0.23 -0.06,0.35 -0.03,0.01 -0.06,0.02 -0.09,-0.05 -0.01,-0.04 -0.03,-0.08 -0.04,-0.12 -0.09,-0.28 -0.07,-0.52 0.07,-0.78 0.11,-0.19 0.44,-0.32 0.67,-0.25 0.05,0.02 0.19,0.09 0.22,0.09zm-1.1 1.15c-0.05,0.01 -0.05,-0.01 -0.08,-0.04 -0.09,-0.08 -0.11,-0.11 -0.19,-0.22 -0.07,-0.09 -0.13,-0.23 -0.18,-0.35 -0.11,-0.26 -0.12,-0.66 -0.05,-0.95 0.06,-0.26 0.18,-0.53 0.43,-0.64 0.38,-0.18 0.76,0.02 0.92,0.01 0.06,-0.01 0.06,-0.01 0.12,-0.01 0.02,-0.04 0,-0.02 0.04,-0.05 0.09,-0.06 0.18,-0.19 0.33,-0.29 0.29,-0.18 0.86,-0.18 1.13,0.02 0.14,0.1 0.15,0.32 0.17,0.54 -0.1,-0.04 -0.19,-0.16 -0.47,-0.23 -0.38,-0.09 -0.77,0.05 -1,0.32 -0.09,0.1 -0.18,0.3 -0.2,0.48 -0.05,-0.01 -0.12,-0.06 -0.28,-0.05 -0.09,0 -0.19,0.03 -0.27,0.06 -0.17,0.07 -0.29,0.17 -0.37,0.29 -0.08,0.13 -0.14,0.35 -0.14,0.53 -0,0.11 0.04,0.32 0.07,0.43 0.01,0.04 0.04,0.08 0.05,0.12l-0.03 0zm8.37 -2.25c0.53,-0.03 1.08,0.01 1.33,0.35 0.34,0.46 -0.13,1.14 -0.4,1.48l-0.25 0.28c-0.13,0.14 -0.34,0.36 -0.48,0.48l-0.22 0.2c-0.13,0.12 -0.44,0.36 -0.59,0.48 -0.31,0.24 -0.64,0.48 -0.98,0.71 -0.52,0.36 -1,0.66 -1.56,0.98 -0.18,0.1 -0.36,0.2 -0.55,0.3 -0.37,0.2 -0.75,0.38 -1.14,0.56 -0.47,0.22 -1.28,0.54 -1.81,0.73 -0.86,0.3 -2.46,0.82 -3.3,0.94 -0.5,0.07 -1.08,0.11 -1.59,0.06 -0.23,-0.03 -0.48,-0.08 -0.65,-0.19 -0.21,-0.14 -0.24,-0.32 -0.14,-0.6 0.07,-0.2 0.19,-0.39 0.3,-0.55 0.13,-0.19 0.4,-0.55 0.56,-0.72l0.2 -0.22c0.03,-0.04 0.07,-0.07 0.1,-0.11l0.31 -0.33c0.01,0.05 0.01,0.09 0.01,0.14 0.02,0.18 0.03,0.03 -0.12,0.31 -0.07,0.12 -0.14,0.31 -0.15,0.47 -0.01,0.21 0.09,0.32 0.21,0.4 0.12,0.08 0.28,0.14 0.45,0.17 0.6,0.11 1.55,-0.17 2.08,-0.34 0.31,-0.1 0.63,-0.2 0.93,-0.3 0.86,-0.3 1.87,-0.66 2.69,-1.04 0.52,-0.23 1.18,-0.53 1.66,-0.81 0.68,-0.4 0.85,-0.53 1.47,-1.01 0.05,-0.04 0.12,-0.09 0.17,-0.14l0.65 -0.59c0.03,-0.03 0.05,-0.05 0.07,-0.08 0.15,-0.14 0.55,-0.55 0.67,-0.73 0.22,-0.33 0.22,-0.5 0.24,-0.54 0.02,-0.03 0.07,-0.03 0.09,-0.07 0.06,-0.12 -0.08,-0.36 -0.14,-0.46 -0.04,-0.07 -0.09,-0.13 -0.12,-0.19zm-3.84 -1.34c0.03,-0.01 0.07,-0.01 0.11,-0.01 0.05,-0 0.06,-0.01 0.1,-0.02 0.05,0.06 0.28,0.17 0.37,0.22 0.51,0.24 0.77,0.29 1.34,0.41 0.03,0.12 0.06,0.23 0.1,0.35 0.03,0.12 0.07,0.23 0.09,0.35 0.03,0.13 0.07,0.45 0.07,0.59 -0.01,0.25 -0.05,0.22 0.17,0.21 0.06,-0 0.11,-0.01 0.17,-0.01 0.07,-0 0.26,-0.03 0.31,-0.06 0.06,-0.13 -0.15,-0.66 -0.17,-0.83 0.11,0.12 0.26,0.41 0.36,0.59 0.05,0.1 0.1,0.22 0.15,0.32 0.13,0.24 0.11,0.23 0.24,0.21 0.03,0.04 0.08,0.2 0.1,0.26 0.05,0.15 0.03,0.08 -0.07,0.22 -0.07,0.09 -0.47,0.48 -0.53,0.54 -0.03,0.03 -0.06,0.06 -0.09,0.09l-0.66 0.58c-0.49,0.41 -1.16,0.86 -1.71,1.14 -0.16,0.08 -0.08,0.07 -0.29,0.06 -0.23,-0.01 -0.44,-0.02 -0.66,-0.05 -0.28,-0.03 -0.31,-0.03 -0.57,-0.14 -0.09,-0.03 -0.16,-0.07 -0.25,-0.11 -0.13,-0.07 -0.12,-0.03 -0.19,-0.17 -0.17,-0.32 -0.4,-0.58 -0.65,-0.78 -0.13,-0.1 -0.28,-0.19 -0.45,-0.27 -0.04,-0.02 -0.03,-0.01 -0.05,-0.04 -0.07,-0.14 -0.12,-0.33 -0.14,-0.48 -0.02,-0.12 -0.02,-0.25 -0.01,-0.37 0.01,-0.08 0.03,-0.28 0.05,-0.34 0.16,-0.08 0.53,0.02 0.67,0.09 0.09,0.04 0.18,0.09 0.29,0.12 0.16,0.04 0.2,0.03 0.36,0.01 -0.02,0.1 -0.23,0.62 -0.22,0.66 0.01,0 -0.01,0 0.02,0 0.03,0 0.45,-0.18 0.47,-0.19 0.08,-0.03 0.43,-0.18 0.48,-0.2l0.81 0.77c0.02,0.02 0.03,0.04 0.06,0.03 0.02,-0.05 0.08,-0.74 0.09,-0.89 0.02,-0.21 -0,-0.2 0.08,-0.25l0.62 -0.35c0.04,-0.02 0.07,-0.04 0.11,-0.06 0.03,-0.02 0.08,-0.04 0.1,-0.07 -0.01,-0.03 -0.01,-0.02 -0.04,-0.04l-0.8 -0.4c-0.01,-0.02 -0.08,-0.31 -0.08,-0.34 -0.01,-0.06 -0.09,-0.42 -0.11,-0.45 -0.04,-0 -0.15,0.08 -0.19,0.11l-0.65 0.41c-0.05,0.03 -0.04,0.03 -0.11,0.02 -0.14,-0.01 -0.79,-0.08 -0.84,-0.07 -0.01,0.05 0.07,0.17 0.08,0.23 -0.18,0 -0.13,0.02 -0.14,-0.22 -0.03,-0.4 -0.2,-0.48 -0.23,-0.52 0.02,-0.04 0.06,-0.06 0.09,-0.09 0.35,-0.36 0.75,-0.6 1.25,-0.74 0.14,-0.04 0.47,-0.12 0.62,-0.1zm2.64 0.22l0 0c-0,-0 -0,-0 -0,-0zm-2.16 -0.19c-0.05,-0.02 -0.26,-0.11 -0.28,-0.15 -0.02,-0.03 -0.03,-0.06 -0.03,-0.1 0.01,-0.13 0.13,-0.32 0.23,-0.34 0.02,0.02 0.03,0.04 0.05,0.05l0.15 0.14c0.06,0.05 0.15,0.11 0.24,0.15 0.18,0.08 0.35,0.15 0.55,0.22 0.21,0.08 0.69,0.24 0.92,0.23 0.08,-0.01 0.08,0.01 0.14,0.04 0.12,0.05 0.25,0.14 0.36,0.21 0.16,0.11 0.14,0.09 0.27,0.21l0.34 0.33c0.06,0.07 0.12,0.14 0.17,0.21 0.06,0.07 0.1,0.14 0.16,0.22 0.05,0.08 0.1,0.15 0.15,0.23 0.05,0.07 0.13,0.15 0.11,0.26 -0.02,0.02 -0.12,0.07 -0.16,0.09 -0.1,0.05 -0.43,0.22 -0.51,0.23 -0.01,-0.03 -0.04,-0.06 -0.05,-0.09 -0.07,-0.12 -0.08,-0.15 -0.14,-0.28 -0.07,-0.14 -0.2,-0.42 -0.29,-0.54 -0.05,-0.07 -0.24,-0.35 -0.3,-0.4 -0.03,-0.03 -0.03,-0.07 -0.07,-0.06 -0.02,0.02 0.01,0.13 0.01,0.15l0.11 0.4c0.03,0.13 0.13,0.42 0.13,0.54 -0.12,0.02 -0.27,0.07 -0.39,0.07 -0.05,0 -0.09,0 -0.14,0.01l0.03 -0.36c0.02,-0.23 -0.13,-0.75 -0.2,-0.95 -0.01,-0.04 -0.06,-0.18 -0.08,-0.21 -0.04,-0.04 -0.59,-0.16 -0.67,-0.18 -0.24,-0.06 -0.6,-0.22 -0.83,-0.32zm1 -0.17c-0.09,-0 -0.58,-0.23 -0.7,-0.31 -0.03,-0.02 -0.18,-0.11 -0.19,-0.14 0.01,-0.11 0.1,-0.34 0.14,-0.44 0.06,-0.13 0.15,-0.25 0.22,-0.36 0.15,-0.22 0.35,-0.43 0.58,-0.59 0.41,-0.29 0.84,-0.35 1.3,-0.06 0.06,0.04 0.11,0.07 0.19,0.1 0.06,0.03 0.16,0.05 0.19,0.09 0.04,0.02 0.08,0.07 0.1,0.11 0.1,0.19 -0.1,0.26 -0.08,0.45 0.03,0.19 0.27,0.28 0.42,0.38 0.26,0.17 0.1,0.27 0.02,0.53 -0.08,0.3 0.07,0.39 0.22,0.54 0.13,0.13 -0.05,0.16 -0.16,0.16 -0.4,0 -0.3,0.03 -0.65,-0.13 -0.09,-0.04 -0.19,-0.07 -0.29,-0.11 -0.52,-0.19 -0.48,-0.04 -0.66,-0.07 -0.13,-0.03 -0.55,-0.09 -0.65,-0.15zm-5.8 1.27l-0.01 0.01c-0.02,0.02 -0.03,0.01 -0.07,0.02 -0.18,0.02 -0.34,0.09 -0.47,0.21 -0.08,0.05 -0.19,0.21 -0.24,0.29 -0.06,0.1 -0.1,0.23 -0.12,0.34l-0.02 0.05c-0.03,-0.04 -0.07,-0.07 -0.11,-0.1 -0.03,-0.02 -0.15,-0.09 -0.16,-0.11 -0.03,-0.01 -0.09,-0.05 -0.12,-0.06 -0.05,-0.02 -0.09,-0.04 -0.14,-0.05 -0.09,-0.02 -0.22,-0.04 -0.33,-0.05l-0.18 -0.01c-0.33,0 -0.64,0.13 -0.86,0.37 -0.1,0.11 -0.21,0.27 -0.31,0.36l-0.05 0.06c-0.04,0.05 -0.18,0.16 -0.24,0.21 -0.02,0.02 -0.03,0.02 -0.05,0.04 -0.02,0.02 -0.03,0.03 -0.06,0.04l-0.22 0.16c-0.18,0.13 -0.25,0.21 -0.35,0.4 -0.02,0.04 -0.03,0.1 -0.05,0.14 -0.06,0.08 -0.07,0.19 -0.08,0.3 -0.03,0.19 0.08,0.47 0.16,0.59 0.05,0.08 0.1,0.15 0.15,0.22l0.08 0.08c0.11,0.14 0.32,0.25 0.49,0.3l0.13 0.06c0.06,0.03 0.21,0.11 0.27,0.08 0.05,-0.03 0.04,-0.09 0.02,-0.14 -0.06,-0.2 0,-0.43 0.14,-0.57 0.07,-0.08 0.16,-0.16 0.25,-0.21 0.17,-0.11 0.35,-0.21 0.51,-0.34 0.05,-0.04 0.1,-0.1 0.13,-0.15 0.05,-0.08 0.11,-0.14 0.17,-0.21 0.06,-0.08 0.06,-0.1 0.18,-0.11 0.08,-0 0.09,-0.01 0.16,0.01 0.08,0.03 0.08,0.09 0.14,0.14 0.01,0.01 0.04,0.03 0.06,0.04 0.05,0.03 0.17,0.05 0.24,0.02 0.05,-0.02 0.02,-0.02 0.07,-0.01 0.01,0.07 0.04,0.15 0.04,0.23 -0.05,0.02 -0.11,0.04 -0.16,0.06 -0.26,0.1 -0.66,0.35 -0.84,0.53 -0.04,0.04 -0.08,0.07 -0.12,0.11 -0.15,0.15 -0.29,0.33 -0.4,0.51 -0.16,0.26 -0.29,0.61 -0.31,0.93 -0,0.07 -0.04,0.09 -0.09,0.14l-0.33 0.35c-0.05,0.06 -0.11,0.12 -0.16,0.18 -0.03,0.04 -0.07,0.08 -0.11,0.12 -0.17,0.21 -0.35,0.41 -0.5,0.63l-0.22 0.34c-0.19,0.31 -0.38,0.78 -0.03,1.05 0.19,0.15 0.43,0.21 0.67,0.24 0.06,0.01 0.14,0.02 0.2,0.02 0.06,0 0.16,0 0.22,0.01 0.13,0.02 0.31,-0 0.44,-0 0.06,0 0.15,-0.01 0.21,-0.01 0.34,-0.03 0.67,-0.06 1.01,-0.13 0.27,-0.06 0.55,-0.13 0.82,-0.21 0.1,-0.03 0.11,0 0.27,0.04 0.06,0.01 0.14,0.02 0.19,0.03 0.06,0.02 0.12,0.04 0.18,0.05 0.14,0.04 0.14,0.08 0.21,0.25 0.04,0.1 0.03,0.29 0.03,0.43 0.07,0.03 0.16,-0.01 0.24,-0.02l0.25 -0.06c0.08,-0.02 0.15,-0.05 0.22,-0.08 0.02,-0.01 0.03,-0.02 0.05,-0.02 0.17,-0.05 0.29,-0.15 0.44,-0.25 0.06,-0.04 0.22,-0.18 0.34,-0.27 0.02,-0.01 0.03,-0.02 0.04,-0.03 0.02,-0.01 0.02,-0.02 0.04,-0.04 0.01,-0.01 0.02,-0.02 0.04,-0.03l0.44 -0.47c0.01,-0.02 0.02,-0.03 0.03,-0.04 0.02,-0.03 0.04,-0.05 0.07,-0.08 0.06,-0.09 0.13,-0.17 0.19,-0.26 0.02,-0.04 0.04,-0.06 0.06,-0.09 0.04,-0.07 0.08,-0.13 0.11,-0.19 0.01,-0.02 0.01,-0.03 0.03,-0.04 0.01,-0.01 0.04,-0.01 0.05,-0.02l0.57 -0.25c0.26,-0.12 0.51,-0.24 0.77,-0.37 0.06,-0.03 0.14,-0.06 0.2,-0.1l0.3 -0.16c0.02,-0.01 0.03,-0.02 0.05,-0.03 0.02,-0.01 0.03,-0.01 0.05,-0.03 0.03,-0.02 0.06,-0.04 0.1,-0.06 0.28,-0.17 0.58,-0.33 0.85,-0.51l0.55 -0.35c0.12,-0.08 0.44,-0.31 0.55,-0.36l0.05 -0.03c0.02,-0.01 0.03,-0.01 0.05,-0.02l0.31 -0.15c0.11,-0.06 0.23,-0.12 0.32,-0.21 0.14,-0.13 0.29,-0.26 0.41,-0.42 0.01,-0.02 0.02,-0.02 0.04,-0.04 0.05,-0.07 0.02,-0.06 0.1,-0.13l0.21 -0.19c0,-0 0,-0 0,-0 0,-0 0,-0 0,-0l0.18 -0.17c0.05,-0.05 0.1,-0.1 0.16,-0.15 0.1,-0.1 0.19,-0.21 0.29,-0.31 0.02,-0.02 0.05,-0.06 0.07,-0.08 0.19,-0.23 0.43,-0.54 0.53,-0.84 0.08,-0.25 0.13,-0.49 0.02,-0.75 -0.1,-0.21 -0.28,-0.33 -0.49,-0.42 -0.13,-0.05 -0.34,-0.09 -0.51,-0.1 -0.09,-0.01 -0.52,-0.01 -0.58,0.01l-0.1 -0.16c-0.08,-0.11 -0.17,-0.21 -0.26,-0.31l-0.01 -0.01c-0.04,-0.04 -0.09,-0.09 -0.14,-0.13 -0.02,-0.01 -0.02,-0.02 -0.04,-0.03 -0.01,-0.01 -0.02,-0.01 -0.03,-0.03 -0.15,-0.13 -0.32,-0.23 -0.5,-0.33l-0.02 -0.02c0.04,0 0.14,0.05 0.19,0.07l0.3 0.12c0.04,0.02 0.09,0.02 0.13,0.04 0.09,0.03 0.15,0.07 0.25,0.08 0.14,0.02 0.31,0 0.43,-0.06 0.09,-0.04 0.12,-0.09 0.16,-0.18 0.04,-0.1 0.02,-0.16 -0.05,-0.23 -0.03,-0.03 -0.05,-0.05 -0.09,-0.08 -0.14,-0.09 -0.18,-0.14 -0.13,-0.33 0.07,-0.23 0.28,-0.44 -0.07,-0.69 -0.09,-0.07 -0.34,-0.18 -0.37,-0.26 -0.01,-0.03 -0,-0.06 0.02,-0.1 0.02,-0.05 0.05,-0.09 0.07,-0.14 0.04,-0.12 0,-0.23 -0.05,-0.31 -0.03,-0.04 -0.05,-0.06 -0.08,-0.09l-0.04 -0.04c-0.05,-0.04 -0.11,-0.05 -0.16,-0.09 -0.01,-0.01 -0.01,-0.01 -0.02,-0.02l-0.03 -0.02c-0.02,-0.01 -0.03,-0.02 -0.05,-0.03 -0.1,-0.07 -0.21,-0.13 -0.32,-0.18l-0.19 -0.07c-0.16,-0.05 -0.37,-0.05 -0.53,-0.02 -0.09,0.02 -0.17,0.04 -0.26,0.08l-0.17 0.08c-0.12,0.06 -0.25,0.15 -0.35,0.24 -0.03,0.03 -0.05,0.06 -0.08,0.08 -0.04,0.03 -0.05,0.05 -0.08,0.08 -0.03,0.03 -0.06,0.05 -0.08,0.08l-0.26 0.33c-0.01,0.02 -0.02,0.03 -0.03,0.05l-0.13 0.21c-0.06,0.11 -0.11,0.23 -0.15,0.36 -0.01,0.05 -0.04,0.08 -0.04,0.13 -0.12,0 -0.17,0.06 -0.23,0.14 -0.08,0.11 -0.07,0.16 -0.1,0.28 -0.02,0 -0.06,0.01 -0.09,0.01 -0.01,0 -0.03,0.01 -0.04,0.01l-0.14 0.01c-0.08,0.01 -0.18,0.02 -0.27,0.04 -0.02,0.01 -0.06,0.01 -0.09,0.02 -0.14,0.03 -0.27,0.06 -0.4,0.11l-0.29 0.12c-0.02,0.01 -0.04,0.02 -0.07,0.03l-0.32 0.2c-0.11,0.07 -0.25,0.2 -0.34,0.29l-0.1 0.1c-0.1,0.12 -0.08,0.11 -0.17,0.09 -0.02,-0 -0.05,-0.01 -0.07,-0.02 -0.04,-0.01 -0.11,-0.02 -0.15,-0.02 -0.1,-0 -0.23,-0.01 -0.33,0 -0.2,0.03 -0.38,0.08 -0.51,0.18 -0.2,0.14 -0.25,0.3 -0.39,0.29 -0.13,-0.01 -0.15,-0.04 -0.28,-0.06 -0.07,-0.02 -0.16,-0.02 -0.24,-0.02 -0.09,0 -0.07,0.01 -0.08,-0.02zm-1.21 0.7c0.01,0.01 0.13,0.09 0.16,0.11l-0.2 -1.14 2.78 -1.19 -0.32 -2.56 5.14 -1.98 -0.28 -1.1 3.15 0.78c-0.01,0.02 0,0 -0.01,0.02 -0.09,0.11 -0.24,0.25 -0.33,0.36l-0.63 0.68c-0.05,0.05 -0.09,0.1 -0.14,0.15l-0.84 0.9c-0.03,0.03 -0.04,0.05 -0.07,0.07l-0.18 0.19c-0,0.01 -0.01,0.02 -0.02,0.02l-0.03 0.02 -0.27 -0.95c-0.07,0.02 -1,0.33 -1.11,0.36 -0.73,0.23 -1.48,0.49 -2.22,0.73 -0.07,0.02 -1.06,0.34 -1.11,0.37l0.25 2.48 -3.07 1.04 0.01 0.18c0.13,-0.11 0.3,-0.18 0.47,-0.21 0.04,-0 0.05,-0 0.07,-0.02l0.01 -0.01c0.04,0.01 0.24,-0.07 0.29,-0.09 0.1,-0.04 0.19,-0.06 0.29,-0.1l0.58 -0.2c0.39,-0.13 0.78,-0.27 1.17,-0.4l0.18 -0.06c0.18,-0.06 0.12,-0.17 0.11,-0.39 -0,-0.05 -0.01,-0.12 -0.02,-0.17 -0,-0.03 -0.01,-0.07 -0.01,-0.09l-0.03 -0.27c-0.01,-0.05 -0.01,-0.13 -0.02,-0.18l-0.03 -0.35c-0.01,-0.11 -0.03,-0.24 -0.04,-0.36 -0.01,-0.17 -0.07,-0.57 -0.07,-0.72 0.04,-0.01 0.09,-0.02 0.13,-0.04 0.04,-0.01 0.09,-0.03 0.13,-0.04 0.09,-0.03 0.17,-0.06 0.26,-0.09 0.26,-0.08 0.52,-0.17 0.78,-0.26l1.83 -0.6c0.09,-0.03 0.17,-0.05 0.26,-0.08l0.53 -0.17c0.04,-0.01 0.09,-0.03 0.13,-0.04 0.02,-0.01 0.04,-0.01 0.06,-0.02 0.03,-0.01 0.04,-0.02 0.07,-0.02 0.01,0.03 0.03,0.1 0.04,0.14 0.01,0.05 0.03,0.1 0.04,0.15 0.03,0.1 0.06,0.19 0.08,0.29 0.01,0.05 0.03,0.09 0.04,0.14 0.03,0.1 0.05,0.21 0.18,0.19 0.06,-0.01 0.08,-0.04 0.11,-0.08l0.27 -0.29c0.02,-0.02 0.02,-0.03 0.04,-0.05l0.32 -0.34c0.02,-0.02 0.03,-0.03 0.05,-0.05 0.02,-0.02 0.02,-0.03 0.05,-0.05 0.15,-0.16 0.3,-0.32 0.45,-0.48l0.36 -0.39c0.03,-0.04 0.06,-0.06 0.09,-0.1l0.31 -0.34c0.02,-0.02 0.03,-0.03 0.05,-0.05l0.18 -0.2c0.03,-0.03 0.06,-0.06 0.08,-0.11 0.02,-0.06 0,-0.11 -0.03,-0.14 -0.04,-0.05 -0.22,-0.08 -0.28,-0.09l-0.6 -0.15c-0.18,-0.04 -0.43,-0.1 -0.6,-0.15 -0.05,-0.01 -0.09,-0.02 -0.15,-0.04l-0.46 -0.11c-0.25,-0.06 -0.5,-0.12 -0.75,-0.18l-0.3 -0.08c-0.07,-0.02 -0.16,-0.04 -0.21,0.02 -0.06,0.06 -0.03,0.14 -0.01,0.22l0.12 0.45c0.02,0.09 0.11,0.38 0.12,0.45 -0.04,0.01 -0.07,0.02 -0.11,0.04l-1.24 0.48c-0.52,0.21 -1.05,0.4 -1.57,0.61l-0.33 0.13c-0.2,0.07 -0.58,0.23 -0.79,0.3l-0.67 0.26c-0.07,0.03 -0.15,0.06 -0.22,0.09 -0.17,0.07 -0.18,0.09 -0.16,0.28l0.12 0.97c0.03,0.27 0.08,0.56 0.1,0.83 0.01,0.1 0.02,0.18 0.03,0.28 0.01,0.04 0.01,0.1 0.02,0.14l0.02 0.14c-0.08,0.02 -0.15,0.06 -0.23,0.1l-0.46 0.2c-0.39,0.15 -0.77,0.34 -1.16,0.5l-0.46 0.2c-0.09,0.04 -0.4,0.15 -0.44,0.22 -0.03,0.04 -0.03,0.08 -0.02,0.12l0.15 0.85c0.01,0.05 0.01,0.1 0.03,0.14z"/>
   <path class="fil8" d="M10.92 7.87l-0.03 0.36c0.05,-0 0.09,-0.01 0.14,-0.01 0.11,-0 0.26,-0.05 0.39,-0.07 -0,-0.12 -0.1,-0.41 -0.13,-0.54l-0.11 -0.4c-0.01,-0.02 -0.04,-0.13 -0.01,-0.15 0.04,-0.02 0.04,0.03 0.07,0.06 0.05,0.05 0.25,0.33 0.3,0.4 0.09,0.13 0.22,0.4 0.29,0.54 0.06,0.13 0.07,0.15 0.14,0.28 0.02,0.03 0.04,0.06 0.05,0.09 0.08,-0.01 0.41,-0.18 0.51,-0.23 0.04,-0.02 0.14,-0.07 0.16,-0.09 0.01,-0.11 -0.07,-0.19 -0.11,-0.26 -0.05,-0.08 -0.1,-0.15 -0.15,-0.23 -0.05,-0.08 -0.1,-0.15 -0.16,-0.22 -0.06,-0.07 -0.12,-0.15 -0.17,-0.21l-0.34 -0.33c-0.13,-0.11 -0.11,-0.1 -0.27,-0.21 -0.11,-0.07 -0.24,-0.16 -0.36,-0.21 -0.07,-0.03 -0.06,-0.04 -0.14,-0.04 -0.23,0.01 -0.71,-0.15 -0.92,-0.23 -0.2,-0.07 -0.37,-0.13 -0.55,-0.22 -0.09,-0.04 -0.18,-0.1 -0.24,-0.15l-0.15 -0.14c-0.02,-0.02 -0.03,-0.04 -0.05,-0.05 -0.09,0.03 -0.21,0.21 -0.23,0.34 -0,0.04 0.01,0.08 0.03,0.1 0.03,0.04 0.23,0.13 0.28,0.15 0.22,0.11 0.59,0.26 0.83,0.32 0.08,0.02 0.64,0.13 0.67,0.18 0.02,0.03 0.07,0.17 0.08,0.21 0.07,0.21 0.22,0.72 0.2,0.95z"/>
   <path class="fil9" d="M3.11 13.63c-0.04,-0.04 -0.17,-0.41 -0.2,-0.49 -0.18,-0.63 -0.18,-1.18 0.02,-1.8 0.06,-0.17 0.14,-0.33 0.22,-0.47 0.04,-0.07 0.09,-0.14 0.14,-0.21 0.05,-0.07 0.11,-0.13 0.16,-0.19 0.09,-0.1 0.24,-0.23 0.38,-0.31 0.09,-0.05 0.33,-0.13 0.44,-0.16 0.01,-0 0.02,-0.01 0.03,-0.01 0.03,-0.01 0.01,-0 0.03,-0.02 -0.51,0.06 -1.03,0.27 -1.39,0.5 -0.83,0.53 -1.38,1.53 -0.94,2.52 0.05,0.11 0.12,0.21 0.18,0.29l0.23 0.25c0.04,0.05 0.07,0.08 0.11,0.12 0.07,0.07 0.04,0.06 0.17,0.04 0.08,-0.01 0.36,-0.05 0.39,-0.07l0.01 -0.01z"/>
  </g>
 </g>
</svg>
